<?xml version="1.0" encoding="UTF-8" standalone="no"?>
<!-- Created with Inkscape (http://www.inkscape.org/) -->
<svg xmlns:dc="http://purl.org/dc/elements/1.1/" xmlns:cc="http://creativecommons.org/ns#" xmlns:rdf="http://www.w3.org/1999/02/22-rdf-syntax-ns#" xmlns:svg="http://www.w3.org/2000/svg" xmlns="http://www.w3.org/2000/svg" xmlns:sodipodi="http://sodipodi.sourceforge.net/DTD/sodipodi-0.dtd" xmlns:inkscape="http://www.inkscape.org/namespaces/inkscape" width="109.29482" height="129.45439" id="svg7581" version="1.1" inkscape:version="0.48.3.1 r9886" sodipodi:docname="dimred-outer2.svg">
  <defs id="defs7583"/>
  <sodipodi:namedview id="base" pagecolor="#ffffff" bordercolor="#666666" borderopacity="1.0" inkscape:pageopacity="0.0" inkscape:pageshadow="2" inkscape:zoom="1.979899" inkscape:cx="-9.6468093" inkscape:cy="8.5991367" inkscape:document-units="px" inkscape:current-layer="g6134" showgrid="false" fit-margin-top="0" fit-margin-left="0" fit-margin-right="0" fit-margin-bottom="0" inkscape:window-width="1364" inkscape:window-height="731" inkscape:window-x="0" inkscape:window-y="35" inkscape:window-maximized="1"/>
  <metadata id="metadata7586">
    <rdf:RDF>
      <cc:Work rdf:about="">
        <dc:format>image/svg+xml</dc:format>
        <dc:type rdf:resource="http://purl.org/dc/dcmitype/StillImage"/>
        <dc:title/>
      </cc:Work>
    </rdf:RDF>
  </metadata>
  <g inkscape:label="Ebene 1" inkscape:groupmode="layer" id="layer1" transform="translate(-359.64681,-316.20596)">
    <g transform="translate(-1007.611,753.42381)" id="g6090">
      <g transform="translate(265.95262,3.5432996)" id="g6092" style="fill:#ffffff;fill-opacity:1;stroke:#000000;stroke-linejoin:round;stroke-opacity:1">
        <path transform="translate(0,308.2677)" inkscape:connector-curvature="0" id="path6094" d="m 1101.8038,-646.65355 0,17.71654 18.9966,8.85826 0,-17.71653 z" style="fill:#ffffff;fill-opacity:1;stroke:#000000;stroke-width:1px;stroke-linecap:butt;stroke-linejoin:round;stroke-opacity:1"/>
        <path transform="translate(0,308.2677)" inkscape:connector-curvature="0" id="path6096" d="m 1101.8038,-646.65355 18.9966,-8.85827 18.9966,8.85827 -18.9966,8.85827 z" style="fill:#ffffff;fill-opacity:1;stroke:#000000;stroke-width:1px;stroke-linecap:butt;stroke-linejoin:round;stroke-opacity:1"/>
        <path transform="translate(0,308.2677)" inkscape:connector-curvature="0" id="path6098" d="m 1120.8004,-637.79528 18.9966,-8.85827 0,17.71654 -18.9966,8.85826 z" style="fill:#ffffff;fill-opacity:1;stroke:#000000;stroke-width:1px;stroke-linecap:butt;stroke-linejoin:round;stroke-opacity:1"/>
      </g>
      <g style="fill:#ffffff;fill-opacity:1;stroke:#000000;stroke-linejoin:round;stroke-opacity:1" id="g6100" transform="translate(265.95262,-17.716543)">
        <path style="fill:#ffffff;fill-opacity:1;stroke:#000000;stroke-width:1px;stroke-linecap:butt;stroke-linejoin:round;stroke-opacity:1" d="m 1101.8038,-646.65355 0,17.71654 18.9966,8.85826 0,-17.71653 z" id="path6102" inkscape:connector-curvature="0" transform="translate(0,308.2677)"/>
        <path style="fill:#ffffff;fill-opacity:1;stroke:#000000;stroke-width:1px;stroke-linecap:butt;stroke-linejoin:round;stroke-opacity:1" d="m 1101.8038,-646.65355 18.9966,-8.85827 18.9966,8.85827 -18.9966,8.85827 z" id="path6104" inkscape:connector-curvature="0" transform="translate(0,308.2677)"/>
        <path style="fill:#ffffff;fill-opacity:1;stroke:#000000;stroke-width:1px;stroke-linecap:butt;stroke-linejoin:round;stroke-opacity:1" d="m 1120.8004,-637.79528 18.9966,-8.85827 0,17.71654 -18.9966,8.85826 z" id="path6106" inkscape:connector-curvature="0" transform="translate(0,308.2677)"/>
      </g>
      <g transform="translate(265.95262,-38.976386)" id="g6108" style="fill:#ffffff;fill-opacity:1;stroke:#000000;stroke-linejoin:round;stroke-opacity:1">
        <path transform="translate(0,308.2677)" inkscape:connector-curvature="0" id="path6110" d="m 1101.8038,-646.65355 0,17.71654 18.9966,8.85826 0,-17.71653 z" style="fill:#ffffff;fill-opacity:1;stroke:#000000;stroke-width:1px;stroke-linecap:butt;stroke-linejoin:round;stroke-opacity:1"/>
        <path transform="translate(0,308.2677)" inkscape:connector-curvature="0" id="path6112" d="m 1101.8038,-646.65355 18.9966,-8.85827 18.9966,8.85827 -18.9966,8.85827 z" style="fill:#ffffff;fill-opacity:1;stroke:#000000;stroke-width:1px;stroke-linecap:butt;stroke-linejoin:round;stroke-opacity:1"/>
        <path transform="translate(0,308.2677)" inkscape:connector-curvature="0" id="path6114" d="m 1120.8004,-637.79528 18.9966,-8.85827 0,17.71654 -18.9966,8.85826 z" style="fill:#ffffff;fill-opacity:1;stroke:#000000;stroke-width:1px;stroke-linecap:butt;stroke-linejoin:round;stroke-opacity:1"/>
      </g>
    </g>
    <g transform="translate(-671.37095,663.95529)" id="g6118" style="fill:#ffffff;fill-opacity:1;stroke:#000000;stroke-linejoin:round;stroke-opacity:1">
      <path transform="translate(0,308.2677)" inkscape:connector-curvature="0" id="path6120" d="m 1101.8038,-646.65355 0,17.71654 18.9966,8.85826 0,-17.71653 z" style="fill:#ffffff;fill-opacity:1;stroke:#000000;stroke-width:1px;stroke-linecap:butt;stroke-linejoin:round;stroke-opacity:1"/>
      <path transform="translate(0,308.2677)" inkscape:connector-curvature="0" id="path6122" d="m 1101.8038,-646.65355 18.9966,-8.85827 18.9966,8.85827 -18.9966,8.85827 z" style="fill:#ffffff;fill-opacity:1;stroke:#000000;stroke-width:1px;stroke-linecap:butt;stroke-linejoin:round;stroke-opacity:1"/>
      <path transform="translate(0,308.2677)" inkscape:connector-curvature="0" id="path6124" d="m 1120.8004,-637.79528 18.9966,-8.85827 0,17.71654 -18.9966,8.85826 z" style="fill:#ffffff;fill-opacity:1;stroke:#000000;stroke-width:1px;stroke-linecap:butt;stroke-linejoin:round;stroke-opacity:1"/>
    </g>
    <g style="fill:#f5f5f5;fill-opacity:1;stroke:#000000;stroke-linejoin:round;stroke-opacity:1" id="g6126" transform="translate(-694.16695,674.58521)">
      <path style="fill:#f5f5f5;fill-opacity:1;stroke:#000000;stroke-width:1px;stroke-linecap:butt;stroke-linejoin:round;stroke-opacity:1" d="m 1101.8038,-646.65355 0,17.71654 18.9966,8.85826 0,-17.71653 z" id="path6128" inkscape:connector-curvature="0" transform="translate(0,308.2677)"/>
      <path style="fill:#f5f5f5;fill-opacity:1;stroke:#000000;stroke-width:1px;stroke-linecap:butt;stroke-linejoin:round;stroke-opacity:1" d="m 1101.8038,-646.65355 18.9966,-8.85827 18.9966,8.85827 -18.9966,8.85827 z" id="path6130" inkscape:connector-curvature="0" transform="translate(0,308.2677)"/>
      <path style="fill:#f5f5f5;fill-opacity:1;stroke:#000000;stroke-width:1px;stroke-linecap:butt;stroke-linejoin:round;stroke-opacity:1" d="m 1120.8004,-637.79528 18.9966,-8.85827 0,17.71654 -18.9966,8.85826 z" id="path6132" inkscape:connector-curvature="0" transform="translate(0,308.2677)"/>
    </g>
    <g transform="translate(-716.96285,685.21514)" id="g6134" style="fill:#333333;fill-opacity:1;stroke:#000000;stroke-linejoin:round;stroke-opacity:1">
      <path transform="translate(0,308.2677)" inkscape:connector-curvature="0" id="path6136" d="m 1101.8038,-646.65355 0,17.71654 18.9966,8.85826 0,-17.71653 z" style="fill:#adff2f;fill-opacity:1;stroke:#000000;stroke-width:1px;stroke-linecap:butt;stroke-linejoin:round;stroke-opacity:1"/>
      <path transform="translate(0,308.2677)" inkscape:connector-curvature="0" id="path6138" d="m 1101.8038,-646.65355 18.9966,-8.85827 18.9966,8.85827 -18.9966,8.85827 z" style="fill:#adff2f;fill-opacity:1;stroke:#000000;stroke-width:1px;stroke-linecap:butt;stroke-linejoin:round;stroke-opacity:1"/>
      <path transform="translate(0,308.2677)" inkscape:connector-curvature="0" id="path6140" d="m 1120.8004,-637.79528 18.9966,-8.85827 0,17.71654 -18.9966,8.85826 z" style="fill:#adff2f;fill-opacity:1;stroke:#000000;stroke-width:1px;stroke-linecap:butt;stroke-linejoin:round;stroke-opacity:1"/>
    </g>
    <g transform="translate(-1055.1026,752.53799)" id="g6142">
      <g transform="translate(334.34046,-47.834656)" id="g6144" style="fill:#ffffff;fill-opacity:1;stroke:#000000;stroke-linejoin:round;stroke-opacity:1">
        <path transform="translate(0,308.2677)" inkscape:connector-curvature="0" id="path6146" d="m 1101.8038,-646.65355 0,17.71654 18.9966,8.85826 0,-17.71653 z" style="fill:#ffffff;fill-opacity:1;stroke:#000000;stroke-width:1px;stroke-linecap:butt;stroke-linejoin:round;stroke-opacity:1"/>
        <path transform="translate(0,308.2677)" inkscape:connector-curvature="0" id="path6148" d="m 1101.8038,-646.65355 18.9966,-8.85827 18.9966,8.85827 -18.9966,8.85827 z" style="fill:#ffffff;fill-opacity:1;stroke:#000000;stroke-width:1px;stroke-linecap:butt;stroke-linejoin:round;stroke-opacity:1"/>
        <path transform="translate(0,308.2677)" inkscape:connector-curvature="0" id="path6150" d="m 1120.8004,-637.79528 18.9966,-8.85827 0,17.71654 -18.9966,8.85826 z" style="fill:#ffffff;fill-opacity:1;stroke:#000000;stroke-width:1px;stroke-linecap:butt;stroke-linejoin:round;stroke-opacity:1"/>
      </g>
      <g style="fill:#ffffff;fill-opacity:1;stroke:#000000;stroke-linejoin:round;stroke-opacity:1" id="g6152" transform="translate(357.1364,-37.204734)">
        <path style="fill:#ffffff;fill-opacity:1;stroke:#000000;stroke-width:1px;stroke-linecap:butt;stroke-linejoin:round;stroke-opacity:1" d="m 1101.8038,-646.65355 0,17.71654 18.9966,8.85826 0,-17.71653 z" id="path6154" inkscape:connector-curvature="0" transform="translate(0,308.2677)"/>
        <path style="fill:#ffffff;fill-opacity:1;stroke:#000000;stroke-width:1px;stroke-linecap:butt;stroke-linejoin:round;stroke-opacity:1" d="m 1101.8038,-646.65355 18.9966,-8.85827 18.9966,8.85827 -18.9966,8.85827 z" id="path6156" inkscape:connector-curvature="0" transform="translate(0,308.2677)"/>
        <path style="fill:#ffffff;fill-opacity:1;stroke:#000000;stroke-width:1px;stroke-linecap:butt;stroke-linejoin:round;stroke-opacity:1" d="m 1120.8004,-637.79528 18.9966,-8.85827 0,17.71654 -18.9966,8.85826 z" id="path6158" inkscape:connector-curvature="0" transform="translate(0,308.2677)"/>
      </g>
      <g transform="translate(379.93234,-26.574813)" id="g6160" style="fill:#ffffff;fill-opacity:1;stroke:#000000;stroke-linejoin:round;stroke-opacity:1">
        <path transform="translate(0,308.2677)" inkscape:connector-curvature="0" id="path6162" d="m 1101.8038,-646.65355 0,17.71654 18.9966,8.85826 0,-17.71653 z" style="fill:#ffffff;fill-opacity:1;stroke:#000000;stroke-width:1px;stroke-linecap:butt;stroke-linejoin:round;stroke-opacity:1"/>
        <path transform="translate(0,308.2677)" inkscape:connector-curvature="0" id="path6164" d="m 1101.8038,-646.65355 18.9966,-8.85827 18.9966,8.85827 -18.9966,8.85827 z" style="fill:#ffffff;fill-opacity:1;stroke:#000000;stroke-width:1px;stroke-linecap:butt;stroke-linejoin:round;stroke-opacity:1"/>
        <path transform="translate(0,308.2677)" inkscape:connector-curvature="0" id="path6166" d="m 1120.8004,-637.79528 18.9966,-8.85827 0,17.71654 -18.9966,8.85826 z" style="fill:#ffffff;fill-opacity:1;stroke:#000000;stroke-width:1px;stroke-linecap:butt;stroke-linejoin:round;stroke-opacity:1"/>
      </g>
    </g>
  </g>
</svg>