<?xml version="1.0" encoding="UTF-8" standalone="no"?>
<!-- Created with Inkscape (http://www.inkscape.org/) -->
<svg xmlns:dc="http://purl.org/dc/elements/1.1/" xmlns:cc="http://creativecommons.org/ns#" xmlns:rdf="http://www.w3.org/1999/02/22-rdf-syntax-ns#" xmlns:svg="http://www.w3.org/2000/svg" xmlns="http://www.w3.org/2000/svg" xmlns:sodipodi="http://sodipodi.sourceforge.net/DTD/sodipodi-0.dtd" xmlns:inkscape="http://www.inkscape.org/namespaces/inkscape" width="109.29487" height="129.45439" id="svg7423" version="1.1" inkscape:version="0.48.3.1 r9886" sodipodi:docname="dimred-outer1.svg">
  <defs id="defs7425"/>
  <sodipodi:namedview id="base" pagecolor="#ffffff" bordercolor="#666666" borderopacity="1.0" inkscape:pageopacity="0.0" inkscape:pageshadow="2" inkscape:zoom="1.4" inkscape:cx="276.06749" inkscape:cy="119.01245" inkscape:document-units="px" inkscape:current-layer="g6062" showgrid="false" fit-margin-top="0" fit-margin-left="0" fit-margin-right="0" fit-margin-bottom="0" inkscape:window-width="1364" inkscape:window-height="731" inkscape:window-x="0" inkscape:window-y="35" inkscape:window-maximized="1"/>
  <metadata id="metadata7428">
    <rdf:RDF>
      <cc:Work rdf:about="">
        <dc:format>image/svg+xml</dc:format>
        <dc:type rdf:resource="http://purl.org/dc/dcmitype/StillImage"/>
        <dc:title/>
      </cc:Work>
    </rdf:RDF>
  </metadata>
  <g inkscape:label="Ebene 1" inkscape:groupmode="layer" id="layer1" transform="translate(-73.932509,-270.49167)">
    <g id="g6048" transform="translate(-1293.3253,707.70952)">
      <g style="fill:#ffffff;fill-opacity:1;stroke:#000000;stroke-linejoin:round;stroke-opacity:1" id="g5976" transform="translate(265.95262,3.5432996)">
        <path style="fill:#ffffff;fill-opacity:1;stroke:#000000;stroke-width:1px;stroke-linecap:butt;stroke-linejoin:round;stroke-opacity:1" d="m 1101.8038,-646.65355 0,17.71654 18.9966,8.85826 0,-17.71653 z" id="path5978" inkscape:connector-curvature="0" transform="translate(0,308.2677)"/>
        <path style="fill:#ffffff;fill-opacity:1;stroke:#000000;stroke-width:1px;stroke-linecap:butt;stroke-linejoin:round;stroke-opacity:1" d="m 1101.8038,-646.65355 18.9966,-8.85827 18.9966,8.85827 -18.9966,8.85827 z" id="path5980" inkscape:connector-curvature="0" transform="translate(0,308.2677)"/>
        <path style="fill:#ffffff;fill-opacity:1;stroke:#000000;stroke-width:1px;stroke-linecap:butt;stroke-linejoin:round;stroke-opacity:1" d="m 1120.8004,-637.79528 18.9966,-8.85827 0,17.71654 -18.9966,8.85826 z" id="path5982" inkscape:connector-curvature="0" transform="translate(0,308.2677)"/>
      </g>
      <g transform="translate(265.95262,-17.716543)" id="g5984" style="fill:#ffffff;fill-opacity:1;stroke:#000000;stroke-linejoin:round;stroke-opacity:1">
        <path transform="translate(0,308.2677)" inkscape:connector-curvature="0" id="path5986" d="m 1101.8038,-646.65355 0,17.71654 18.9966,8.85826 0,-17.71653 z" style="fill:#ffffff;fill-opacity:1;stroke:#000000;stroke-width:1px;stroke-linecap:butt;stroke-linejoin:round;stroke-opacity:1"/>
        <path transform="translate(0,308.2677)" inkscape:connector-curvature="0" id="path5988" d="m 1101.8038,-646.65355 18.9966,-8.85827 18.9966,8.85827 -18.9966,8.85827 z" style="fill:#ffffff;fill-opacity:1;stroke:#000000;stroke-width:1px;stroke-linecap:butt;stroke-linejoin:round;stroke-opacity:1"/>
        <path transform="translate(0,308.2677)" inkscape:connector-curvature="0" id="path5990" d="m 1120.8004,-637.79528 18.9966,-8.85827 0,17.71654 -18.9966,8.85826 z" style="fill:#ffffff;fill-opacity:1;stroke:#000000;stroke-width:1px;stroke-linecap:butt;stroke-linejoin:round;stroke-opacity:1"/>
      </g>
      <g style="fill:#ffffff;fill-opacity:1;stroke:#000000;stroke-linejoin:round;stroke-opacity:1" id="g5992" transform="translate(265.95262,-38.976386)">
        <path style="fill:#ffffff;fill-opacity:1;stroke:#000000;stroke-width:1px;stroke-linecap:butt;stroke-linejoin:round;stroke-opacity:1" d="m 1101.8038,-646.65355 0,17.71654 18.9966,8.85826 0,-17.71653 z" id="path5994" inkscape:connector-curvature="0" transform="translate(0,308.2677)"/>
        <path style="fill:#ffffff;fill-opacity:1;stroke:#000000;stroke-width:1px;stroke-linecap:butt;stroke-linejoin:round;stroke-opacity:1" d="m 1101.8038,-646.65355 18.9966,-8.85827 18.9966,8.85827 -18.9966,8.85827 z" id="path5996" inkscape:connector-curvature="0" transform="translate(0,308.2677)"/>
        <path style="fill:#ffffff;fill-opacity:1;stroke:#000000;stroke-width:1px;stroke-linecap:butt;stroke-linejoin:round;stroke-opacity:1" d="m 1120.8004,-637.79528 18.9966,-8.85827 0,17.71654 -18.9966,8.85826 z" id="path5998" inkscape:connector-curvature="0" transform="translate(0,308.2677)"/>
      </g>
    </g>
    <g id="g6062" transform="translate(-1308.5226,702.39456)">
      <g style="fill:#ff0000;fill-opacity:1;stroke:#000000;stroke-linejoin:round;stroke-opacity:1" id="g6024" transform="translate(351.4374,-84.153557)">
        <path style="fill:#ff0000;fill-opacity:1;stroke:#000000;stroke-width:1px;stroke-linecap:butt;stroke-linejoin:round;stroke-opacity:1" d="m 1101.8038,-646.65355 0,17.71654 18.9966,8.85826 0,-17.71653 z" id="path6026" inkscape:connector-curvature="0" transform="translate(0,308.2677)"/>
        <path style="fill:#ff0000;fill-opacity:1;stroke:#000000;stroke-width:1px;stroke-linecap:butt;stroke-linejoin:round;stroke-opacity:1" d="m 1101.8038,-646.65355 18.9966,-8.85827 18.9966,8.85827 -18.9966,8.85827 z" id="path6028" inkscape:connector-curvature="0" transform="translate(0,308.2677)"/>
        <path style="fill:#ff0000;fill-opacity:1;stroke:#000000;stroke-width:1px;stroke-linecap:butt;stroke-linejoin:round;stroke-opacity:1" d="m 1120.8004,-637.79528 18.9966,-8.85827 0,17.71654 -18.9966,8.85826 z" id="path6030" inkscape:connector-curvature="0" transform="translate(0,308.2677)"/>
      </g>
      <g transform="translate(328.64146,-73.523636)" id="g6032" style="fill:#ff7f50;fill-opacity:1;stroke:#000000;stroke-linejoin:round;stroke-opacity:1">
        <path transform="translate(0,308.2677)" inkscape:connector-curvature="0" id="path6034" d="m 1101.8038,-646.65355 0,17.71654 18.9966,8.85826 0,-17.71653 z" style="fill:#ff7f50;fill-opacity:1;stroke:#000000;stroke-width:1px;stroke-linecap:butt;stroke-linejoin:round;stroke-opacity:1"/>
        <path transform="translate(0,308.2677)" inkscape:connector-curvature="0" id="path6036" d="m 1101.8038,-646.65355 18.9966,-8.85827 18.9966,8.85827 -18.9966,8.85827 z" style="fill:#ff7f50;fill-opacity:1;stroke:#000000;stroke-width:1px;stroke-linecap:butt;stroke-linejoin:round;stroke-opacity:1"/>
        <path transform="translate(0,308.2677)" inkscape:connector-curvature="0" id="path6038" d="m 1120.8004,-637.79528 18.9966,-8.85827 0,17.71654 -18.9966,8.85826 z" style="fill:#ff7f50;fill-opacity:1;stroke:#000000;stroke-width:1px;stroke-linecap:butt;stroke-linejoin:round;stroke-opacity:1"/>
      </g>
      <g style="fill:#ffffff;fill-opacity:1;stroke:#000000;stroke-linejoin:round;stroke-opacity:1" id="g6040" transform="translate(305.84552,-62.89371)">
        <path style="fill:#ffffff;fill-opacity:1;stroke:#000000;stroke-width:1px;stroke-linecap:butt;stroke-linejoin:round;stroke-opacity:1" d="m 1101.8038,-646.65355 0,17.71654 18.9966,8.85826 0,-17.71653 z" id="path6042" inkscape:connector-curvature="0" transform="translate(0,308.2677)"/>
        <path style="fill:#ffffff;fill-opacity:1;stroke:#000000;stroke-width:1px;stroke-linecap:butt;stroke-linejoin:round;stroke-opacity:1" d="m 1101.8038,-646.65355 18.9966,-8.85827 18.9966,8.85827 -18.9966,8.85827 z" id="path6044" inkscape:connector-curvature="0" transform="translate(0,308.2677)"/>
        <path style="fill:#ffffff;fill-opacity:1;stroke:#000000;stroke-width:1px;stroke-linecap:butt;stroke-linejoin:round;stroke-opacity:1" d="m 1120.8004,-637.79528 18.9966,-8.85827 0,17.71654 -18.9966,8.85826 z" id="path6046" inkscape:connector-curvature="0" transform="translate(0,308.2677)"/>
      </g>
    </g>
    <g id="g6076" transform="translate(-1340.8169,706.8237)">
      <g style="fill:#ffffff;fill-opacity:1;stroke:#000000;stroke-linejoin:round;stroke-opacity:1" id="g6000" transform="translate(334.34046,-47.834656)">
        <path style="fill:#ffffff;fill-opacity:1;stroke:#000000;stroke-width:1px;stroke-linecap:butt;stroke-linejoin:round;stroke-opacity:1" d="m 1101.8038,-646.65355 0,17.71654 18.9966,8.85826 0,-17.71653 z" id="path6002" inkscape:connector-curvature="0" transform="translate(0,308.2677)"/>
        <path style="fill:#ffffff;fill-opacity:1;stroke:#000000;stroke-width:1px;stroke-linecap:butt;stroke-linejoin:round;stroke-opacity:1" d="m 1101.8038,-646.65355 18.9966,-8.85827 18.9966,8.85827 -18.9966,8.85827 z" id="path6004" inkscape:connector-curvature="0" transform="translate(0,308.2677)"/>
        <path style="fill:#ffffff;fill-opacity:1;stroke:#000000;stroke-width:1px;stroke-linecap:butt;stroke-linejoin:round;stroke-opacity:1" d="m 1120.8004,-637.79528 18.9966,-8.85827 0,17.71654 -18.9966,8.85826 z" id="path6006" inkscape:connector-curvature="0" transform="translate(0,308.2677)"/>
      </g>
      <g transform="translate(357.1364,-37.204734)" id="g6008" style="fill:#ffffff;fill-opacity:1;stroke:#000000;stroke-linejoin:round;stroke-opacity:1">
        <path transform="translate(0,308.2677)" inkscape:connector-curvature="0" id="path6010" d="m 1101.8038,-646.65355 0,17.71654 18.9966,8.85826 0,-17.71653 z" style="fill:#ffffff;fill-opacity:1;stroke:#000000;stroke-width:1px;stroke-linecap:butt;stroke-linejoin:round;stroke-opacity:1"/>
        <path transform="translate(0,308.2677)" inkscape:connector-curvature="0" id="path6012" d="m 1101.8038,-646.65355 18.9966,-8.85827 18.9966,8.85827 -18.9966,8.85827 z" style="fill:#ffffff;fill-opacity:1;stroke:#000000;stroke-width:1px;stroke-linecap:butt;stroke-linejoin:round;stroke-opacity:1"/>
        <path transform="translate(0,308.2677)" inkscape:connector-curvature="0" id="path6014" d="m 1120.8004,-637.79528 18.9966,-8.85827 0,17.71654 -18.9966,8.85826 z" style="fill:#ffffff;fill-opacity:1;stroke:#000000;stroke-width:1px;stroke-linecap:butt;stroke-linejoin:round;stroke-opacity:1"/>
      </g>
      <g style="fill:#ffffff;fill-opacity:1;stroke:#000000;stroke-linejoin:round;stroke-opacity:1" id="g6016" transform="translate(379.93234,-26.574813)">
        <path style="fill:#ffffff;fill-opacity:1;stroke:#000000;stroke-width:1px;stroke-linecap:butt;stroke-linejoin:round;stroke-opacity:1" d="m 1101.8038,-646.65355 0,17.71654 18.9966,8.85826 0,-17.71653 z" id="path6018" inkscape:connector-curvature="0" transform="translate(0,308.2677)"/>
        <path style="fill:#ffffff;fill-opacity:1;stroke:#000000;stroke-width:1px;stroke-linecap:butt;stroke-linejoin:round;stroke-opacity:1" d="m 1101.8038,-646.65355 18.9966,-8.85827 18.9966,8.85827 -18.9966,8.85827 z" id="path6020" inkscape:connector-curvature="0" transform="translate(0,308.2677)"/>
        <path style="fill:#ffffff;fill-opacity:1;stroke:#000000;stroke-width:1px;stroke-linecap:butt;stroke-linejoin:round;stroke-opacity:1" d="m 1120.8004,-637.79528 18.9966,-8.85827 0,17.71654 -18.9966,8.85826 z" id="path6022" inkscape:connector-curvature="0" transform="translate(0,308.2677)"/>
      </g>
    </g>
  </g>
</svg>