<?xml version="1.0" encoding="UTF-8" standalone="no"?>
<!-- Created with Inkscape (http://www.inkscape.org/) -->
<svg xmlns:dc="http://purl.org/dc/elements/1.1/" xmlns:cc="http://creativecommons.org/ns#" xmlns:rdf="http://www.w3.org/1999/02/22-rdf-syntax-ns#" xmlns:svg="http://www.w3.org/2000/svg" xmlns="http://www.w3.org/2000/svg" xmlns:sodipodi="http://sodipodi.sourceforge.net/DTD/sodipodi-0.dtd" xmlns:inkscape="http://www.inkscape.org/namespaces/inkscape" width="200.47929" height="240.78984" id="svg2" version="1.1" inkscape:version="0.48.3.1 r9886" sodipodi:docname="hubs-auths.svg">
  <style type="text/css" id="style2986">
	 path {stroke-width: 2px; stroke: #fff; opacity: 1; }
	 .circle {fill: #333; filter:url(#dropshadow);}
	 .auth {fill: #555;}
	 .label {fill: #fff; stroke-width: 0px; font-size: 1em; font-family: Arial;}
	 .arrowhead {fill: #fff; stroke: #fff; overflow: visible;}
     .link {stroke:#fff ;stroke-width:2px; marker-end:url(#Arrow2Mend); filter:url(#dropshadow);}
  </style>
  <defs id="defs4">
    <marker inkscape:stockid="Arrow2Mend" orient="auto" refY="0" refX="0" id="Arrow2Mend" class="arrowhead" style="fill:#ffffff;stroke:#ffffff;overflow:visible">
      <path id="path3806" d="M 8.7185878,4.0337352 -2.2072895,0.01601326 8.7185884,-4.0017078 c -1.7454984,2.3720609 -1.7354408,5.6174519 -6e-7,8.035443 z" transform="scale(-0.6,-0.6)" inkscape:connector-curvature="0" style="stroke:#ffffff;stroke-width:2px"/>
    </marker>
    <filter id="dropshadow" height="1.3" color-interpolation-filters="sRGB">
      <feGaussianBlur in="SourceAlpha" stdDeviation="3" id="feGaussianBlur2992"/>
      <!-- stdDeviation is how much to blur -->
      <feOffset dx="-2" dy="2" result="offsetblur" id="feOffset2994"/>
      <!-- how much to offset -->
      <feMerge id="feMerge2996">
        <feMergeNode id="feMergeNode2998"/>
        <!-- this contains the offset blurred image -->
        <feMergeNode in="SourceGraphic" id="feMergeNode3000"/>
        <!-- this contains the element that the filter is applied to -->
      </feMerge>
    </filter>
  </defs>
  <sodipodi:namedview id="base" pagecolor="#ffffff" bordercolor="#666666" borderopacity="1.0" inkscape:pageopacity="0.0" inkscape:pageshadow="2" inkscape:zoom="1.979899" inkscape:cx="45.84083" inkscape:cy="107.83778" inkscape:document-units="px" inkscape:current-layer="layer1" showgrid="true" inkscape:window-width="1364" inkscape:window-height="731" inkscape:window-x="0" inkscape:window-y="35" inkscape:window-maximized="1" fit-margin-top="0" fit-margin-left="0" fit-margin-right="0" fit-margin-bottom="0">
    <inkscape:grid type="xygrid" id="grid2985" empspacing="5" visible="true" enabled="true" snapvisiblegridlinesonly="true" originx="-193.8px" originy="-408.8px"/>
  </sodipodi:namedview>
  <metadata id="metadata7">
    <rdf:RDF>
      <cc:Work rdf:about="">
        <dc:format>image/svg+xml</dc:format>
        <dc:type rdf:resource="http://purl.org/dc/dcmitype/StillImage"/>
        <dc:title/>
      </cc:Work>
    </rdf:RDF>
  </metadata>
  <g inkscape:label="Ebene 1" inkscape:groupmode="layer" id="layer1" transform="translate(-193.8,-423.77234)">
    <path sodipodi:type="arc" id="hub1" class="circle" sodipodi:cx="225" sodipodi:cy="169.09448" sodipodi:rx="25" sodipodi:ry="25" d="m 250,169.09448 c 0,13.80712 -11.19288,25 -25,25 -13.80712,0 -25,-11.19288 -25,-25 0,-13.80712 11.19288,-25 25,-25 13.80712,0 25,11.19288 25,25 z" transform="translate(0,303.2677)" inkscape:label="#path2987"/>
    <path transform="translate(0,373.2677)" d="m 250,169.09448 c 0,13.80712 -11.19288,25 -25,25 -13.80712,0 -25,-11.19288 -25,-25 0,-13.80712 11.19288,-25 25,-25 13.80712,0 25,11.19288 25,25 z" sodipodi:ry="25" sodipodi:rx="25" sodipodi:cy="169.09448" sodipodi:cx="225" id="hub2" class="circle" sodipodi:type="arc" inkscape:label="#path3757"/>
    <path sodipodi:type="arc" id="hub3" class="circle" sodipodi:cx="225" sodipodi:cy="169.09448" sodipodi:rx="25" sodipodi:ry="25" d="m 250,169.09448 c 0,13.80712 -11.19288,25 -25,25 -13.80712,0 -25,-11.19288 -25,-25 0,-13.80712 11.19288,-25 25,-25 13.80712,0 25,11.19288 25,25 z" transform="translate(0,443.2677)" inkscape:label="#path3759"/>
    <path transform="translate(125,338.2677)" d="m 250,169.09448 c 0,13.80712 -11.19288,25 -25,25 -13.80712,0 -25,-11.19288 -25,-25 0,-13.80712 11.19288,-25 25,-25 13.80712,0 25,11.19288 25,25 z" sodipodi:ry="25" sodipodi:rx="25" sodipodi:cy="169.09448" sodipodi:cx="225" id="auth1" class="circle auth" sodipodi:type="arc" inkscape:label="#path3761"/>
    <path sodipodi:type="arc" id="auth2" class="circle auth" sodipodi:cx="225" sodipodi:cy="169.09448" sodipodi:rx="25" sodipodi:ry="25" d="m 250,169.09448 c 0,13.80712 -11.19288,25 -25,25 -13.80712,0 -25,-11.19288 -25,-25 0,-13.80712 11.19288,-25 25,-25 13.80712,0 25,11.19288 25,25 z" transform="translate(125,408.2677)" inkscape:label="#path3763"/>
    <path d="m 250,164.09448 75,35" id="path3765" class="link" inkscape:connector-curvature="0" transform="translate(0,308.2677)"/>
    <path d="m 250,234.09448 75,-35" id="path3767" class="link" inkscape:connector-curvature="0" transform="translate(0,308.2677)"/>
    <path d="m 250,304.09448 75,-35" id="path3771" class="link" inkscape:connector-curvature="0" transform="translate(0,308.2677)"/>
    <path d="m 250,234.09448 75,35" id="path3773" class="link" inkscape:connector-curvature="0" transform="translate(0,308.2677)"/>
    <path d="m 250,164.09448 75,105" id="path4953" class="link" inkscape:connector-curvature="0" transform="translate(0,308.2677)"/>
    <text xml:space="preserve" class="label" x="205" y="440.36218" id="text5139" sodipodi:linespacing="125%">
	   <tspan sodipodi:role="line" id="tspan5141" x="205" y="440.36218">Hubs</tspan></text>
    <text xml:space="preserve" class="label" x="315" y="440.36218" id="text5143" sodipodi:linespacing="125%">
	   <tspan sodipodi:role="line" id="tspan5145" x="315" y="440.36218">Authorities</tspan></text>
  </g>
</svg>