<?xml version="1.0" encoding="UTF-8" standalone="no"?>
<!-- Created with Inkscape (http://www.inkscape.org/) -->

<svg
   xmlns:dc="http://purl.org/dc/elements/1.1/"
   xmlns:cc="http://creativecommons.org/ns#"
   xmlns:rdf="http://www.w3.org/1999/02/22-rdf-syntax-ns#"
   xmlns:svg="http://www.w3.org/2000/svg"
   xmlns="http://www.w3.org/2000/svg"
   xmlns:sodipodi="http://sodipodi.sourceforge.net/DTD/sodipodi-0.dtd"
   xmlns:inkscape="http://www.inkscape.org/namespaces/inkscape"
   id="svg2816"
   version="1.1"
   inkscape:version="0.48.4 r9939"
   width="630"
   height="628.75"
   xml:space="preserve"
   sodipodi:docname="scatter_plot.svg"><metadata
     id="metadata2822"><rdf:RDF><cc:Work
         rdf:about=""><dc:format>image/svg+xml</dc:format><dc:type
           rdf:resource="http://purl.org/dc/dcmitype/StillImage" /><dc:title /></cc:Work></rdf:RDF></metadata><defs
     id="defs2820"><inkscape:perspective
       sodipodi:type="inkscape:persp3d"
       inkscape:vp_x="0 : 0.5 : 1"
       inkscape:vp_y="0 : 1000 : 0"
       inkscape:vp_z="1 : 0.5 : 1"
       inkscape:persp3d-origin="0.5 : 0.33333333 : 1"
       id="perspective2824" /><clipPath
       clipPathUnits="userSpaceOnUse"
       id="clipPath2834"><path
         d="m 59.04,73.44 414.72,0 0,370.77 -414.72,0 0,-370.77 z"
         id="path2836" /></clipPath><clipPath
       clipPathUnits="userSpaceOnUse"
       id="clipPath2842"><path
         d="m 59.04,73.44 414.72,0 0,370.77 -414.72,0 0,-370.77 z"
         id="path2844" /></clipPath><clipPath
       clipPathUnits="userSpaceOnUse"
       id="clipPath2972"><path
         d="m 0,0 504,0 0,503.25 -504,0 L 0,0 z"
         id="path2974" /></clipPath><clipPath
       clipPathUnits="userSpaceOnUse"
       id="clipPath3046"><path
         d="m 0,0 504,0 0,503.25 -504,0 L 0,0 z"
         id="path3048" /></clipPath></defs><sodipodi:namedview
     pagecolor="#ffffff"
     bordercolor="#666666"
     borderopacity="1"
     objecttolerance="10"
     gridtolerance="10"
     guidetolerance="10"
     inkscape:pageopacity="1"
     inkscape:pageshadow="2"
     inkscape:window-width="664"
     inkscape:window-height="481"
     id="namedview2818"
     showgrid="false"
     inkscape:zoom="0.37534791"
     inkscape:cx="315"
     inkscape:cy="314.375"
     inkscape:window-x="57"
     inkscape:window-y="34"
     inkscape:window-maximized="0"
     inkscape:current-layer="g2826" /><g
     id="g2826"
     inkscape:groupmode="layer"
     inkscape:label="Scatterplot for quality characteristic XXX"
     transform="matrix(1.25,0,0,-1.25,0,628.75)"><g
       id="g2828" /><g
       id="g2830"><g
         id="g2832"
         clip-path="url(#clipPath2834)" /></g><g
       id="g2838"><g
         id="g2840"
         clip-path="url(#clipPath2842)"><path
           d="m 69.89,425.97 9.02,0 0,9.02 -9.02,0 0,-9.02 z"
           style="fill:#048004;fill-opacity:1;fill-rule:evenodd;stroke:none"
           id="path2846" /><path
           d="m 76.29,374.63 9.02,0 0,9.01 -9.02,0 0,-9.01 z"
           style="fill:#048004;fill-opacity:1;fill-rule:evenodd;stroke:none"
           id="path2848" /><path
           d="m 82.69,416.73 9.02,0 0,9.02 -9.02,0 0,-9.02 z"
           style="fill:#048004;fill-opacity:1;fill-rule:evenodd;stroke:none"
           id="path2850" /><path
           d="m 89.09,360.94 9.02,0 0,9.01 -9.02,0 0,-9.01 z"
           style="fill:#048004;fill-opacity:1;fill-rule:evenodd;stroke:none"
           id="path2852" /><path
           d="m 95.49,347.59 9.02,0 0,9.01 -9.02,0 0,-9.01 z"
           style="fill:#048004;fill-opacity:1;fill-rule:evenodd;stroke:none"
           id="path2854" /><path
           d="m 101.89,329.45 9.02,0 0,9.01 -9.02,0 0,-9.01 z"
           style="fill:#048004;fill-opacity:1;fill-rule:evenodd;stroke:none"
           id="path2856" /><path
           d="m 108.29,269.21 9.02,0 0,9.01 -9.02,0 0,-9.01 z"
           style="fill:#048004;fill-opacity:1;fill-rule:evenodd;stroke:none"
           id="path2858" /><path
           d="m 114.69,285.29 9.02,0 0,9.02 -9.02,0 0,-9.02 z"
           style="fill:#048004;fill-opacity:1;fill-rule:evenodd;stroke:none"
           id="path2860" /><path
           d="m 121.09,314.04 9.02,0 0,9.02 -9.02,0 0,-9.02 z"
           style="fill:#048004;fill-opacity:1;fill-rule:evenodd;stroke:none"
           id="path2862" /><path
           d="m 127.49,269.89 9.02,0 0,9.02 -9.02,0 0,-9.02 z"
           style="fill:#048004;fill-opacity:1;fill-rule:evenodd;stroke:none"
           id="path2864" /><path
           d="m 133.89,330.47 9.02,0 0,9.02 -9.02,0 0,-9.02 z"
           style="fill:#048004;fill-opacity:1;fill-rule:evenodd;stroke:none"
           id="path2866" /><path
           d="m 140.29,210.33 9.02,0 0,9.02 -9.02,0 0,-9.02 z"
           style="fill:#048004;fill-opacity:1;fill-rule:evenodd;stroke:none"
           id="path2868" /><path
           d="m 146.69,330.13 9.02,0 0,9.02 -9.02,0 0,-9.02 z"
           style="fill:#048004;fill-opacity:1;fill-rule:evenodd;stroke:none"
           id="path2870" /><path
           d="m 153.09,232.58 9.02,0 0,9.02 -9.02,0 0,-9.02 z"
           style="fill:#048004;fill-opacity:1;fill-rule:evenodd;stroke:none"
           id="path2872" /><path
           d="m 159.49,378.05 9.02,0 0,9.02 -9.02,0 0,-9.02 z"
           style="fill:#048004;fill-opacity:1;fill-rule:evenodd;stroke:none"
           id="path2874" /><path
           d="m 165.89,270.23 9.02,0 0,9.02 -9.02,0 0,-9.02 z"
           style="fill:#048004;fill-opacity:1;fill-rule:evenodd;stroke:none"
           id="path2876" /><path
           d="m 172.29,286.66 9.02,0 0,9.02 -9.02,0 0,-9.02 z"
           style="fill:#048004;fill-opacity:1;fill-rule:evenodd;stroke:none"
           id="path2878" /><path
           d="m 178.69,269.89 9.02,0 0,9.02 -9.02,0 0,-9.02 z"
           style="fill:#048004;fill-opacity:1;fill-rule:evenodd;stroke:none"
           id="path2880" /><path
           d="m 185.09,268.86 9.02,0 0,9.02 -9.02,0 0,-9.02 z"
           style="fill:#048004;fill-opacity:1;fill-rule:evenodd;stroke:none"
           id="path2882" /><path
           d="m 191.49,284.95 9.02,0 0,9.02 -9.02,0 0,-9.02 z"
           style="fill:#048004;fill-opacity:1;fill-rule:evenodd;stroke:none"
           id="path2884" /><path
           d="m 197.89,316.1 9.02,0 0,9.02 -9.02,0 0,-9.02 z"
           style="fill:#048004;fill-opacity:1;fill-rule:evenodd;stroke:none"
           id="path2886" /><path
           d="m 204.29,285.98 9.02,0 0,9.01 -9.02,0 0,-9.01 z"
           style="fill:#048004;fill-opacity:1;fill-rule:evenodd;stroke:none"
           id="path2888" /><path
           d="m 210.69,281.87 9.02,0 0,9.02 -9.02,0 0,-9.02 z"
           style="fill:#048004;fill-opacity:1;fill-rule:evenodd;stroke:none"
           id="path2890" /><path
           d="m 217.09,272.29 9.02,0 0,9.01 -9.02,0 0,-9.01 z"
           style="fill:#048004;fill-opacity:1;fill-rule:evenodd;stroke:none"
           id="path2892" /><path
           d="m 223.49,309.25 9.02,0 0,9.02 -9.02,0 0,-9.02 z"
           style="fill:#048004;fill-opacity:1;fill-rule:evenodd;stroke:none"
           id="path2894" /><path
           d="m 229.89,275.71 9.02,0 0,9.02 -9.02,0 0,-9.02 z"
           style="fill:#048004;fill-opacity:1;fill-rule:evenodd;stroke:none"
           id="path2896" /><path
           d="m 236.29,178.5 9.02,0 0,9.02 -9.02,0 0,-9.02 z"
           style="fill:#048004;fill-opacity:1;fill-rule:evenodd;stroke:none"
           id="path2898" /><path
           d="m 242.69,232.24 9.02,0 0,9.02 -9.02,0 0,-9.02 z"
           style="fill:#048004;fill-opacity:1;fill-rule:evenodd;stroke:none"
           id="path2900" /><path
           d="m 249.09,217.18 9.02,0 0,9.02 -9.02,0 0,-9.02 z"
           style="fill:#048004;fill-opacity:1;fill-rule:evenodd;stroke:none"
           id="path2902" /><path
           d="m 255.49,200.41 9.02,0 0,9.02 -9.02,0 0,-9.02 z"
           style="fill:#048004;fill-opacity:1;fill-rule:evenodd;stroke:none"
           id="path2904" /><path
           d="m 261.89,255.86 9.02,0 0,9.01 -9.02,0 0,-9.01 z"
           style="fill:#048004;fill-opacity:1;fill-rule:evenodd;stroke:none"
           id="path2906" /><path
           d="m 268.29,272.29 9.02,0 0,9.01 -9.02,0 0,-9.01 z"
           style="fill:#048004;fill-opacity:1;fill-rule:evenodd;stroke:none"
           id="path2908" /><path
           d="m 274.69,267.15 9.02,0 0,9.02 -9.02,0 0,-9.02 z"
           style="fill:#048004;fill-opacity:1;fill-rule:evenodd;stroke:none"
           id="path2910" /><path
           d="m 281.09,239.77 9.02,0 0,9.02 -9.02,0 0,-9.02 z"
           style="fill:#048004;fill-opacity:1;fill-rule:evenodd;stroke:none"
           id="path2912" /><path
           d="m 287.49,223 9.02,0 0,9.02 -9.02,0 0,-9.02 z"
           style="fill:#048004;fill-opacity:1;fill-rule:evenodd;stroke:none"
           id="path2914" /><path
           d="m 293.89,236.69 9.02,0 0,9.02 -9.02,0 0,-9.02 z"
           style="fill:#048004;fill-opacity:1;fill-rule:evenodd;stroke:none"
           id="path2916" /><path
           d="m 300.29,272.63 9.02,0 0,9.02 -9.02,0 0,-9.02 z"
           style="fill:#048004;fill-opacity:1;fill-rule:evenodd;stroke:none"
           id="path2918" /><path
           d="m 306.69,309.25 9.02,0 0,9.02 -9.02,0 0,-9.02 z"
           style="fill:#048004;fill-opacity:1;fill-rule:evenodd;stroke:none"
           id="path2920" /><path
           d="m 313.09,215.13 9.02,0 0,9.01 -9.02,0 0,-9.01 z"
           style="fill:#048004;fill-opacity:1;fill-rule:evenodd;stroke:none"
           id="path2922" /><path
           d="m 319.49,143.25 9.02,0 0,9.01 -9.02,0 0,-9.01 z"
           style="fill:#048004;fill-opacity:1;fill-rule:evenodd;stroke:none"
           id="path2924" /><path
           d="m 325.89,236.69 9.02,0 0,9.02 -9.02,0 0,-9.02 z"
           style="fill:#048004;fill-opacity:1;fill-rule:evenodd;stroke:none"
           id="path2926" /><path
           d="m 332.29,195.96 9.02,0 0,9.02 -9.02,0 0,-9.02 z"
           style="fill:#048004;fill-opacity:1;fill-rule:evenodd;stroke:none"
           id="path2928" /><path
           d="m 338.69,154.54 9.02,0 0,9.02 -9.02,0 0,-9.02 z"
           style="fill:#048004;fill-opacity:1;fill-rule:evenodd;stroke:none"
           id="path2930" /><path
           d="m 345.09,159.33 9.02,0 0,9.02 -9.02,0 0,-9.02 z"
           style="fill:#048004;fill-opacity:1;fill-rule:evenodd;stroke:none"
           id="path2932" /><path
           d="m 351.49,134.01 9.02,0 0,9.01 -9.02,0 0,-9.01 z"
           style="fill:#048004;fill-opacity:1;fill-rule:evenodd;stroke:none"
           id="path2934" /><path
           d="m 357.89,82.66 9.02,0 0,9.02 -9.02,0 0,-9.02 z"
           style="fill:#048004;fill-opacity:1;fill-rule:evenodd;stroke:none"
           id="path2936" /><path
           d="m 364.29,158.31 9.02,0 0,9.01 -9.02,0 0,-9.01 z"
           style="fill:#048004;fill-opacity:1;fill-rule:evenodd;stroke:none"
           id="path2938" /><path
           d="m 370.69,147.7 9.02,0 0,9.01 -9.02,0 0,-9.01 z"
           style="fill:#048004;fill-opacity:1;fill-rule:evenodd;stroke:none"
           id="path2940" /><path
           d="m 377.09,174.39 9.02,0 0,9.02 -9.02,0 0,-9.02 z"
           style="fill:#048004;fill-opacity:1;fill-rule:evenodd;stroke:none"
           id="path2942" /><path
           d="m 383.49,126.82 9.02,0 0,9.02 -9.02,0 0,-9.02 z"
           style="fill:#048004;fill-opacity:1;fill-rule:evenodd;stroke:none"
           id="path2944" /><path
           d="m 389.89,144.96 9.02,0 0,9.02 -9.02,0 0,-9.02 z"
           style="fill:#048004;fill-opacity:1;fill-rule:evenodd;stroke:none"
           id="path2946" /><path
           d="m 396.29,209.31 9.02,0 0,9.01 -9.02,0 0,-9.01 z"
           style="fill:#048004;fill-opacity:1;fill-rule:evenodd;stroke:none"
           id="path2948" /><path
           d="m 402.69,110.05 9.02,0 0,9.01 -9.02,0 0,-9.01 z"
           style="fill:#048004;fill-opacity:1;fill-rule:evenodd;stroke:none"
           id="path2950" /><path
           d="m 409.09,89.85 9.02,0 0,9.02 -9.02,0 0,-9.02 z"
           style="fill:#048004;fill-opacity:1;fill-rule:evenodd;stroke:none"
           id="path2952" /><path
           d="m 415.49,229.16 9.02,0 0,9.02 -9.02,0 0,-9.02 z"
           style="fill:#048004;fill-opacity:1;fill-rule:evenodd;stroke:none"
           id="path2954" /><path
           d="m 421.89,114.84 9.02,0 0,9.02 -9.02,0 0,-9.02 z"
           style="fill:#048004;fill-opacity:1;fill-rule:evenodd;stroke:none"
           id="path2956" /><path
           d="m 428.29,119.63 9.02,0 0,9.02 -9.02,0 0,-9.02 z"
           style="fill:#048004;fill-opacity:1;fill-rule:evenodd;stroke:none"
           id="path2958" /><path
           d="m 434.69,231.9 9.02,0 0,9.01 -9.02,0 0,-9.01 z"
           style="fill:#048004;fill-opacity:1;fill-rule:evenodd;stroke:none"
           id="path2960" /><path
           d="m 441.09,169.6 9.02,0 0,9.02 -9.02,0 0,-9.02 z"
           style="fill:#048004;fill-opacity:1;fill-rule:evenodd;stroke:none"
           id="path2962" /><path
           d="m 447.49,123.74 9.02,0 0,9.01 -9.02,0 0,-9.01 z"
           style="fill:#048004;fill-opacity:1;fill-rule:evenodd;stroke:none"
           id="path2964" /><path
           d="m 453.89,117.58 9.02,0 0,9.01 -9.02,0 0,-9.01 z"
           style="fill:#048004;fill-opacity:1;fill-rule:evenodd;stroke:none"
           id="path2966" /></g></g><g
       id="g2968"><g
         id="g2970"
         clip-path="url(#clipPath2972)"><path
           d="m 74.4,73.44 384,0"
           style="fill:none;stroke:#000000;stroke-opacity:1;stroke-width:0.75;stroke-linecap:round;stroke-linejoin:round;stroke-miterlimit:10;stroke-dasharray:none"
           id="path2976" /><path
           d="m 74.4,73.44 0,-7.2"
           style="fill:none;stroke:#000000;stroke-opacity:1;stroke-width:0.75;stroke-linecap:round;stroke-linejoin:round;stroke-miterlimit:10;stroke-dasharray:none"
           id="path2978" /><path
           d="m 170.4,73.44 0,-7.2"
           style="fill:none;stroke:#000000;stroke-opacity:1;stroke-width:0.75;stroke-linecap:round;stroke-linejoin:round;stroke-miterlimit:10;stroke-dasharray:none"
           id="path2980" /><path
           d="m 266.4,73.44 0,-7.2"
           style="fill:none;stroke:#000000;stroke-opacity:1;stroke-width:0.75;stroke-linecap:round;stroke-linejoin:round;stroke-miterlimit:10;stroke-dasharray:none"
           id="path2982" /><path
           d="m 362.4,73.44 0,-7.2"
           style="fill:none;stroke:#000000;stroke-opacity:1;stroke-width:0.75;stroke-linecap:round;stroke-linejoin:round;stroke-miterlimit:10;stroke-dasharray:none"
           id="path2984" /><path
           d="m 458.4,73.44 0,-7.2"
           style="fill:none;stroke:#000000;stroke-opacity:1;stroke-width:0.75;stroke-linecap:round;stroke-linejoin:round;stroke-miterlimit:10;stroke-dasharray:none"
           id="path2986" /><text
           transform="matrix(1,0,0,-1,71.06,47.52)"
           id="text2988"><tspan
             style="fill:#000000;fill-opacity:1;fill-rule:nonzero;stroke:none;font-family:Helvetica;font-variant:normal;font-weight:normal;font-size:12;writing-mode:lr;-inkscape-font-specification:Helvetica"
             x="0"
             y="0"
             id="tspan2990">0</tspan></text>
<text
           transform="matrix(1,0,0,-1,167.06,47.52)"
           id="text2992"><tspan
             style="fill:#000000;fill-opacity:1;fill-rule:nonzero;stroke:none;font-family:Helvetica;font-variant:normal;font-weight:normal;font-size:12;writing-mode:lr;-inkscape-font-specification:Helvetica"
             x="0"
             y="0"
             id="tspan2994">5</tspan></text>
<text
           transform="matrix(1,0,0,-1,259.73,47.52)"
           id="text2996"><tspan
             style="fill:#000000;fill-opacity:1;fill-rule:nonzero;stroke:none;font-family:Helvetica;font-variant:normal;font-weight:normal;font-size:12;writing-mode:lr;-inkscape-font-specification:Helvetica"
             x="0 6.672"
             y="0"
             sodipodi:role="line"
             id="tspan2998">10</tspan></text>
<text
           transform="matrix(1,0,0,-1,355.73,47.52)"
           id="text3000"><tspan
             style="fill:#000000;fill-opacity:1;fill-rule:nonzero;stroke:none;font-family:Helvetica;font-variant:normal;font-weight:normal;font-size:12;writing-mode:lr;-inkscape-font-specification:Helvetica"
             x="0 6.672"
             y="0"
             sodipodi:role="line"
             id="tspan3002">15</tspan></text>
<text
           transform="matrix(1,0,0,-1,451.73,47.52)"
           id="text3004"><tspan
             style="fill:#000000;fill-opacity:1;fill-rule:nonzero;stroke:none;font-family:Helvetica;font-variant:normal;font-weight:normal;font-size:12;writing-mode:lr;-inkscape-font-specification:Helvetica"
             x="0 6.672"
             y="0"
             sodipodi:role="line"
             id="tspan3006">20</tspan></text>
<path
           d="m 59.04,116.27 0,273.82"
           style="fill:none;stroke:#000000;stroke-opacity:1;stroke-width:0.75;stroke-linecap:round;stroke-linejoin:round;stroke-miterlimit:10;stroke-dasharray:none"
           id="path3008" /><path
           d="m 59.04,116.27 -7.2,0"
           style="fill:none;stroke:#000000;stroke-opacity:1;stroke-width:0.75;stroke-linecap:round;stroke-linejoin:round;stroke-miterlimit:10;stroke-dasharray:none"
           id="path3010" /><path
           d="m 59.04,184.72 -7.2,0"
           style="fill:none;stroke:#000000;stroke-opacity:1;stroke-width:0.75;stroke-linecap:round;stroke-linejoin:round;stroke-miterlimit:10;stroke-dasharray:none"
           id="path3012" /><path
           d="m 59.04,253.18 -7.2,0"
           style="fill:none;stroke:#000000;stroke-opacity:1;stroke-width:0.75;stroke-linecap:round;stroke-linejoin:round;stroke-miterlimit:10;stroke-dasharray:none"
           id="path3014" /><path
           d="m 59.04,321.63 -7.2,0"
           style="fill:none;stroke:#000000;stroke-opacity:1;stroke-width:0.75;stroke-linecap:round;stroke-linejoin:round;stroke-miterlimit:10;stroke-dasharray:none"
           id="path3016" /><path
           d="m 59.04,390.09 -7.2,0"
           style="fill:none;stroke:#000000;stroke-opacity:1;stroke-width:0.75;stroke-linecap:round;stroke-linejoin:round;stroke-miterlimit:10;stroke-dasharray:none"
           id="path3018" /><text
           transform="matrix(0,1,1,0,41.76,109.59)"
           id="text3020"><tspan
             style="fill:#000000;fill-opacity:1;fill-rule:nonzero;stroke:none;font-family:Helvetica;font-variant:normal;font-weight:normal;font-size:12;writing-mode:lr;-inkscape-font-specification:Helvetica"
             x="0 6.672"
             y="0"
             sodipodi:role="line"
             id="tspan3022">94</tspan></text>
<text
           transform="matrix(0,1,1,0,41.76,178.05)"
           id="text3024"><tspan
             style="fill:#000000;fill-opacity:1;fill-rule:nonzero;stroke:none;font-family:Helvetica;font-variant:normal;font-weight:normal;font-size:12;writing-mode:lr;-inkscape-font-specification:Helvetica"
             x="0 6.672"
             y="0"
             sodipodi:role="line"
             id="tspan3026">96</tspan></text>
<text
           transform="matrix(0,1,1,0,41.76,246.51)"
           id="text3028"><tspan
             style="fill:#000000;fill-opacity:1;fill-rule:nonzero;stroke:none;font-family:Helvetica;font-variant:normal;font-weight:normal;font-size:12;writing-mode:lr;-inkscape-font-specification:Helvetica"
             x="0 6.672"
             y="0"
             sodipodi:role="line"
             id="tspan3030">98</tspan></text>
<text
           transform="matrix(0,1,1,0,41.76,311.63)"
           id="text3032"><tspan
             style="fill:#000000;fill-opacity:1;fill-rule:nonzero;stroke:none;font-family:Helvetica;font-variant:normal;font-weight:normal;font-size:12;writing-mode:lr;-inkscape-font-specification:Helvetica"
             x="0 6.672 13.344"
             y="0"
             sodipodi:role="line"
             id="tspan3034">100</tspan></text>
<text
           transform="matrix(0,1,1,0,41.76,380.08)"
           id="text3036"><tspan
             style="fill:#000000;fill-opacity:1;fill-rule:nonzero;stroke:none;font-family:Helvetica;font-variant:normal;font-weight:normal;font-size:12;writing-mode:lr;-inkscape-font-specification:Helvetica"
             x="0 6.672 13.344"
             y="0"
             sodipodi:role="line"
             id="tspan3038">102</tspan></text>
<path
           d="m 59.04,73.44 414.72,0 0,370.77 -414.72,0 0,-370.77"
           style="fill:none;stroke:#000000;stroke-opacity:1;stroke-width:0.75;stroke-linecap:round;stroke-linejoin:round;stroke-miterlimit:10;stroke-dasharray:none"
           id="path3040" /></g></g><g
       id="g3042"><g
         id="g3044"
         clip-path="url(#clipPath3046)"><text
           transform="matrix(1,0,0,-1,130.84,468.7)"
           id="text3050"><tspan
             style="fill:#000000;fill-opacity:1;fill-rule:nonzero;stroke:none;font-family:Helvetica;font-variant:normal;font-weight:bold;font-size:14;writing-mode:lr;-inkscape-font-specification:Helvetica-Bold"
             x="0 9.338 17.122 24.906 29.568 34.23 42.014 47.46 56.014 59.906 68.46 73.122 77.014 81.396 89.95 95.396 99.288 107.842 116.396 124.18 128.072 131.964 136.626 144.41 148.302 155.946 164.5 172.284 177.73 185.514 193.298 197.96 205.744 211.19 215.082 222.866 227.528 231.42 239.204 243.096 252.434 261.772"
             y="0"
             sodipodi:role="line"
             id="tspan3052">Scatterplot</tspan></text>
<text
           transform="matrix(1,0,0,-1,230.05,18.72)"
           id="text3054"><tspan
             style="fill:#000000;fill-opacity:1;fill-rule:nonzero;stroke:none;font-family:Helvetica;font-variant:normal;font-weight:normal;font-size:12;writing-mode:lr;-inkscape-font-specification:Helvetica"
             x="0 8.004 12 18.672 24.672 31.344 37.344 43.344 46.68 49.344 56.016 62.688 69.36"
             y="0"
             sodipodi:role="line"
             id="tspan3056">Process input</tspan></text>
<text
           transform="matrix(0,1,1,0,12.96,189.44)"
           id="text3058"><tspan
             style="fill:#000000;fill-opacity:1;fill-rule:nonzero;stroke:none;font-family:Helvetica;font-variant:normal;font-weight:normal;font-size:12;writing-mode:lr;-inkscape-font-specification:Helvetica"
             x="0 9.336 16.008 22.68 25.344 28.008 31.344 37.344 40.68 46.68 53.352 60.024 63.9 70.572 76.572 79.908 86.58 90.756 93.42 99.42 102.756 105.42 111.42 114.756 122.76 130.764"
             y="0"
             sodipodi:role="line"
             id="tspan3060">Quality characteristic</tspan></text>
</g></g></g></svg>
