<!-- Created with Inkscape (http://www.inkscape.org/) -->
<svg xmlns:dc="http://purl.org/dc/elements/1.1/" xmlns:cc="http://creativecommons.org/ns#" xmlns:rdf="http://www.w3.org/1999/02/22-rdf-syntax-ns#" xmlns:svg="http://www.w3.org/2000/svg" xmlns="http://www.w3.org/2000/svg" xmlns:sodipodi="http://sodipodi.sourceforge.net/DTD/sodipodi-0.dtd" xmlns:inkscape="http://www.inkscape.org/namespaces/inkscape" width="418.95328" height="277.39084" id="svg6471" version="1.1" inkscape:version="0.48.3.1 r9886" sodipodi:docname="rescal_factors.svg" preserveAspectRatio="xMinYMin meet" viewBox="0 0 418.95328 277.39084">
  <defs id="defs6473"/>
  <sodipodi:namedview id="base" pagecolor="#ffffff" bordercolor="#666666" borderopacity="1.0" inkscape:pageopacity="0.0" inkscape:pageshadow="2" inkscape:zoom="7.919596" inkscape:cx="123.8425" inkscape:cy="203.56832" inkscape:document-units="px" inkscape:current-layer="layer1" showgrid="true" inkscape:window-width="1364" inkscape:window-height="731" inkscape:window-x="0" inkscape:window-y="35" inkscape:window-maximized="1" fit-margin-top="0" fit-margin-left="0" fit-margin-right="0" fit-margin-bottom="0">
    <inkscape:grid type="axonomgrid" id="grid7480" units="mm" empspacing="5" visible="true" enabled="true" snapvisiblegridlinesonly="true" gridanglex="25" gridanglez="25" spacingy="0.5mm" originx="0.14500879mm" originy="3.1413235mm"/>
  </sodipodi:namedview>
  <metadata id="metadata6476">
    <rdf:RDF>
      <cc:Work rdf:about="">
        <dc:format>image/svg+xml</dc:format>
        <dc:type rdf:resource="http://purl.org/dc/dcmitype/StillImage"/>
        <dc:title/>
      </cc:Work>
    </rdf:RDF>
  </metadata>
  <g inkscape:label="Ebene 1" inkscape:groupmode="layer" id="layer1" transform="translate(-172.86675,-413.36317)">
    <g transform="translate(-176.15719,-714.66802)" style="fill:#ffffff;fill-opacity:1;stroke:#000000;stroke-linejoin:round;stroke-opacity:1" id="rescal_factor_A">
      <path sodipodi:nodetypes="ccccc" style="fill:#ffffff;fill-opacity:1;stroke:#000000;stroke-width:1px;stroke-linecap:butt;stroke-linejoin:round;stroke-opacity:1" d="m 349.53775,1137.4016 18.99662,-8.8583 87.38443,40.748 -18.99661,8.8583 z" id="path5369" inkscape:connector-curvature="0"/>
      <path sodipodi:nodetypes="ccccc" style="fill:#ffffff;fill-opacity:1;stroke:#000000;stroke-width:1px;stroke-linecap:butt;stroke-linejoin:round;stroke-opacity:1" d="m 436.92218,1178.1496 18.99661,-8.8583 0,212.5985 -18.99661,8.8583 z" id="path5371" inkscape:connector-curvature="0"/>
      <path style="fill:#ffffff;fill-opacity:1;stroke:#000000;stroke-width:1px;stroke-linecap:butt;stroke-linejoin:round;stroke-opacity:1" d="m 349.53775,1137.4016 87.38444,40.748 0,212.5984 L 349.53775,1350 z" id="path5373" inkscape:connector-curvature="0" sodipodi:nodetypes="ccccc"/>
    </g>
    <g style="fill:#ffffff;fill-opacity:1;stroke:#000000;stroke-linejoin:round;stroke-opacity:1;opacity:0;" id="rescal_e10" class="rescal_entity" transform="translate(-176.15718,-564.07742)">
      <path style="fill:#ffffff;fill-opacity:1;stroke:#000000;stroke-width:1px;stroke-linecap:butt;stroke-linejoin:round;stroke-opacity:1" d="m 349.53774,871.65354 87.38444,40.74803 0,17.71653 -87.38444,-40.74803 z" id="path5521" inkscape:connector-curvature="0" transform="translate(0,308.2677)"/>
      <path style="fill:#ffffff;fill-opacity:1;stroke:#000000;stroke-width:1px;stroke-linecap:butt;stroke-linejoin:round;stroke-opacity:1" d="m 349.53774,871.65354 18.99662,-8.85827 87.38443,40.74803 -18.99661,8.85827 z" id="path5523" inkscape:connector-curvature="0" transform="translate(0,308.2677)"/>
      <path style="fill:#ffffff;fill-opacity:1;stroke:#000000;stroke-width:1px;stroke-linecap:butt;stroke-linejoin:round;stroke-opacity:1" d="m 436.92218,912.40157 0,17.71653 18.99661,-8.85826 0,-17.71654 -18.99661,8.85827 z" id="path5525" inkscape:connector-curvature="0" transform="translate(0,308.2677)"/>
    </g>
    <g transform="translate(-176.15718,-585.33727)" id="rescal_e9" class="rescal_entity" style="fill:#ffffff;fill-opacity:1;stroke:#000000;stroke-linejoin:round;stroke-opacity:1;opacity:0;">
      <path transform="translate(0,308.2677)" inkscape:connector-curvature="0" id="path5513" d="m 349.53774,871.65354 87.38444,40.74803 0,17.71653 -87.38444,-40.74803 z" style="fill:#ffffff;fill-opacity:1;stroke:#000000;stroke-width:1px;stroke-linecap:butt;stroke-linejoin:round;stroke-opacity:1"/>
      <path transform="translate(0,308.2677)" inkscape:connector-curvature="0" id="path5515" d="m 349.53774,871.65354 18.99662,-8.85827 87.38443,40.74803 -18.99661,8.85827 z" style="fill:#ffffff;fill-opacity:1;stroke:#000000;stroke-width:1px;stroke-linecap:butt;stroke-linejoin:round;stroke-opacity:1"/>
      <path transform="translate(0,308.2677)" inkscape:connector-curvature="0" id="path5517" d="m 436.92218,912.40157 0,17.71653 18.99661,-8.85826 0,-17.71654 -18.99661,8.85827 z" style="fill:#ffffff;fill-opacity:1;stroke:#000000;stroke-width:1px;stroke-linecap:butt;stroke-linejoin:round;stroke-opacity:1"/>
    </g>
    <g style="fill:#ffffff;fill-opacity:1;stroke:#000000;stroke-linejoin:round;stroke-opacity:1;opacity:0;" id="rescal_e8" class="rescal_entity" transform="translate(-176.15718,-606.59711)">
      <path style="fill:#ffffff;fill-opacity:1;stroke:#000000;stroke-width:1px;stroke-linecap:butt;stroke-linejoin:round;stroke-opacity:1" d="m 349.53774,871.65354 87.38444,40.74803 0,17.71653 -87.38444,-40.74803 z" id="path5505" inkscape:connector-curvature="0" transform="translate(0,308.2677)"/>
      <path style="fill:#ffffff;fill-opacity:1;stroke:#000000;stroke-width:1px;stroke-linecap:butt;stroke-linejoin:round;stroke-opacity:1" d="m 349.53774,871.65354 18.99662,-8.85827 87.38443,40.74803 -18.99661,8.85827 z" id="path5507" inkscape:connector-curvature="0" transform="translate(0,308.2677)"/>
      <path style="fill:#ffffff;fill-opacity:1;stroke:#000000;stroke-width:1px;stroke-linecap:butt;stroke-linejoin:round;stroke-opacity:1" d="m 436.92218,912.40157 0,17.71653 18.99661,-8.85826 0,-17.71654 -18.99661,8.85827 z" id="path5509" inkscape:connector-curvature="0" transform="translate(0,308.2677)"/>
    </g>
    <g transform="translate(-176.15718,-627.85695)" id="rescal_e7" class="rescal_entity" style="fill:#ffffff;fill-opacity:1;stroke:#000000;stroke-linejoin:round;stroke-opacity:1;opacity:0">
      <path transform="translate(0,308.2677)" inkscape:connector-curvature="0" id="path5497" d="m 349.53774,871.65354 87.38444,40.74803 0,17.71653 -87.38444,-40.74803 z" style="fill:#ffffff;fill-opacity:1;stroke:#000000;stroke-width:1px;stroke-linecap:butt;stroke-linejoin:round;stroke-opacity:1"/>
      <path transform="translate(0,308.2677)" inkscape:connector-curvature="0" id="path5499" d="m 349.53774,871.65354 18.99662,-8.85827 87.38443,40.74803 -18.99661,8.85827 z" style="fill:#ffffff;fill-opacity:1;stroke:#000000;stroke-width:1px;stroke-linecap:butt;stroke-linejoin:round;stroke-opacity:1"/>
      <path transform="translate(0,308.2677)" inkscape:connector-curvature="0" id="path5501" d="m 436.92218,912.40157 0,17.71653 18.99661,-8.85826 0,-17.71654 -18.99661,8.85827 z" style="fill:#ffffff;fill-opacity:1;stroke:#000000;stroke-width:1px;stroke-linecap:butt;stroke-linejoin:round;stroke-opacity:1"/>
    </g>
    <g style="fill:#ffffff;fill-opacity:1;stroke:#000000;stroke-linejoin:round;stroke-opacity:1;opacity:0" id="rescal_e6" class="rescal_entity" transform="translate(-176.15718,-649.11679)">
      <path style="fill:#ffffff;fill-opacity:1;stroke:#000000;stroke-width:1px;stroke-linecap:butt;stroke-linejoin:round;stroke-opacity:1" d="m 349.53774,871.65354 87.38444,40.74803 0,17.71653 -87.38444,-40.74803 z" id="path5489" inkscape:connector-curvature="0" transform="translate(0,308.2677)"/>
      <path style="fill:#ffffff;fill-opacity:1;stroke:#000000;stroke-width:1px;stroke-linecap:butt;stroke-linejoin:round;stroke-opacity:1" d="m 349.53774,871.65354 18.99662,-8.85827 87.38443,40.74803 -18.99661,8.85827 z" id="path5491" inkscape:connector-curvature="0" transform="translate(0,308.2677)"/>
      <path style="fill:#ffffff;fill-opacity:1;stroke:#000000;stroke-width:1px;stroke-linecap:butt;stroke-linejoin:round;stroke-opacity:1" d="m 436.92218,912.40157 0,17.71653 18.99661,-8.85826 0,-17.71654 -18.99661,8.85827 z" id="path5493" inkscape:connector-curvature="0" transform="translate(0,308.2677)"/>
    </g>
    <g transform="translate(-176.15718,-670.37664)" id="rescal_e5" class="rescal_entity" style="fill:#ffffff;fill-opacity:1;stroke:#000000;stroke-linejoin:round;stroke-opacity:1;opacity:0">
      <path transform="translate(0,308.2677)" inkscape:connector-curvature="0" id="path5481" d="m 349.53774,871.65354 87.38444,40.74803 0,17.71653 -87.38444,-40.74803 z" style="fill:#ffffff;fill-opacity:1;stroke:#000000;stroke-width:1px;stroke-linecap:butt;stroke-linejoin:round;stroke-opacity:1"/>
      <path transform="translate(0,308.2677)" inkscape:connector-curvature="0" id="path5483" d="m 349.53774,871.65354 18.99662,-8.85827 87.38443,40.74803 -18.99661,8.85827 z" style="fill:#ffffff;fill-opacity:1;stroke:#000000;stroke-width:1px;stroke-linecap:butt;stroke-linejoin:round;stroke-opacity:1"/>
      <path transform="translate(0,308.2677)" inkscape:connector-curvature="0" id="path5485" d="m 436.92218,912.40157 0,17.71653 18.99661,-8.85826 0,-17.71654 -18.99661,8.85827 z" style="fill:#ffffff;fill-opacity:1;stroke:#000000;stroke-width:1px;stroke-linecap:butt;stroke-linejoin:round;stroke-opacity:1"/>
    </g>
    <g style="fill:#ffffff;fill-opacity:1;stroke:#000000;stroke-linejoin:round;stroke-opacity:1;opacity:0" id="rescal_e4" class="rescal_entity" transform="translate(-176.15718,-691.63648)">
      <path style="fill:#ffffff;fill-opacity:1;stroke:#000000;stroke-width:1px;stroke-linecap:butt;stroke-linejoin:round;stroke-opacity:1" d="m 349.53774,871.65354 87.38444,40.74803 0,17.71653 -87.38444,-40.74803 z" id="path5473" inkscape:connector-curvature="0" transform="translate(0,308.2677)"/>
      <path style="fill:#ffffff;fill-opacity:1;stroke:#000000;stroke-width:1px;stroke-linecap:butt;stroke-linejoin:round;stroke-opacity:1" d="m 349.53774,871.65354 18.99662,-8.85827 87.38443,40.74803 -18.99661,8.85827 z" id="path5475" inkscape:connector-curvature="0" transform="translate(0,308.2677)"/>
      <path style="fill:#ffffff;fill-opacity:1;stroke:#000000;stroke-width:1px;stroke-linecap:butt;stroke-linejoin:round;stroke-opacity:1" d="m 436.92218,912.40157 0,17.71653 18.99661,-8.85826 0,-17.71654 -18.99661,8.85827 z" id="path5477" inkscape:connector-curvature="0" transform="translate(0,308.2677)"/>
    </g>
    <g id="rescal_Ai" class="rescal_entity" style="fill:#ffffff;fill-opacity:1;stroke:#000000;stroke-linejoin:round;stroke-opacity:1;opacity:0" transform="translate(-176.15718,-712.89632)">
      <path transform="translate(0,308.2677)" inkscape:connector-curvature="0" id="path11152" d="m 349.53774,871.65354 87.38444,40.74803 0,17.71653 -87.38444,-40.74803 z" style="fill:#ffffff;fill-opacity:1;stroke:#000000;stroke-width:1px;stroke-linecap:butt;stroke-linejoin:round;stroke-opacity:1"/>
      <path transform="translate(0,308.2677)" inkscape:connector-curvature="0" id="path11154" d="m 349.53774,871.65354 18.99662,-8.85827 87.38443,40.74803 -18.99661,8.85827 z" style="fill:#ffffff;fill-opacity:1;stroke:#000000;stroke-width:1px;stroke-linecap:butt;stroke-linejoin:round;stroke-opacity:1"/>
      <path transform="translate(0,308.2677)" inkscape:connector-curvature="0" id="path11156" d="m 436.92218,912.40157 0,17.71653 18.99661,-8.85826 0,-17.71654 -18.99661,8.85827 z" style="fill:#ffffff;fill-opacity:1;stroke:#000000;stroke-width:1px;stroke-linecap:butt;stroke-linejoin:round;stroke-opacity:1"/>
    </g>
    <g id="rescal_lf_1" class="rescal_lf" style="fill:#ffffff;fill-opacity:1;stroke:#000000;stroke-linejoin:round;stroke-opacity:1;opacity:0" transform="translate(21.40763,25.8832)">
      <path inkscape:connector-curvature="0" id="path5392" d="m 151.97293,396.85037 0,212.59843 18.99662,8.85826 0,-212.59842 z" style="fill:#ffffff;fill-opacity:1;stroke:#000000;stroke-width:1px;stroke-linecap:butt;stroke-linejoin:round;stroke-opacity:1"/>
      <path inkscape:connector-curvature="0" id="path5395" d="m 151.97293,396.85037 18.99662,-8.85827 18.99661,8.85827 -18.99661,8.85827 z" style="fill:#ffffff;fill-opacity:1;stroke:#000000;stroke-width:1px;stroke-linecap:butt;stroke-linejoin:round;stroke-opacity:1"/>
      <path inkscape:connector-curvature="0" id="path5397" d="m 170.96955,618.30706 18.99661,-8.85826 0,-212.59843 -18.99661,8.85827 z" style="fill:#ffffff;fill-opacity:1;stroke:#000000;stroke-width:1px;stroke-linecap:butt;stroke-linejoin:round;stroke-opacity:1"/>
    </g>
    <g transform="translate(44.203566,36.513129)" style="fill:#ffffff;fill-opacity:1;stroke:#000000;stroke-linejoin:round;stroke-opacity:1;opacity:0" class="rescal_lf" id="rescal_lf_2">
      <path style="fill:#ffffff;fill-opacity:1;stroke:#000000;stroke-width:1px;stroke-linecap:butt;stroke-linejoin:round;stroke-opacity:1" d="m 151.97293,396.85037 0,212.59843 18.99662,8.85826 0,-212.59842 z" id="path5401" inkscape:connector-curvature="0"/>
      <path style="fill:#ffffff;fill-opacity:1;stroke:#000000;stroke-width:1px;stroke-linecap:butt;stroke-linejoin:round;stroke-opacity:1" d="m 151.97293,396.85037 18.99662,-8.85827 18.99661,8.85827 -18.99661,8.85827 z" id="path5403" inkscape:connector-curvature="0"/>
      <path style="fill:#ffffff;fill-opacity:1;stroke:#000000;stroke-width:1px;stroke-linecap:butt;stroke-linejoin:round;stroke-opacity:1" d="m 170.96955,618.30706 18.99661,-8.85826 0,-212.59843 -18.99661,8.85827 z" id="path5405" inkscape:connector-curvature="0"/>
    </g>
    <g id="rescal_lf_3" class="rescal_lf" style="fill:#ffffff;fill-opacity:1;stroke:#000000;stroke-linejoin:round;stroke-opacity:1;opacity:0" transform="translate(66.999506,47.14305)">
      <path inkscape:connector-curvature="0" id="path5409" d="m 151.97293,396.85037 0,212.59843 18.99662,8.85826 0,-212.59842 z" style="fill:#ffffff;fill-opacity:1;stroke:#000000;stroke-width:1px;stroke-linecap:butt;stroke-linejoin:round;stroke-opacity:1"/>
      <path inkscape:connector-curvature="0" id="path5411" d="m 151.97293,396.85037 18.99662,-8.85827 18.99661,8.85827 -18.99661,8.85827 z" style="fill:#ffffff;fill-opacity:1;stroke:#000000;stroke-width:1px;stroke-linecap:butt;stroke-linejoin:round;stroke-opacity:1"/>
      <path inkscape:connector-curvature="0" id="path5413" d="m 170.96955,618.30706 18.99661,-8.85826 0,-212.59843 -18.99661,8.85827 z" style="fill:#ffffff;fill-opacity:1;stroke:#000000;stroke-width:1px;stroke-linecap:butt;stroke-linejoin:round;stroke-opacity:1"/>
    </g>
    <g transform="translate(89.795449,57.772964)" style="fill:#ffffff;fill-opacity:1;stroke:#000000;stroke-linejoin:round;stroke-opacity:1;opacity:0" class="rescal_lf" id="rescal_lf_4">
      <path style="fill:#ffffff;fill-opacity:1;stroke:#000000;stroke-width:1px;stroke-linecap:butt;stroke-linejoin:round;stroke-opacity:1" d="m 151.97293,396.85037 0,212.59843 18.99662,8.85826 0,-212.59842 z" id="path5417" inkscape:connector-curvature="0"/>
      <path style="fill:#ffffff;fill-opacity:1;stroke:#000000;stroke-width:1px;stroke-linecap:butt;stroke-linejoin:round;stroke-opacity:1" d="m 151.97293,396.85037 18.99662,-8.85827 18.99661,8.85827 -18.99661,8.85827 z" id="path5419" inkscape:connector-curvature="0"/>
      <path style="fill:#ffffff;fill-opacity:1;stroke:#000000;stroke-width:1px;stroke-linecap:butt;stroke-linejoin:round;stroke-opacity:1" d="m 170.96955,618.30706 18.99661,-8.85826 0,-212.59843 -18.99661,8.85827 z" id="path5421" inkscape:connector-curvature="0"/>
    </g>
    <g style="fill:#ffffff;fill-opacity:1;stroke:#000000;stroke-linejoin:round;stroke-opacity:1;opacity:0" id="rescal_e2" class="rescal_entity" transform="translate(-176.15718,-734.15616)">
      <path style="fill:#ffffff;fill-opacity:1;stroke:#000000;stroke-width:1px;stroke-linecap:butt;stroke-linejoin:round;stroke-opacity:1" d="m 349.53774,871.65354 87.38444,40.74803 0,17.71653 -87.38444,-40.74803 z" id="path5457" inkscape:connector-curvature="0" transform="translate(0,308.2677)"/>
      <path style="fill:#ffffff;fill-opacity:1;stroke:#000000;stroke-width:1px;stroke-linecap:butt;stroke-linejoin:round;stroke-opacity:1" d="m 349.53774,871.65354 18.99662,-8.85827 87.38443,40.74803 -18.99661,8.85827 z" id="path5459" inkscape:connector-curvature="0" transform="translate(0,308.2677)"/>
      <path style="fill:#ffffff;fill-opacity:1;stroke:#000000;stroke-width:1px;stroke-linecap:butt;stroke-linejoin:round;stroke-opacity:1" d="m 436.92218,912.40157 0,17.71653 18.99661,-8.85826 0,-17.71654 -18.99661,8.85827 z" id="path5461" inkscape:connector-curvature="0" transform="translate(0,308.2677)"/>
    </g>
    <g id="rescal_factor_R" style="fill:#ffffff;fill-opacity:1;stroke:#000000;stroke-linejoin:round;stroke-opacity:1" transform="translate(21.407614,-335.53412)">
      <path sodipodi:nodetypes="ccccc" inkscape:connector-curvature="0" id="path6260" d="m 227.95939,836.22045 10e-6,81.49607 87.38444,40.74803 0,-81.49607 z" style="fill:#ffffff;fill-opacity:1;stroke:#000000;stroke-width:1px;stroke-linecap:butt;stroke-linejoin:round;stroke-opacity:1"/>
      <path sodipodi:nodetypes="ccccc" inkscape:connector-curvature="0" id="path6262" d="m 227.9594,836.22045 110.18038,-51.37795 87.38444,40.74803 -41.79256,83.26772 z" style="fill:#ffffff;fill-opacity:1;stroke:#000000;stroke-width:1px;stroke-linecap:butt;stroke-linejoin:round;stroke-opacity:1"/>
      <path sodipodi:nodetypes="ccccc" transform="translate(0,308.2677)" inkscape:connector-curvature="0" id="path6264" d="m 315.34384,650.19685 110.18038,-51.37796 0,-81.49606 -110.18038,51.37795 z" style="fill:#ffffff;fill-opacity:1;stroke:#000000;stroke-width:1px;stroke-linecap:butt;stroke-linejoin:round;stroke-opacity:1"/>
    </g>
    <g transform="translate(-176.15718,-755.41601)" id="rescal_e1" class="rescal_entity" style="fill:#ffffff;fill-opacity:1;stroke:#000000;stroke-linejoin:round;stroke-opacity:1;opacity:0">
      <path transform="translate(0,308.2677)" inkscape:connector-curvature="0" id="path5465" d="m 349.53774,871.65354 87.38444,40.74803 0,17.71653 -87.38444,-40.74803 z" style="fill:#ffffff;fill-opacity:1;stroke:#000000;stroke-width:1px;stroke-linecap:butt;stroke-linejoin:round;stroke-opacity:1"/>
      <path transform="translate(0,308.2677)" inkscape:connector-curvature="0" id="path5467" d="m 349.53774,871.65354 18.99662,-8.85827 87.38443,40.74803 -18.99661,8.85827 z" style="fill:#ffffff;fill-opacity:1;stroke:#000000;stroke-width:1px;stroke-linecap:butt;stroke-linejoin:round;stroke-opacity:1"/>
      <path transform="translate(0,308.2677)" inkscape:connector-curvature="0" id="path5469" d="m 436.92218,912.40157 0,17.71653 18.99661,-8.85826 0,-17.71654 -18.99661,8.85827 z" style="fill:#ffffff;fill-opacity:1;stroke:#000000;stroke-width:1px;stroke-linecap:butt;stroke-linejoin:round;stroke-opacity:1"/>
    </g>
    <g id="rescal_R5" class="rescal_predicate" style="fill:#ffffff;fill-opacity:1;stroke:#000000;stroke-linejoin:round;stroke-opacity:1;opacity:0" inkscape:label="#rescal_R5" transform="translate(-134.36463,-734.15616)">
      <path transform="translate(0,308.2677)" inkscape:connector-curvature="0" id="path5449" d="m 474.91541,884.05511 0,81.49607 87.38444,40.74802 0,-81.49606 z" style="fill:#ffffff;fill-opacity:1;stroke:#000000;stroke-width:1px;stroke-linecap:butt;stroke-linejoin:round;stroke-opacity:1"/>
      <path transform="translate(0,308.2677)" inkscape:connector-curvature="0" id="path5451" d="m 474.91541,884.05511 18.99662,-8.85827 87.38443,40.74804 -18.99661,8.85826 z" style="fill:#ffffff;fill-opacity:1;stroke:#000000;stroke-width:1px;stroke-linecap:butt;stroke-linejoin:round;stroke-opacity:1"/>
      <path transform="translate(0,308.2677)" inkscape:connector-curvature="0" id="path5453" d="m 562.29985,924.80314 18.99661,-8.85826 0,81.49606 -18.99661,8.85826 z" style="fill:#ffffff;fill-opacity:1;stroke:#000000;stroke-width:1px;stroke-linecap:butt;stroke-linejoin:round;stroke-opacity:1"/>
    </g>
    <g transform="translate(-157.16057,-723.52624)" inkscape:label="#rescal_R4" class="rescal_predicate" style="fill:#ffffff;fill-opacity:1;stroke:#000000;stroke-linejoin:round;stroke-opacity:1;opacity:0" id="rescal_R4">
      <path style="fill:#ffffff;fill-opacity:1;stroke:#000000;stroke-width:1px;stroke-linecap:butt;stroke-linejoin:round;stroke-opacity:1" d="m 474.91541,884.05511 0,81.49607 87.38444,40.74802 0,-81.49606 z" id="path5441" inkscape:connector-curvature="0" transform="translate(0,308.2677)"/>
      <path style="fill:#ffffff;fill-opacity:1;stroke:#000000;stroke-width:1px;stroke-linecap:butt;stroke-linejoin:round;stroke-opacity:1" d="m 474.91541,884.05511 18.99662,-8.85827 87.38443,40.74804 -18.99661,8.85826 z" id="path5443" inkscape:connector-curvature="0" transform="translate(0,308.2677)"/>
      <path style="fill:#ffffff;fill-opacity:1;stroke:#000000;stroke-width:1px;stroke-linecap:butt;stroke-linejoin:round;stroke-opacity:1" d="m 562.29985,924.80314 18.99661,-8.85826 0,81.49606 -18.99661,8.85826 z" id="path5445" inkscape:connector-curvature="0" transform="translate(0,308.2677)"/>
    </g>
    <g transform="translate(-77.374786,-587.10892)" style="fill:#ffffff;fill-opacity:1;stroke:#000000;stroke-linejoin:round;stroke-opacity:1" id="rescal_factor_At">
      <path sodipodi:nodetypes="ccccc" style="fill:#ffffff;fill-opacity:1;stroke:#000000;stroke-width:1px;stroke-linecap:butt;stroke-linejoin:round;stroke-opacity:1" d="m 493.91203,1123.2283 18.99662,-8.8582 155.77225,72.6378 -18.99662,8.8582 z" id="path6240" inkscape:connector-curvature="0"/>
      <path sodipodi:nodetypes="ccccc" style="fill:#ffffff;fill-opacity:1;stroke:#000000;stroke-width:1px;stroke-linecap:butt;stroke-linejoin:round;stroke-opacity:1" d="m 649.68429,1195.8661 18.99661,-8.8582 0,81.496 -18.99661,8.8583 z" id="path6242" inkscape:connector-curvature="0"/>
      <path style="fill:#ffffff;fill-opacity:1;stroke:#000000;stroke-width:1px;stroke-linecap:butt;stroke-linejoin:round;stroke-opacity:1" d="m 493.91203,1123.2283 155.77225,72.6378 1e-5,81.4961 -155.77226,-72.6378 z" id="path6244" inkscape:connector-curvature="0" sodipodi:nodetypes="ccccc"/>
    </g>
    <g id="g7369" style="fill:#ffffff;fill-opacity:1;stroke:#000000;stroke-linejoin:round;stroke-opacity:1;opacity:0" transform="translate(90.309248,46.642281)">
      <path inkscape:connector-curvature="0" id="path7371" d="m 151.97293,396.85037 0,212.59843 18.99662,8.85826 0,-212.59842 z" style="fill:#ffffff;fill-opacity:1;stroke:#000000;stroke-width:1px;stroke-linecap:butt;stroke-linejoin:round;stroke-opacity:1"/>
      <path inkscape:connector-curvature="0" id="path7373" d="m 151.97293,396.85037 18.99662,-8.85827 18.99661,8.85827 -18.99661,8.85827 z" style="fill:#ffffff;fill-opacity:1;stroke:#000000;stroke-width:1px;stroke-linecap:butt;stroke-linejoin:round;stroke-opacity:1"/>
      <path inkscape:connector-curvature="0" id="path7375" d="m 170.96955,618.30706 18.99661,-8.85826 0,-212.59843 -18.99661,8.85827 z" style="fill:#ffffff;fill-opacity:1;stroke:#000000;stroke-width:1px;stroke-linecap:butt;stroke-linejoin:round;stroke-opacity:1"/>
    </g>
    <path style="fill:none;stroke:#000000;stroke-width:1px;stroke-linecap:butt;stroke-linejoin:miter;stroke-opacity:1" d="m 87.384436,61.249103 0,31.889767" id="path7484" inkscape:connector-curvature="0" transform="translate(173.38056,402.2325)" sodipodi:nodetypes="cc"/>
    <g id="rescal_Rk" class="rescal_predicate" style="fill:#ffffff;fill-opacity:1;stroke:#000000;stroke-linejoin:round;stroke-opacity:1;opacity:0" inkscape:label="#rescal_Rk" transform="translate(-179.95651,-712.89632)">
      <path transform="translate(0,308.2677)" inkscape:connector-curvature="0" id="path11174" d="m 474.91541,884.05511 0,81.49607 87.38444,40.74802 0,-81.49606 z" style="fill:#ffffff;fill-opacity:1;stroke:#000000;stroke-width:1px;stroke-linecap:butt;stroke-linejoin:round;stroke-opacity:1"/>
      <path transform="translate(0,308.2677)" inkscape:connector-curvature="0" id="path11176" d="m 474.91541,884.05511 18.99662,-8.85827 87.38443,40.74804 -18.99661,8.85826 z" style="fill:#ffffff;fill-opacity:1;stroke:#000000;stroke-width:1px;stroke-linecap:butt;stroke-linejoin:round;stroke-opacity:1"/>
      <path transform="translate(0,308.2677)" inkscape:connector-curvature="0" id="path11178" d="m 562.29985,924.80314 18.99661,-8.85826 0,81.49606 -18.99661,8.85826 z" style="fill:#ffffff;fill-opacity:1;stroke:#000000;stroke-width:1px;stroke-linecap:butt;stroke-linejoin:round;stroke-opacity:1"/>
    </g>
    <g transform="translate(-202.75245,-702.2664)" inkscape:label="#rescal_R2" class="rescal_predicate" style="fill:#ffffff;fill-opacity:1;stroke:#000000;stroke-linejoin:round;stroke-opacity:1;opacity:0" id="rescal_R2">
      <path style="fill:#ffffff;fill-opacity:1;stroke:#000000;stroke-width:1px;stroke-linecap:butt;stroke-linejoin:round;stroke-opacity:1" d="m 474.91541,884.05511 0,81.49607 87.38444,40.74802 0,-81.49606 z" id="path5425" inkscape:connector-curvature="0" transform="translate(0,308.2677)"/>
      <path style="fill:#ffffff;fill-opacity:1;stroke:#000000;stroke-width:1px;stroke-linecap:butt;stroke-linejoin:round;stroke-opacity:1" d="m 474.91541,884.05511 18.99662,-8.85827 87.38443,40.74804 -18.99661,8.85826 z" id="path5427" inkscape:connector-curvature="0" transform="translate(0,308.2677)"/>
      <path style="fill:#ffffff;fill-opacity:1;stroke:#000000;stroke-width:1px;stroke-linecap:butt;stroke-linejoin:round;stroke-opacity:1" d="m 562.29985,924.80314 18.99661,-8.85826 0,81.49606 -18.99661,8.85826 z" id="path5429" inkscape:connector-curvature="0" transform="translate(0,308.2677)"/>
    </g>
    <path style="fill:none;stroke:#000000;stroke-width:1px;stroke-linecap:butt;stroke-linejoin:miter;stroke-opacity:1" d="M 336.75145,541.43434 446.93183,490.05639" id="path11187" inkscape:connector-curvature="0"/>
    <g id="rescal_Aj" style="stroke:#000000;stroke-linejoin:round;stroke-opacity:1;opacity:0" transform="translate(-172.35786,-709.35302)">
      <path transform="translate(0,308.2677)" inkscape:connector-curvature="0" id="path11163" d="m 611.69105,947.83464 0,81.49606 18.99662,8.8583 0,-81.49609 z" style="fill:none;stroke:#000000;stroke-width:1px;stroke-linecap:butt;stroke-linejoin:round;stroke-opacity:1"/>
      <path transform="translate(0,308.2677)" inkscape:connector-curvature="0" id="path11165" d="m 611.69105,947.83464 18.99662,-8.85827 18.99661,8.85827 -18.99661,8.85827 z" style="fill:none;stroke:#000000;stroke-width:1px;stroke-linecap:butt;stroke-linejoin:round;stroke-opacity:1"/>
      <path transform="translate(0,308.2677)" inkscape:connector-curvature="0" id="path11167" d="m 630.68767,956.69291 0,81.49609 18.99661,-8.8583 0,-81.49606 z" style="fill:none;stroke:#000000;stroke-width:1px;stroke-linecap:butt;stroke-linejoin:round;stroke-opacity:1"/>
    </g>
    <path style="fill:none;stroke:#000000;stroke-width:1px;stroke-linecap:butt;stroke-linejoin:miter;stroke-opacity:1" d="m 249.36702,500.68631 87.38443,40.74803 0,81.49606" id="path11185" inkscape:connector-curvature="0"/>
    <g id="rescal_R1" class="rescal_predicate" style="fill:#ffffff;fill-opacity:1;stroke:#000000;stroke-linejoin:round;stroke-opacity:1;opacity:0" inkscape:label="#rescal_R1" transform="translate(-225.54839,-691.63648)">
      <path transform="translate(0,308.2677)" inkscape:connector-curvature="0" id="path5433" d="m 474.91541,884.05511 0,81.49607 87.38444,40.74802 0,-81.49606 z" style="fill:#ffffff;fill-opacity:1;stroke:#000000;stroke-width:1px;stroke-linecap:butt;stroke-linejoin:round;stroke-opacity:1"/>
      <path transform="translate(0,308.2677)" inkscape:connector-curvature="0" id="path5435" d="m 474.91541,884.05511 18.99662,-8.85827 87.38443,40.74804 -18.99661,8.85826 z" style="fill:#ffffff;fill-opacity:1;stroke:#000000;stroke-width:1px;stroke-linecap:butt;stroke-linejoin:round;stroke-opacity:1"/>
      <path transform="translate(0,308.2677)" inkscape:connector-curvature="0" id="path5437" d="m 562.29985,924.80314 18.99661,-8.85826 0,81.49606 -18.99661,8.85826 z" style="fill:#ffffff;fill-opacity:1;stroke:#000000;stroke-width:1px;stroke-linecap:butt;stroke-linejoin:round;stroke-opacity:1"/>
    </g>
    <path style="fill:none;stroke:#000000;stroke-width:1px;stroke-linecap:butt;stroke-linejoin:miter;stroke-opacity:1" d="m 243.15669,133.8869 155.77225,72.6378" id="path7486" inkscape:connector-curvature="0" transform="translate(173.38056,402.2325)"/>
  </g>
</svg>