<?xml version="1.0" encoding="UTF-8" standalone="no"?>
<!-- Created with Inkscape (http://www.inkscape.org/) -->
<svg xmlns:dc="http://purl.org/dc/elements/1.1/" xmlns:cc="http://creativecommons.org/ns#" xmlns:rdf="http://www.w3.org/1999/02/22-rdf-syntax-ns#" xmlns:svg="http://www.w3.org/2000/svg" xmlns="http://www.w3.org/2000/svg" xmlns:sodipodi="http://sodipodi.sourceforge.net/DTD/sodipodi-0.dtd" xmlns:inkscape="http://www.inkscape.org/namespaces/inkscape" sodipodi:docname="collective-new.svg" inkscape:version="0.48.3.1 r9886" version="1.1" id="svg2" preserveAspectRatio="xMinYMin meet" viewBox="0 0 411.95251 204.68703" width="100%" height="100%">
  <sodipodi:namedview id="base" pagecolor="#000" bordercolor="#666666" borderopacity="1.0" inkscape:pageopacity="0.0" inkscape:pageshadow="2" inkscape:zoom="2.8" inkscape:cx="216.00801" inkscape:cy="65.20574" inkscape:document-units="px" inkscape:current-layer="svg2" showgrid="true" inkscape:window-width="1364" inkscape:window-height="750" inkscape:window-x="0" inkscape:window-y="16" inkscape:window-maximized="1" fit-margin-top="0" fit-margin-left="0" fit-margin-right="0" fit-margin-bottom="0">
    <inkscape:grid originy="-379.51298px" originx="-252.24748px" id="grid2985" type="xygrid" snapvisiblegridlinesonly="true" enabled="true" visible="true" empspacing="5"/>
  </sodipodi:namedview>
  <style type="text/css" id="lv-style">
	 path {stroke-width: 2px; stroke: #fff; }
	 .circle {fill: #555; filter:url(#dropshadow);}
	 .observed {fill: #333;}
	 .label {fill: #fff; stroke-width: 0px;}
	 .arrowhead {fill: #fff; stroke: #fff; overflow: visible;}
	 .attr {fill: none; stroke:#fff;stroke-width:2px;stroke-linecap:butt;stroke-linejoin:miter;}
	 .attr_group {filter:url(#dropshadow);}
	 .attr1 {fill: gold;}
	 .attr2 {fill: orangered;}
	 .attr3 {fill: deepskyblue;}
	 .attr4 {fill: turquoise;}
     .link {stroke:#fff ;stroke-width:2px; marker-end:url(#Arrow2Mend); filter:url(#dropshadow);}
  </style>
  <defs id="defs4">
    <marker id="Arrow2Mend" class="arrowhead" refX="0" refY="0" orient="auto" inkscape:stockid="Arrow2Mend" style="fill:#ffffff;stroke:#ffffff;overflow:visible">
      <path inkscape:connector-curvature="0" transform="scale(-0.6,-0.6)" d="M 8.7185878,4.0337352 -2.2072895,0.01601326 8.7185884,-4.0017078 c -1.7454984,2.3720609 -1.7354408,5.6174519 -6e-7,8.035443 z" style="fill-rule:evenodd;stroke:#ffffff;stroke-width:0.625;stroke-linejoin:round" id="path3895"/>
    </marker>
    <filter id="dropshadow" color-interpolation-filters="sRGB">
      <feGaussianBlur in="SourceAlpha" stdDeviation="3" id="feGaussianBlur3140"/>
      <!-- stdDeviation is how much to blur -->
      <feOffset dx="-2" dy="2" result="offsetblur" id="feOffset3142"/>
      <!-- how much to offset -->
      <feMerge id="feMerge3144">
        <feMergeNode id="feMergeNode3146"/>
        <!-- this contains the offset blurred image -->
        <feMergeNode in="SourceGraphic" id="feMergeNode3148"/>
        <!-- this contains the element that the filter is applied to -->
      </feMerge>
    </filter>
  </defs>
  <metadata id="metadata7">
    <rdf:RDF>
      <cc:Work rdf:about="">
        <dc:format>image/svg+xml</dc:format>
        <dc:type rdf:resource="http://purl.org/dc/dcmitype/StillImage"/>
        <dc:title/>
      </cc:Work>
    </rdf:RDF>
  </metadata>
  <g transform="translate(-252.24748,-476.16218)" id="layer1" inkscape:groupmode="layer" inkscape:label="Ebene 1"/>
  <g id="g3674" transform="translate(8.2,25.2)">
    <path style="fill:#555555;stroke:#ffffff;stroke-width:2px;filter:url(#dropshadow)" sodipodi:type="arc" id="path3048" sodipodi:cx="190" sodipodi:cy="324.09448" sodipodi:rx="40" sodipodi:ry="40" d="m 230,324.09448 c 0,22.09139 -17.90861,40 -40,40 -22.09139,0 -40,-17.90861 -40,-40 0,-22.09139 17.90861,-40 40,-40 22.09139,0 40,17.90861 40,40 z" transform="matrix(-1,0,0,1,231,-193.80673)" class="circle"/>
    <g id="e_i" style="opacity:0" transform="matrix(1.8740003,0,0,1.8740003,-184.9956,-259.08903)" inkscape:label="#g3184">
      <g xml:space="preserve" transform="matrix(0.40285714,0,0,-0.40285714,-70.5,374.2853)" id="g3186"><path style="fill:#ffffff;stroke:#ffffff;stroke-width:0px" id="path3188" d="m 464.83,417.71 0.14,0.01 0.16,0 0.17,0 0.17,0 0.19,0.01 0.2,0 0.21,0.01 0.22,0.01 0.22,0.01 0.23,0.01 0.24,0.01 0.25,0.02 0.25,0.02 0.25,0.02 0.53,0.05 0.53,0.07 0.55,0.07 0.54,0.1 0.54,0.11 0.54,0.12 0.26,0.07 0.26,0.08 0.25,0.08 0.25,0.08 0.24,0.09 0.24,0.1 c 3.48,1.5 3.73,4.43 3.73,5.12 0,2.2 -1.89,4.23 -5.33,4.23 v -1.09 c 2.35,0 3.69,-1.44 3.69,-3.14 0,-5.17 -7.97,-5.17 -10.01,-5.17 h -2.05 c 1.95,7.56 7.08,8.31 8.37,8.31 v 1.09 c -5.53,0 -13.04,-4.82 -13.04,-13.54 0,-5.08 2.93,-9.02 7.81,-9.02 7.12,0 11.31,5.28 11.31,5.88 0,0.29 -0.3,0.65 -0.59,0.65 -0.25,0 -0.35,-0.11 -0.66,-0.5 -3.94,-4.93 -9.36,-4.93 -9.95,-4.93 -3.89,0 -4.35,4.18 -4.35,5.78 0,0.59 0.05,2.14 0.8,5.18 z" inkscape:connector-curvature="0" class="label"/><path style="fill:#ffffff;stroke:#ffffff;stroke-width:0px" id="path3190" d="m 489.98,420.54 0,0.05 -0.01,0.06 0,0.05 -0.01,0.06 -0.01,0.05 -0.02,0.06 -0.02,0.05 -0.01,0.06 -0.03,0.06 -0.02,0.05 -0.03,0.06 -0.03,0.05 -0.03,0.06 -0.04,0.05 -0.04,0.05 -0.04,0.05 -0.04,0.05 -0.05,0.05 -0.05,0.04 -0.05,0.05 -0.06,0.04 -0.06,0.03 -0.06,0.04 -0.06,0.03 -0.07,0.03 -0.07,0.03 -0.08,0.02 -0.08,0.02 -0.08,0.01 -0.08,0.01 -0.09,0.01 -0.09,0 c -0.94,0 -1.95,-0.91 -1.95,-1.92 0,-0.59 0.45,-1.33 1.4,-1.33 1,0 1.96,0.99 1.96,1.92 z" inkscape:connector-curvature="0" class="label"/><path style="fill:#ffffff;stroke:#ffffff;stroke-width:0px" id="path3192" d="m 482.87,402.84 -0.06,-0.17 -0.05,-0.17 -0.03,-0.08 -0.02,-0.09 -0.03,-0.08 -0.02,-0.09 -0.02,-0.09 -0.02,-0.09 -0.02,-0.1 -0.02,-0.09 -0.01,-0.1 0,-0.05 -0.01,-0.05 0,-0.06 0,-0.05 0,-0.05 -0.01,-0.06 c 0,-1.64 1.4,-2.95 3.3,-2.95 3.49,0 5.03,4.79 5.03,5.33 0,0.45 -0.45,0.45 -0.56,0.45 -0.48,0 -0.53,-0.2 -0.67,-0.59 -0.8,-2.79 -2.33,-4.22 -3.69,-4.22 -0.7,0 -0.87,0.45 -0.87,1.22 0,0.79 0.25,1.46 0.56,2.23 0.34,0.94 0.73,1.87 1.11,2.78 0.31,0.84 1.58,4.02 1.72,4.44 0.09,0.34 0.2,0.76 0.2,1.11 0,1.64 -1.39,2.95 -3.31,2.95 -3.46,0 -5.05,-4.73 -5.05,-5.33 0,-0.45 0.48,-0.45 0.59,-0.45 0.49,0 0.52,0.17 0.63,0.56 0.91,3 2.44,4.25 3.72,4.25 0.56,0 0.87,-0.28 0.87,-1.22 0,-0.79 -0.2,-1.32 -1.08,-3.48 z" inkscape:connector-curvature="0" class="label"/></g>    </g>
  </g>
  <g id="attr_rescal_i" inkscape:label="#g3490" transform="translate(13.2,5.2)" style="opacity:0">
    <g transform="translate(-9.9999998e-7,3)" id="g3450" class="attr_group" inkscape:label="#g3132" style="filter:url(#dropshadow)">
      <path d="m 29.552521,81 20,0 0,-20 -20,0 z" id="path3452" inkscape:connector-curvature="0" class="attr attr1" style="fill:#ffd700;stroke:#ffffff;stroke-width:2px;stroke-linecap:butt;stroke-linejoin:miter"/>
      <path class="attr attr2" inkscape:connector-curvature="0" id="path3454" d="m 29.552521,61 20,0 0,-20 -20,0 z" style="fill:#ff4500;stroke:#ffffff;stroke-width:2px;stroke-linecap:butt;stroke-linejoin:miter"/>
      <path d="m 29.552521,41 20,0 0,-20 -20,0 z" id="path3456" inkscape:connector-curvature="0" class="attr attr3" style="fill:#00bfff;stroke:#ffffff;stroke-width:2px;stroke-linecap:butt;stroke-linejoin:miter"/>
      <path class="attr attr4" inkscape:connector-curvature="0" id="path3458" d="m 29.552521,21 20,0 0,-20 -20,0 z" style="fill:#40e0d0;stroke:#ffffff;stroke-width:2px;stroke-linecap:butt;stroke-linejoin:miter"/>
    </g>
    <path d="m 49.55252,84 60,60" id="path3483" class="link" inkscape:connector-curvature="0" sodipodi:nodetypes="cc" style="stroke:#ffffff;stroke-width:2px;marker-end:url(#Arrow2Mend);filter:url(#dropshadow)"/>
  </g>
  <g id="attr_cp_i" inkscape:label="#g3470" transform="translate(8.2,25.2)">
    <g id="g3498">
      <g transform="translate(29.999999,3)" id="attr_oi" class="attr_group" inkscape:label="#g3132" style="filter:url(#dropshadow)">
        <path d="m 29.552521,81 20,0 0,-20 -20,0 z" id="path3045" inkscape:connector-curvature="0" class="attr attr1" style="fill:#ffd700;stroke:#ffffff;stroke-width:2px;stroke-linecap:butt;stroke-linejoin:miter"/>
        <path class="attr attr2" inkscape:connector-curvature="0" id="path3047" d="m 29.552521,61 20,0 0,-20 -20,0 z" style="fill:#ff4500;stroke:#ffffff;stroke-width:2px;stroke-linecap:butt;stroke-linejoin:miter"/>
        <path d="m 29.552521,41 20,0 0,-20 -20,0 z" id="path3049" inkscape:connector-curvature="0" class="attr attr3" style="fill:#00bfff;stroke:#ffffff;stroke-width:2px;stroke-linecap:butt;stroke-linejoin:miter"/>
        <path class="attr attr4" inkscape:connector-curvature="0" id="path3051" d="m 29.552521,21 20,0 0,-20 -20,0 z" style="fill:#40e0d0;stroke:#ffffff;stroke-width:2px;stroke-linecap:butt;stroke-linejoin:miter"/>
      </g>
      <path sodipodi:nodetypes="cc" inkscape:connector-curvature="0" class="link" id="path3860" d="m 79.55252,84 35,40" style="stroke:#ffffff;stroke-width:2px;marker-end:url(#Arrow2Mend);filter:url(#dropshadow)"/>
      <g class="attr_group" id="attr_si" transform="translate(-295,3)" style="filter:url(#dropshadow)" inkscape:label="#g3241">
        <path d="m 299.55252,81 20,0 0,-20 -20,0 z" id="path3243" inkscape:connector-curvature="0" class="attr attr1" style="fill:#ffd700;stroke:#ffffff;stroke-width:2px;stroke-linecap:butt;stroke-linejoin:miter"/>
        <path class="attr attr3" inkscape:connector-curvature="0" id="path3245" d="m 299.55252,61 20,0 0,-20 -20,0 z" style="fill:#00bfff;stroke:#ffffff;stroke-width:2px;stroke-linecap:butt;stroke-linejoin:miter"/>
        <path d="m 299.55252,41 20,0 0,-20 -20,0 z" id="path3247" inkscape:connector-curvature="0" class="attr attr1" style="fill:#ffd700;stroke:#ffffff;stroke-width:2px;stroke-linecap:butt;stroke-linejoin:miter"/>
        <path class="attr attr2" inkscape:connector-curvature="0" id="path3249" d="m 299.55252,21 20,0 0,-20 -20,0 z" style="fill:#ff4500;stroke:#ffffff;stroke-width:2px;stroke-linecap:butt;stroke-linejoin:miter"/>
      </g>
    </g>
  </g>
  <text xml:space="preserve" style="font-size:16px;font-style:normal;font-variant:normal;font-weight:normal;font-stretch:normal;line-height:125%;letter-spacing:0px;word-spacing:0px;fill:#ffffff;fill-opacity:1;stroke:none;font-family:Arial;-inkscape-font-specification:Arial" x="22.75252" y="159.2" id="text3369" sodipodi:linespacing="125%"><tspan sodipodi:role="line" id="tspan3371" x="22.75252" y="159.2">Al Gore</tspan></text>
  <g id="g3430" transform="translate(8.2,25.2)">
    <path style="fill:#555555;stroke:#ffffff;stroke-width:2px;filter:url(#dropshadow)" class="circle" transform="matrix(-1,0,0,1,388.5558,-193.86034)" d="m 230,324.09448 c 0,22.09139 -17.90861,40 -40,40 -22.09139,0 -40,-17.90861 -40,-40 0,-22.09139 17.90861,-40 40,-40 22.09139,0 40,17.90861 40,40 z" sodipodi:ry="40" sodipodi:rx="40" sodipodi:cy="324.09448" sodipodi:cx="190" id="path3044" sodipodi:type="arc"/>
    <text sodipodi:linespacing="125%" id="text3373" y="125.86305" x="198.71205" style="font-size:16px;font-style:normal;font-variant:normal;font-weight:normal;font-stretch:normal;text-align:center;line-height:125%;letter-spacing:0px;word-spacing:0px;text-anchor:middle;fill:#ffffff;fill-opacity:1;stroke:none;font-family:Arial;-inkscape-font-specification:Arial" xml:space="preserve"><tspan y="125.86305" x="198.71205" id="tspan3375" sodipodi:role="line">Bill</tspan><tspan id="tspan3377" y="145.86305" x="198.71205" sodipodi:role="line">Clinton</tspan></text>
  </g>
  <g id="g3419" transform="translate(8.2,25.2)">
    <path class="circle" transform="matrix(-1,0,0,1,544.55252,-195.09448)" d="m 230,324.09448 c 0,22.09139 -17.90861,40 -40,40 -22.09139,0 -40,-17.90861 -40,-40 0,-22.09139 17.90861,-40 40,-40 22.09139,0 40,17.90861 40,40 z" sodipodi:ry="40" sodipodi:rx="40" sodipodi:cy="324.09448" sodipodi:cx="190" id="path3046" sodipodi:type="arc" style="fill:#555555;stroke:#ffffff;stroke-width:2px;filter:url(#dropshadow)"/>
    <text sodipodi:linespacing="125%" id="text3379" y="123.04297" x="335.31815" style="font-size:16px;font-style:normal;font-variant:normal;font-weight:normal;font-stretch:normal;line-height:125%;letter-spacing:0px;word-spacing:0px;fill:#ffffff;fill-opacity:1;stroke:none;font-family:Arial;-inkscape-font-specification:Arial" xml:space="preserve"><tspan y="123.04297" x="335.31815" id="tspan3381" sodipodi:role="line">Dem.</tspan><tspan id="tspan3383" y="143.04297" x="335.31815" sodipodi:role="line">Party</tspan></text>
  </g>
  <path sodipodi:nodetypes="cc" style="stroke:#ffffff;stroke-width:2px;marker-end:url(#Arrow2Mend);filter:url(#dropshadow)" inkscape:connector-curvature="0" class="link" id="path3407" d="m 247.75252,154.2 75,0"/>
  <path d="m 87.75252,154.2 80,0" id="path3367" class="link" inkscape:connector-curvature="0" style="stroke:#ffffff;stroke-width:2px;marker-end:url(#Arrow2Mend);filter:url(#dropshadow)" sodipodi:nodetypes="cc"/>
  <g id="attr_cp_j" inkscape:label="#g3527" transform="translate(8.2,25.2)">
    <g inkscape:label="#g3126" class="attr_group" id="attr_oj" transform="translate(-25,3)" style="filter:url(#dropshadow)">
      <path style="fill:#ff4500;stroke:#ffffff;stroke-width:2px;stroke-linecap:butt;stroke-linejoin:miter" d="m 184.55252,81 20,0 0,-20 -20,0 z" id="path3053" inkscape:connector-curvature="0" class="attr attr2"/>
      <path style="fill:#ffd700;stroke:#ffffff;stroke-width:2px;stroke-linecap:butt;stroke-linejoin:miter" class="attr attr1" inkscape:connector-curvature="0" id="path3055" d="m 184.55252,61 20,0 0,-20 -20,0 z"/>
      <path style="fill:#40e0d0;stroke:#ffffff;stroke-width:2px;stroke-linecap:butt;stroke-linejoin:miter" d="m 184.55252,41 20,0 0,-20 -20,0 z" id="path3057" inkscape:connector-curvature="0" class="attr attr4"/>
      <path style="fill:#00bfff;stroke:#ffffff;stroke-width:2px;stroke-linecap:butt;stroke-linejoin:miter" class="attr attr3" inkscape:connector-curvature="0" id="path3059" d="m 184.55252,21 20,0 0,-20 -20,0 z"/>
    </g>
    <path d="m 159.55252,84 -35,40" id="path3862" class="link" inkscape:connector-curvature="0" style="stroke:#ffffff;stroke-width:2px;marker-end:url(#Arrow2Mend);filter:url(#dropshadow)" sodipodi:nodetypes="cc"/>
    <g inkscape:label="#g3210" transform="translate(-225,3)" style="filter:url(#dropshadow)" class="attr_group" id="attr_sj">
      <path style="fill:#40e0d0;stroke:#ffffff;stroke-width:2px;stroke-linecap:butt;stroke-linejoin:miter" class="attr attr4" inkscape:connector-curvature="0" id="path3069" d="m 444.55252,81 20,0 0,-20 -20,0 z"/>
      <path style="fill:#00bfff;stroke:#ffffff;stroke-width:2px;stroke-linecap:butt;stroke-linejoin:miter" d="m 444.55252,61 20,0 0,-20 -20,0 z" id="path3071" inkscape:connector-curvature="0" class="attr attr3"/>
      <path style="fill:#ff4500;stroke:#ffffff;stroke-width:2px;stroke-linecap:butt;stroke-linejoin:miter" class="attr attr2" inkscape:connector-curvature="0" id="path3073" d="m 444.55252,41 20,0 0,-20 -20,0 z"/>
      <path style="fill:#ffd700;stroke:#ffffff;stroke-width:2px;stroke-linecap:butt;stroke-linejoin:miter" d="m 444.55252,21 20,0 0,-20 -20,0 z" id="path3075" inkscape:connector-curvature="0" class="attr attr1"/>
    </g>
    <path sodipodi:nodetypes="cc" style="stroke:#ffffff;stroke-width:2px;marker-end:url(#Arrow2Mend);filter:url(#dropshadow)" inkscape:connector-curvature="0" class="link" id="path3436" d="m 239.55252,84 35,40"/>
  </g>
  <g id="attr_cp_k" inkscape:label="#g3550" transform="translate(8.2,25.2)">
    <g transform="translate(20,3)" style="filter:url(#dropshadow)" class="attr_group" id="attr_ok">
      <path style="fill:#ffd700;stroke:#ffffff;stroke-width:2px;stroke-linecap:butt;stroke-linejoin:miter" d="m 299.55252,81 20,0 0,-20 -20,0 z" id="path3061" inkscape:connector-curvature="0" class="attr attr1"/>
      <path style="fill:#00bfff;stroke:#ffffff;stroke-width:2px;stroke-linecap:butt;stroke-linejoin:miter" class="attr attr3" inkscape:connector-curvature="0" id="path3063" d="m 299.55252,61 20,0 0,-20 -20,0 z"/>
      <path style="fill:#ffd700;stroke:#ffffff;stroke-width:2px;stroke-linecap:butt;stroke-linejoin:miter" d="m 299.55252,41 20,0 0,-20 -20,0 z" id="path3065" inkscape:connector-curvature="0" class="attr attr1"/>
      <path style="fill:#ff4500;stroke:#ffffff;stroke-width:2px;stroke-linecap:butt;stroke-linejoin:miter" class="attr attr2" inkscape:connector-curvature="0" id="path3067" d="m 299.55252,21 20,0 0,-20 -20,0 z"/>
    </g>
    <path sodipodi:nodetypes="cc" style="stroke:#ffffff;stroke-width:2px;marker-end:url(#Arrow2Mend);filter:url(#dropshadow)" inkscape:connector-curvature="0" class="link" id="path3438" d="m 319.55252,84 -35,40"/>
    <g style="filter:url(#dropshadow)" transform="translate(190,3)" id="attr_sk" class="attr_group" inkscape:label="#g3126">
      <path class="attr attr2" inkscape:connector-curvature="0" id="path3442" d="m 184.55252,81 20,0 0,-20 -20,0 z" style="fill:#ff4500;stroke:#ffffff;stroke-width:2px;stroke-linecap:butt;stroke-linejoin:miter"/>
      <path d="m 184.55252,61 20,0 0,-20 -20,0 z" id="path3444" inkscape:connector-curvature="0" class="attr attr1" style="fill:#ffd700;stroke:#ffffff;stroke-width:2px;stroke-linecap:butt;stroke-linejoin:miter"/>
      <path class="attr attr4" inkscape:connector-curvature="0" id="path3446" d="m 184.55252,41 20,0 0,-20 -20,0 z" style="fill:#40e0d0;stroke:#ffffff;stroke-width:2px;stroke-linecap:butt;stroke-linejoin:miter"/>
      <path d="m 184.55252,21 20,0 0,-20 -20,0 z" id="path3448" inkscape:connector-curvature="0" class="attr attr3" style="fill:#00bfff;stroke:#ffffff;stroke-width:2px;stroke-linecap:butt;stroke-linejoin:miter"/>
    </g>
  </g>
  <g id="attr_rescal_j" inkscape:label="#g3541" transform="translate(8.2,5.2)" style="opacity:0">
    <g id="g3460" class="attr_group" style="filter:url(#dropshadow)" transform="translate(-255,3)" inkscape:label="#g3210">
      <path d="m 444.55252,81 20,0 0,-20 -20,0 z" id="path3462" inkscape:connector-curvature="0" class="attr attr4" style="fill:#40e0d0;stroke:#ffffff;stroke-width:2px;stroke-linecap:butt;stroke-linejoin:miter"/>
      <path class="attr attr3" inkscape:connector-curvature="0" id="path3464" d="m 444.55252,61 20,0 0,-20 -20,0 z" style="fill:#00bfff;stroke:#ffffff;stroke-width:2px;stroke-linecap:butt;stroke-linejoin:miter"/>
      <path d="m 444.55252,41 20,0 0,-20 -20,0 z" id="path3466" inkscape:connector-curvature="0" class="attr attr2" style="fill:#ff4500;stroke:#ffffff;stroke-width:2px;stroke-linecap:butt;stroke-linejoin:miter"/>
      <path class="attr attr1" inkscape:connector-curvature="0" id="path3468" d="m 444.55252,21 20,0 0,-20 -20,0 z" style="fill:#ffd700;stroke:#ffffff;stroke-width:2px;stroke-linecap:butt;stroke-linejoin:miter"/>
    </g>
    <path sodipodi:nodetypes="cc" style="stroke:#ffffff;stroke-width:2px;marker-end:url(#Arrow2Mend);filter:url(#dropshadow)" inkscape:connector-curvature="0" class="link" id="path3511" d="m 189.55252,84 -65,60"/>
    <path d="m 209.55252,84 65,60" id="path3513" class="link" inkscape:connector-curvature="0" style="stroke:#ffffff;stroke-width:2px;marker-end:url(#Arrow2Mend);filter:url(#dropshadow)" sodipodi:nodetypes="cc"/>
  </g>
  <g id="attr_rescal_k" inkscape:label="#g3563" transform="translate(8.2,5.2)" style="opacity:0">
    <g inkscape:label="#g3210" transform="translate(-100,3)" style="filter:url(#dropshadow)" class="attr_group" id="g3515">
      <path style="fill:#40e0d0;stroke:#ffffff;stroke-width:2px;stroke-linecap:butt;stroke-linejoin:miter" class="attr attr4" inkscape:connector-curvature="0" id="path3517" d="m 444.55252,81 20,0 0,-20 -20,0 z"/>
      <path style="fill:#00bfff;stroke:#ffffff;stroke-width:2px;stroke-linecap:butt;stroke-linejoin:miter" d="m 444.55252,61 20,0 0,-20 -20,0 z" id="path3519" inkscape:connector-curvature="0" class="attr attr3"/>
      <path style="fill:#ff4500;stroke:#ffffff;stroke-width:2px;stroke-linecap:butt;stroke-linejoin:miter" class="attr attr2" inkscape:connector-curvature="0" id="path3521" d="m 444.55252,41 20,0 0,-20 -20,0 z"/>
      <path style="fill:#ffd700;stroke:#ffffff;stroke-width:2px;stroke-linecap:butt;stroke-linejoin:miter" d="m 444.55252,21 20,0 0,-20 -20,0 z" id="path3523" inkscape:connector-curvature="0" class="attr attr1"/>
    </g>
    <path d="m 344.55252,84 -60,60" id="path3525" class="link" inkscape:connector-curvature="0" style="stroke:#ffffff;stroke-width:2px;marker-end:url(#Arrow2Mend);filter:url(#dropshadow)" sodipodi:nodetypes="cc"/>
  </g>
  <text xml:space="preserve" style="font-size:12px;font-style:normal;font-variant:normal;font-weight:normal;font-stretch:normal;line-height:125%;letter-spacing:0px;word-spacing:0px;fill:#ffffff;fill-opacity:1;stroke:none;font-family:Arial;-inkscape-font-specification:Arial" x="97.752518" y="174.20001" id="text3081" sodipodi:linespacing="125%"><tspan sodipodi:role="line" id="tspan3083" x="97.752518" y="174.20001">vicePresOf</tspan></text>
  <text xml:space="preserve" style="font-size:12px;font-style:normal;font-variant:normal;font-weight:normal;font-stretch:normal;line-height:125%;letter-spacing:0px;word-spacing:0px;fill:#ffffff;fill-opacity:1;stroke:none;font-family:Arial;-inkscape-font-specification:Arial" x="272.75253" y="174.20001" id="text3085" sodipodi:linespacing="125%"><tspan sodipodi:role="line" id="tspan3087" x="272.75253" y="174.20001">party</tspan></text>
</svg>