<!-- Created with Inkscape (http://www.inkscape.org/) -->
<svg xmlns:rdf="http://www.w3.org/1999/02/22-rdf-syntax-ns#" xmlns="http://www.w3.org/2000/svg" xmlns:cc="http://creativecommons.org/ns#" xmlns:dc="http://purl.org/dc/elements/1.1/" id="svg12140" height="376.6" width="631.72" version="1.1" preserveAspectRatio="xMinYMin meet" viewBox="0 0 631.72 376.6">
 <metadata id="metadata12145">
  <rdf:RDF>
   <cc:Work rdf:about="">
    <dc:format>image/svg+xml</dc:format>
    <dc:type rdf:resource="http://purl.org/dc/dcmitype/StillImage"/>
    <dc:title/>
   </cc:Work>
  </rdf:RDF>
 </metadata>
 <g id="layer1" transform="translate(81.571941,-598.34053)" stroke="#000" stroke-linecap="butt">
  <g id="g12076" stroke-linejoin="round" transform="translate(-430.59588,-529.69066)" stroke-width="1px" fill="#FFF">
   <path id="path12078" d="m349.54,1137.4,18.997-8.8583,87.384,40.748-18.997,8.8583z"/>
   <path id="path12080" d="m436.92,1178.1,18.997-8.8583,0,212.6-18.997,8.8583z"/>
   <path id="path12082" d="m349.54,1137.4,87.384,40.748,0,212.6l-87.38-40.7z"/>
  </g>
  <g id="g12036" transform="translate(-856.12009,-526.14736)">
   <g id="g11980" stroke-linejoin="round" transform="translate(607.89174,375.59057)" stroke-width="1px" fill="#FFF">
    <path id="path11982" d="m227.96,836.22,0.00001,81.496,87.384,40.748,0-81.496z"/>
    <path id="path11984" d="m227.96,836.22,110.18-51.378,87.384,40.748-41.793,83.268z"/>
    <path id="path11986" d="m315.34,650.2,110.18-51.378,0-81.496-110.18,51.378z" transform="translate(0,308.2677)"/>
   </g>
   <g id="g12005" stroke-linejoin="round" stroke-dashoffset="0" stroke-miterlimit="4" stroke-dasharray="3.00000005, 3.00000005" stroke-width="1" fill="#ffd700">
    <g id="g12000">
     <path id="path11988" d="m854.85,912.4,68.388,95.669,0,17.716-18.997-8.8583-68.388-95.669,0-17.717,18.997,8.8583z" transform="translate(0,308.2677)"/>
     <path id="path11996" d="m923.24,1008.1,110.18-51.378,0,17.717-110.18,51.378z" transform="translate(0,308.2677)"/>
     <path id="path11998" d="m965.03,861.02,68.388,95.669-110.18,51.378-68.388-95.669z" transform="translate(0,308.2677)"/>
    </g>
    <path id="path11994" d="m854.85,912.4-18.997-8.8583,110.18-51.378,18.997,8.8583z" transform="translate(0,308.2677)"/>
   </g>
   <path id="path12012" stroke-linejoin="miter" d="m923.24,1025.8,0-81.496-87.384-40.748" transform="translate(0,308.2677)" stroke-width="1px" fill="none"/>
   <path id="path12014" stroke-linejoin="miter" d="M923.24,944.29,1033.4,892.91" transform="translate(0,308.2677)" stroke-width="1px" fill="none"/>
  </g>
  <g id="g12016" stroke-linejoin="round" transform="translate(-328.01416,-478.31266)" stroke-width="1px" fill="#FFF">
   <path id="path12018" d="m474.92,884.06,0,81.496,87.384,40.748,0-81.496z" transform="translate(0,308.2677)"/>
   <path id="path12020" d="m474.92,884.06,18.997-8.8583,87.384,40.748-18.997,8.8583z" transform="translate(0,308.2677)"/>
   <path id="path12022" d="m562.3,924.8,18.997-8.8583,0,81.496-18.997,8.8583z" transform="translate(0,308.2677)"/>
  </g>
  <g id="g12050" transform="translate(-628.16069,-419.84816)">
   <g id="g12052" stroke-linejoin="round" transform="translate(607.89174,375.59057)" stroke-width="1px" fill="#FFF">
    <path id="path12054" d="m227.96,836.22,0.00001,81.496,87.384,40.748,0-81.496z"/>
    <path id="path12056" d="m227.96,836.22,110.18-51.378,87.384,40.748-41.793,83.268z"/>
    <path id="path12058" d="m315.34,650.2,110.18-51.378,0-81.496-110.18,51.378z" transform="translate(0,308.2677)"/>
   </g>
   <g id="g12060" stroke-linejoin="round" stroke-dashoffset="0" stroke-miterlimit="4" stroke-dasharray="3.00000005, 3.00000005" stroke-width="1" fill="#ffd700">
    <g id="g12062">
     <path id="path12064" d="m854.85,912.4,68.388,95.669,0,17.716-18.997-8.8583-68.388-95.669,0-17.717,18.997,8.8583z" transform="translate(0,308.2677)"/>
     <path id="path12066" d="m923.24,1008.1,110.18-51.378,0,17.717-110.18,51.378z" transform="translate(0,308.2677)"/>
     <path id="path12068" d="m965.03,861.02,68.388,95.669-110.18,51.378-68.388-95.669z" transform="translate(0,308.2677)"/>
    </g>
    <path id="path12070" d="m854.85,912.4-18.997-8.8583,110.18-51.378,18.997,8.8583z" transform="translate(0,308.2677)"/>
   </g>
   <path id="path12072" stroke-linejoin="miter" d="m923.24,1025.8,0-81.496-87.384-40.748" transform="translate(0,308.2677)" stroke-width="1px" fill="none"/>
   <path id="path12074" stroke-linejoin="miter" d="M923.24,944.29,1033.4,892.91" transform="translate(0,308.2677)" stroke-width="1px" fill="none"/>
  </g>
  <g id="g12084" stroke-linejoin="round" transform="translate(-119.05135,-302.91904)" stroke-width="1px" fill="#FFF">
   <path id="path12086" d="m493.91,1123.2,18.997-8.8582,155.77,72.638-18.997,8.8582z"/>
   <path id="path12088" d="m649.68,1195.9,18.997-8.8582,0,81.496-18.997,8.8583z"/>
   <path id="path12090" d="m493.91,1123.2,155.77,72.638,0.00001,81.496-155.77-72.638z"/>
  </g>
 </g>
</svg>