<!-- Created with Inkscape (http://www.inkscape.org/) -->
<svg xmlns:dc="http://purl.org/dc/elements/1.1/" xmlns:cc="http://creativecommons.org/ns#" xmlns:rdf="http://www.w3.org/1999/02/22-rdf-syntax-ns#" xmlns:svg="http://www.w3.org/2000/svg" xmlns="http://www.w3.org/2000/svg" xmlns:sodipodi="http://sodipodi.sourceforge.net/DTD/sodipodi-0.dtd" xmlns:inkscape="http://www.inkscape.org/namespaces/inkscape" sodipodi:docname="ml-factor.svg" inkscape:version="0.48.3.1 r9886" version="1.1" id="svg2" preserveAspectRatio="xMinYMin meet" viewBox="0 0 260.93829 191.82431" width="260.93829" height="191.82431">
  <sodipodi:namedview id="base" pagecolor="#000" bordercolor="#666666" borderopacity="1.0" inkscape:pageopacity="0.0" inkscape:pageshadow="2" inkscape:zoom="1.979899" inkscape:cx="-38.447022" inkscape:cy="69.597761" inkscape:document-units="px" inkscape:current-layer="attr_sj" showgrid="true" inkscape:window-width="1364" inkscape:window-height="731" inkscape:window-x="0" inkscape:window-y="35" inkscape:window-maximized="1" fit-margin-top="0" fit-margin-left="0" fit-margin-right="0" fit-margin-bottom="0">
    <inkscape:grid originy="-1239.7011px" originx="-403.26172px" id="grid2985" type="xygrid" snapvisiblegridlinesonly="true" enabled="true" visible="true" empspacing="5"/>
  </sodipodi:namedview>
  <style type="text/css" id="lv-style">
	 path {stroke-width: 2px; stroke: #fff; }
	 text {fill: #fff; stroke: none; font-size: 12px; font-family:Arial;}
	 .circle {fill: #333; filter:url(#dropshadow);}
	 .label {fill: #fff; stroke-width: 0px;}
	 .arrowhead {fill: #fff; stroke: #fff; overflow: visible;}
	 .attr {fill: none; stroke:#fff;stroke-width:2px;stroke-linecap:butt;stroke-linejoin:miter;}
	 .attr_group {filter:url(#dropshadow);}
	 .attra1 {fill: orangered;}
	 .attra0 {fill: turquoise;}
	 .attrb1 {fill: orange;}
	 .attrb0 {fill: deepskyblue;}
     .link {stroke:#fff ;stroke-width:2px; marker-end:url(#Arrow2Mend); filter:url(#dropshadow);}
  </style>
  <defs id="defs4">
    <marker id="Arrow2Mend" class="arrowhead" refX="0" refY="0" orient="auto" inkscape:stockid="Arrow2Mend" style="fill:#ffffff;stroke:#ffffff;overflow:visible">
      <path inkscape:connector-curvature="0" transform="scale(-0.6,-0.6)" d="M 8.7185878,4.0337352 -2.2072895,0.01601326 8.7185884,-4.0017078 c -1.7454984,2.3720609 -1.7354408,5.6174519 -6e-7,8.035443 z" style="fill-rule:evenodd;stroke:#ffffff;stroke-width:0.625;stroke-linejoin:round" id="path3895"/>
    </marker>
    <filter id="dropshadow" color-interpolation-filters="sRGB">
      <feGaussianBlur in="SourceAlpha" stdDeviation="3" id="feGaussianBlur3140"/>
      <!-- stdDeviation is how much to blur -->
      <feOffset dx="-2" dy="2" result="offsetblur" id="feOffset3142"/>
      <!-- how much to offset -->
      <feMerge id="feMerge3144">
        <feMergeNode id="feMergeNode3146"/>
        <!-- this contains the offset blurred image -->
        <feMergeNode in="SourceGraphic" id="feMergeNode3148"/>
        <!-- this contains the element that the filter is applied to -->
      </feMerge>
    </filter>
  </defs>
  <metadata id="metadata7">
    <rdf:RDF>
      <cc:Work rdf:about="">
        <dc:format>image/svg+xml</dc:format>
        <dc:type rdf:resource="http://purl.org/dc/dcmitype/StillImage"/>
        <dc:title/>
      </cc:Work>
    </rdf:RDF>
  </metadata>
  <g transform="translate(-403.26172,-488.97201)" id="layer1" inkscape:groupmode="layer" inkscape:label="Ebene 1"/>
  <g id="g3419" transform="translate(-142.81424,12.390164)">
    <path class="circle" transform="matrix(-1,0,0,1,544.55252,-195.09448)" d="m 230,324.09448 c 0,22.09139 -17.90861,40 -40,40 -22.09139,0 -40,-17.90861 -40,-40 0,-22.09139 17.90861,-40 40,-40 22.09139,0 40,17.90861 40,40 z" sodipodi:ry="40" sodipodi:rx="40" sodipodi:cy="324.09448" sodipodi:cx="190" id="path3046" sodipodi:type="arc" style="fill:#555555;stroke:#ffffff;stroke-width:2px;filter:url(#dropshadow)"/>
    <text sodipodi:linespacing="125%" id="text3379" y="123.04297" x="335.31815" style="font-size:16px;font-style:normal;font-variant:normal;font-weight:normal;font-stretch:normal;line-height:125%;letter-spacing:0px;word-spacing:0px;fill:#ffffff;fill-opacity:1;stroke:none;font-family:Arial;-inkscape-font-specification:Arial" xml:space="preserve"><tspan y="123.04297" x="335.31815" id="tspan3381" sodipodi:role="line">Dem.</tspan><tspan id="tspan3383" y="143.04297" x="335.31815" sodipodi:role="line">Party</tspan></text>
  </g>
  <path sodipodi:nodetypes="cc" style="stroke:#ffffff;stroke-width:2px;marker-end:url(#Arrow2Mend);filter:url(#dropshadow)" inkscape:connector-curvature="0" class="link" id="path3407" d="m 96.738279,141.39017 75.000001,0"/>
  <g id="attr_sj" class="attr_group" style="filter:url(#dropshadow)" transform="translate(-367.81424,15.390164)" inkscape:label="#g3210">
    <path d="m 444.55252,81 20,0 0,-20 -20,0 z" id="s_cons" inkscape:connector-curvature="0" class="attr attra0" inkscape:label="#path3069"/>
    <path class="attr attra1" inkscape:connector-curvature="0" id="s_liberal" d="m 444.55252,61 20,0 0,-20 -20,0 z" inkscape:label="#path3071"/>
    <path d="m 444.55252,41 20,0 0,-20 -20,0 z" id="path3073" inkscape:connector-curvature="0" class="attr attrb0" style="fill:#00bfff;stroke:#ffffff;stroke-width:2px;stroke-linecap:butt;stroke-linejoin:miter"/>
    <path class="attr attrb1" inkscape:connector-curvature="0" id="path3075" d="m 444.55252,21 20,0 0,-20 -20,0 z" style="fill:#ffa500;stroke:#ffffff;stroke-width:2px;stroke-linecap:butt;stroke-linejoin:miter"/>
  </g>
  <path d="M 96.738279,96.390164 131.73828,136.39017" id="path3436" class="link" inkscape:connector-curvature="0" style="stroke:#ffffff;stroke-width:2px;marker-end:url(#Arrow2Mend);filter:url(#dropshadow)" sodipodi:nodetypes="cc"/>
  <g id="attr_ok" class="attr_group" style="filter:url(#dropshadow)" transform="translate(-122.81424,15.390164)">
    <path class="attr attrb0" inkscape:connector-curvature="0" id="path3061" d="m 299.55252,81 20,0 0,-20 -20,0 z" style="fill:#00bfff;stroke:#ffffff;stroke-width:2px;stroke-linecap:butt;stroke-linejoin:miter"/>
    <path d="m 299.55252,61 20,0 0,-20 -20,0 z" id="path3063" inkscape:connector-curvature="0" class="attr attrb1" style="fill:#ffa500;stroke:#ffffff;stroke-width:2px;stroke-linecap:butt;stroke-linejoin:miter"/>
    <path class="attr attra1" inkscape:connector-curvature="0" id="path3065" d="m 299.55252,41 20,0 0,-20 -20,0 z" style="fill:#ff4500;stroke:#ffffff;stroke-width:2px;stroke-linecap:butt;stroke-linejoin:miter"/>
    <path d="m 299.55252,21 20,0 0,-20 -20,0 z" id="path3067" inkscape:connector-curvature="0" class="attr attra0" style="fill:#40e0d0;stroke:#ffffff;stroke-width:2px;stroke-linecap:butt;stroke-linejoin:miter"/>
  </g>
  <path d="m 176.73828,96.390164 -35,40.000006" id="path3438" class="link" inkscape:connector-curvature="0" style="stroke:#ffffff;stroke-width:2px;marker-end:url(#Arrow2Mend);filter:url(#dropshadow)" sodipodi:nodetypes="cc"/>
  <text xml:space="preserve" style="font-size:12px;font-style:normal;font-variant:normal;font-weight:normal;font-stretch:normal;line-height:125%;letter-spacing:0px;word-spacing:0px;fill:#ffffff;fill-opacity:1;stroke:none;font-family:Arial;-inkscape-font-specification:Arial" x="121.73829" y="161.39018" id="text3085" sodipodi:linespacing="125%"><tspan sodipodi:role="line" id="tspan3087" x="121.73829" y="161.39018">party</tspan></text>
  <g id="g3246" transform="translate(-151.01424,-12.809836)">
    <g transform="translate(8.2,25.2)" id="g3430">
      <path sodipodi:type="arc" id="path3044" sodipodi:cx="190" sodipodi:cy="324.09448" sodipodi:rx="40" sodipodi:ry="40" d="m 230,324.09448 c 0,22.09139 -17.90861,40 -40,40 -22.09139,0 -40,-17.90861 -40,-40 0,-22.09139 17.90861,-40 40,-40 22.09139,0 40,17.90861 40,40 z" transform="matrix(-1,0,0,1,388.5558,-193.86034)" class="circle" style="fill:#555555;stroke:#ffffff;stroke-width:2px;filter:url(#dropshadow)"/>
    </g>
    <text sodipodi:linespacing="125%" id="text3369" y="161.16071" x="179.96283" style="font-size:16px;font-style:normal;font-variant:normal;font-weight:normal;font-stretch:normal;line-height:125%;letter-spacing:0px;word-spacing:0px;fill:#ffffff;fill-opacity:1;stroke:none;font-family:Arial;-inkscape-font-specification:Arial" xml:space="preserve"><tspan y="161.16071" x="179.96283" id="tspan3371" sodipodi:role="line">Al Gore</tspan></text>
  </g>
  <text xml:space="preserve" x="21.738277" y="31.390175" id="text3252" sodipodi:linespacing="125%" style="font-size:12px;line-height:125%;fill:#ffffff;stroke:none;font-family:Arial"><tspan sodipodi:role="line" id="tspan3254" x="21.738277" y="31.390175">Politician</tspan></text>
  <text xml:space="preserve" x="41.050781" y="51.390175" id="text3256" sodipodi:linespacing="125%" style="font-size:12px;line-height:125%;fill:#ffffff;stroke:none;font-family:Arial"><tspan sodipodi:role="line" id="tspan3258" x="41.050781" y="51.390175">Party</tspan></text>
  <text xml:space="preserve" x="33.755856" y="71.390182" id="text3260" sodipodi:linespacing="125%" style="font-size:12px;line-height:125%;fill:#ffffff;stroke:none;font-family:Arial"><tspan sodipodi:role="line" id="tspan3262" x="33.755856" y="71.390182">Liberal</tspan></text>
  <text xml:space="preserve" x="-0.59765625" y="91.390182" id="text3264" sodipodi:linespacing="125%" style="font-size:12px;line-height:125%;fill:#ffffff;stroke:none;font-family:Arial"><tspan sodipodi:role="line" id="tspan3266" x="-0.59765625" y="91.390182">Conservative</tspan></text>
  <g transform="matrix(2.7992003,0,0,2.7992003,-32.191744,-38.704946)" id="g3325">
    <g id="content" transform="matrix(0.14285714,0,0,-0.14285714,-25,75)" xml:space="preserve" stroke-miterlimit="10.433" word-spacing="normal" style="word-spacing:normal;stroke-miterlimit:10.43299961"><path class="label" inkscape:connector-curvature="0" d="m 475,424.84 -0.13,-0.01 -0.12,-0.01 -0.13,-0.02 -0.12,-0.03 -0.12,-0.03 -0.12,-0.04 -0.11,-0.04 -0.11,-0.04 -0.11,-0.05 -0.1,-0.06 -0.1,-0.06 -0.1,-0.06 -0.09,-0.07 -0.09,-0.07 -0.09,-0.07 -0.08,-0.08 -0.08,-0.08 -0.07,-0.08 -0.07,-0.09 -0.06,-0.08 -0.06,-0.09 -0.06,-0.1 -0.05,-0.09 -0.04,-0.1 -0.04,-0.09 -0.04,-0.1 -0.03,-0.1 -0.02,-0.1 -0.02,-0.1 -0.02,-0.11 0,-0.1 -0.01,-0.1 c 0,-0.7 0.44,-1.44 1.55,-1.44 1.09,0 2.28,0.85 2.28,2.78 0,2.25 -2.14,4.28 -5.92,4.28 -6.58,0 -8.42,-5.07 -8.42,-7.26 0,-3.89 3.69,-4.64 5.12,-4.94 2.6,-0.5 5.19,-1.05 5.19,-3.78 0,-1.3 -1.14,-5.48 -7.12,-5.48 -0.71,0 -4.54,0 -5.69,2.64 1.9,-0.25 3.14,1.25 3.14,2.64 0,1.14 -0.8,1.75 -1.85,1.75 -1.29,0 -2.78,-1.05 -2.78,-3.3 0,-2.84 2.85,-4.83 7.13,-4.83 8.06,0 10.01,6.03 10.01,8.27 0,1.79 -0.95,3.04 -1.54,3.64 -1.35,1.39 -2.8,1.64 -4.99,2.09 -1.79,0.39 -3.78,0.75 -3.78,2.99 0,1.45 1.19,4.48 5.58,4.48 1.23,0 3.73,-0.34 4.48,-2.28 z" id="path3328" style="fill:#ffffff;stroke:#ffffff;stroke-width:0px"/><path class="label" inkscape:connector-curvature="0" d="m 490.22,420.54 0,0.05 -0.01,0.06 0,0.05 -0.01,0.06 -0.01,0.05 -0.02,0.06 -0.01,0.05 -0.02,0.06 -0.02,0.06 -0.03,0.05 -0.03,0.06 -0.03,0.05 -0.03,0.06 -0.04,0.05 -0.03,0.05 -0.05,0.05 -0.04,0.05 -0.05,0.05 -0.05,0.04 -0.05,0.05 -0.06,0.04 -0.06,0.03 -0.06,0.04 -0.06,0.03 -0.07,0.03 -0.07,0.03 -0.08,0.02 -0.07,0.02 -0.09,0.01 -0.08,0.01 -0.09,0.01 -0.09,0 c -0.93,0 -1.95,-0.91 -1.95,-1.92 0,-0.59 0.45,-1.33 1.41,-1.33 1,0 1.95,0.99 1.95,1.92 z" id="path3330" style="fill:#ffffff;stroke:#ffffff;stroke-width:0px"/><path class="label" inkscape:connector-curvature="0" d="m 483.11,402.84 -0.05,-0.17 -0.06,-0.17 -0.03,-0.08 -0.02,-0.09 -0.03,-0.08 -0.02,-0.09 -0.02,-0.09 -0.02,-0.09 -0.02,-0.1 -0.01,-0.09 -0.02,-0.1 0,-0.05 -0.01,-0.05 0,-0.06 0,-0.05 0,-0.05 0,-0.06 c 0,-1.64 1.39,-2.95 3.29,-2.95 3.49,0 5.03,4.79 5.03,5.33 0,0.45 -0.45,0.45 -0.56,0.45 -0.48,0 -0.53,-0.2 -0.67,-0.59 -0.8,-2.79 -2.33,-4.22 -3.69,-4.22 -0.7,0 -0.87,0.45 -0.87,1.22 0,0.79 0.25,1.46 0.56,2.23 0.34,0.94 0.73,1.87 1.11,2.78 0.31,0.84 1.58,4.02 1.72,4.44 0.09,0.34 0.2,0.76 0.2,1.11 0,1.64 -1.39,2.95 -3.31,2.95 -3.45,0 -5.05,-4.73 -5.05,-5.33 0,-0.45 0.49,-0.45 0.6,-0.45 0.48,0 0.51,0.17 0.62,0.56 0.91,3 2.44,4.25 3.72,4.25 0.56,0 0.88,-0.28 0.88,-1.22 0,-0.79 -0.21,-1.32 -1.08,-3.48 z" id="path3332" style="fill:#ffffff;stroke:#ffffff;stroke-width:0px"/></g>  </g>
  <g transform="matrix(2.5414939,0,0,2.5414939,78.775629,-34.88369)" id="g3456">
    <g stroke-miterlimit="10.433" xml:space="preserve" transform="matrix(0.14285714,0,0,-0.14285714,-25,75)" id="g3458" style="stroke-miterlimit:10.43299961"><path class="label" inkscape:connector-curvature="0" id="path3460" d="m 478.88,419.79 -0.01,0.48 -0.03,0.47 -0.05,0.46 -0.07,0.44 -0.09,0.44 -0.1,0.42 -0.13,0.4 -0.14,0.4 -0.15,0.38 -0.18,0.36 -0.19,0.36 -0.2,0.34 -0.22,0.32 -0.23,0.31 -0.25,0.3 -0.26,0.28 -0.28,0.26 -0.29,0.25 -0.3,0.24 -0.31,0.22 -0.32,0.2 -0.33,0.19 -0.35,0.17 -0.35,0.15 -0.37,0.13 -0.37,0.12 -0.38,0.1 -0.39,0.09 -0.4,0.06 -0.4,0.05 -0.41,0.03 -0.42,0 -0.05,-1.09 c 2.89,0 4.39,-2.39 4.39,-5.37 0,-1.96 -1,-7.18 -2.89,-10.43 -1.75,-2.89 -4.48,-4.57 -6.78,-4.57 h 0 c -2.14,0 -4.33,1.54 -4.33,5.43 0,2.44 1.3,7.82 2.89,10.36 2.49,3.83 5.33,4.58 6.72,4.58 l 0.05,1.09 c -6.67,0 -13.34,-7.06 -13.34,-14.14 0,-4.93 3.32,-8.42 7.97,-8.42 6.62,0 13.34,6.88 13.34,14.14 z" style="fill:#ffffff;stroke:#ffffff;stroke-width:0px"/><path class="label" inkscape:connector-curvature="0" id="path3462" d="m 494.94,420.54 0,0.06 -0.01,0.06 0,0.05 -0.01,0.06 -0.02,0.06 -0.01,0.06 -0.02,0.05 -0.02,0.06 -0.02,0.06 -0.03,0.05 -0.02,0.06 -0.04,0.05 -0.03,0.06 -0.04,0.05 -0.03,0.05 -0.05,0.05 -0.04,0.05 -0.05,0.04 -0.05,0.05 -0.05,0.04 -0.06,0.04 -0.06,0.03 -0.06,0.04 -0.06,0.03 -0.07,0.02 -0.07,0.03 -0.07,0.02 -0.07,0.02 -0.08,0.01 -0.08,0.01 -0.09,0.01 -0.08,0 c -1.02,0 -1.96,-0.98 -1.96,-1.92 0,-0.56 0.43,-1.33 1.39,-1.33 0.94,0 1.96,0.91 1.96,1.92 z" style="fill:#ffffff;stroke:#ffffff;stroke-width:0px"/><path class="label" inkscape:connector-curvature="0" id="path3464" d="m 487.55,397.06 -0.06,-0.23 -0.07,-0.22 -0.07,-0.22 -0.08,-0.21 -0.09,-0.21 -0.09,-0.21 -0.1,-0.21 -0.11,-0.2 -0.11,-0.19 -0.11,-0.19 -0.13,-0.19 -0.12,-0.18 -0.14,-0.17 -0.13,-0.17 -0.14,-0.16 -0.15,-0.15 -0.15,-0.15 -0.16,-0.14 -0.15,-0.13 -0.17,-0.13 -0.16,-0.11 -0.17,-0.11 -0.17,-0.1 -0.18,-0.09 -0.17,-0.08 -0.18,-0.07 -0.19,-0.06 -0.18,-0.05 -0.19,-0.04 -0.19,-0.03 -0.19,-0.02 -0.19,0 c -0.45,0 -0.87,0.06 -1.26,0.2 0.9,0.42 1.18,1.25 1.18,1.78 0,0.83 -0.65,1.28 -1.36,1.28 -1.07,0 -1.98,-0.94 -1.98,-2.04 0,-1.33 1.36,-2.21 3.45,-2.21 2.1,0 6.16,1.25 7.25,5.5 l 3.13,12.49 c 0.11,0.37 0.17,0.68 0.17,1.22 0,1.9 -1.62,3.26 -3.72,3.26 -3.87,0 -6.09,-4.84 -6.09,-5.33 0,-0.45 0.48,-0.45 0.59,-0.45 0.41,0 0.46,0.11 0.69,0.62 0.87,2.04 2.69,4.19 4.7,4.19 0.88,0 1.19,-0.59 1.19,-1.7 0,-0.39 -0.06,-0.88 -0.11,-1.05 z" style="fill:#ffffff;stroke:#ffffff;stroke-width:0px"/></g>  </g>
  <g id="g3751" transform="matrix(2.214314,0,0,2.214314,37.577346,69.207492)">
    <g stroke-miterlimit="10.433" xml:space="preserve" transform="matrix(0.14285714,0,0,-0.14285714,-25,75)" id="g3753" style="stroke-miterlimit:10.43299961"><path id="path3755" d="m 479.68,426.68 -4.18,9.91 c -0.15,0.41 -0.25,0.59 -0.25,0.64 0,0.31 0.85,1.25 2.94,1.45 0.5,0.05 1,0.1 1,0.96 0,0.59 -0.61,0.59 -0.75,0.59 -2.05,0 -4.19,-0.16 -6.28,-0.16 -1.25,0 -4.33,0.16 -5.58,0.16 -0.29,0 -0.9,0 -0.9,-1 0,-0.55 0.5,-0.55 1.15,-0.55 2.99,0 3.28,-0.5 3.74,-1.59 l 5.87,-13.91 -10.51,-11.31 -0.64,-0.55 c -2.44,-2.64 -4.79,-3.43 -7.33,-3.57 -0.64,-0.05 -1.1,-0.05 -1.1,-1 0,-0.05 0,-0.55 0.66,-0.55 1.48,0 3.12,0.16 4.67,0.16 1.85,0 3.8,-0.16 5.58,-0.16 0.31,0 0.91,0 0.91,1 0,0.5 -0.5,0.55 -0.6,0.55 -0.45,0.04 -2,0.14 -2,1.54 0,0.8 0.75,1.6 1.35,2.24 l 5.07,5.39 4.49,4.87 5.03,-11.9 c 0.2,-0.55 0.25,-0.6 0.25,-0.71 0,-0.39 -0.94,-1.23 -2.89,-1.43 -0.55,-0.05 -0.99,-0.11 -0.99,-0.96 0,-0.59 0.55,-0.59 0.74,-0.59 1.41,0 4.89,0.16 6.28,0.16 1.25,0 4.28,-0.16 5.53,-0.16 0.35,0 0.95,0 0.95,0.95 0,0.6 -0.5,0.6 -0.9,0.6 -3.33,0.04 -3.44,0.2 -4.28,2.18 -1.94,4.64 -5.28,12.41 -6.42,15.39 3.39,3.5 8.6,9.43 10.2,10.82 1.45,1.2 3.34,2.39 6.33,2.54 0.65,0.05 1.09,0.05 1.09,1 0,0.05 0,0.55 -0.64,0.55 -1.5,0 -3.14,-0.16 -4.69,-0.16 -1.84,0 -3.73,0.16 -5.53,0.16 -0.3,0 -0.94,0 -0.94,-1 0,-0.34 0.25,-0.5 0.6,-0.55 0.45,-0.04 2,-0.15 2,-1.54 0,-0.71 -0.55,-1.35 -0.96,-1.8 z" inkscape:connector-curvature="0" class="label" style="fill:#ffffff;stroke:#ffffff;stroke-width:0px"/><path id="path3757" d="m 508.1,420.54 0,0.05 -0.01,0.06 0,0.05 -0.01,0.06 -0.01,0.05 -0.02,0.06 -0.01,0.05 -0.02,0.06 -0.03,0.06 -0.02,0.05 -0.03,0.06 -0.03,0.05 -0.03,0.06 -0.04,0.05 -0.03,0.05 -0.05,0.05 -0.04,0.05 -0.05,0.05 -0.05,0.04 -0.05,0.05 -0.06,0.04 -0.06,0.03 -0.06,0.04 -0.06,0.03 -0.07,0.03 -0.07,0.03 -0.08,0.02 -0.08,0.02 -0.08,0.01 -0.08,0.01 -0.09,0.01 -0.09,0 c -0.94,0 -1.95,-0.91 -1.95,-1.92 0,-0.59 0.45,-1.33 1.4,-1.33 1,0 1.96,0.99 1.96,1.92 z" inkscape:connector-curvature="0" class="label" style="fill:#ffffff;stroke:#ffffff;stroke-width:0px"/><path id="path3759" d="m 500.99,402.84 -0.06,-0.17 -0.05,-0.17 -0.03,-0.08 -0.02,-0.09 -0.03,-0.08 -0.02,-0.09 -0.02,-0.09 -0.02,-0.09 -0.02,-0.1 -0.01,-0.09 -0.02,-0.1 0,-0.05 -0.01,-0.05 0,-0.06 0,-0.05 0,-0.05 0,-0.06 c 0,-1.64 1.39,-2.95 3.29,-2.95 3.49,0 5.03,4.79 5.03,5.33 0,0.45 -0.45,0.45 -0.56,0.45 -0.48,0 -0.53,-0.2 -0.67,-0.59 -0.8,-2.79 -2.33,-4.22 -3.69,-4.22 -0.7,0 -0.87,0.45 -0.87,1.22 0,0.79 0.25,1.46 0.56,2.23 0.34,0.94 0.73,1.87 1.11,2.78 0.31,0.84 1.58,4.02 1.72,4.44 0.09,0.34 0.2,0.76 0.2,1.11 0,1.64 -1.39,2.95 -3.31,2.95 -3.45,0 -5.05,-4.73 -5.05,-5.33 0,-0.45 0.49,-0.45 0.6,-0.45 0.48,0 0.51,0.17 0.62,0.56 0.91,3 2.44,4.25 3.72,4.25 0.56,0 0.87,-0.28 0.87,-1.22 0,-0.79 -0.2,-1.32 -1.07,-3.48 z" inkscape:connector-curvature="0" class="label" style="fill:#ffffff;stroke:#ffffff;stroke-width:0px"/><path id="path3761" d="m 526.14,420.54 0,0.06 -0.01,0.06 0,0.05 -0.01,0.06 -0.02,0.06 -0.01,0.06 -0.02,0.05 -0.02,0.06 -0.02,0.06 -0.03,0.05 -0.02,0.06 -0.04,0.05 -0.03,0.06 -0.04,0.05 -0.03,0.05 -0.05,0.05 -0.04,0.05 -0.05,0.04 -0.05,0.05 -0.05,0.04 -0.06,0.04 -0.06,0.03 -0.06,0.04 -0.06,0.03 -0.07,0.02 -0.07,0.03 -0.07,0.02 -0.07,0.02 -0.08,0.01 -0.08,0.01 -0.09,0.01 -0.08,0 c -1.02,0 -1.96,-0.98 -1.96,-1.92 0,-0.56 0.43,-1.33 1.39,-1.33 0.94,0 1.96,0.91 1.96,1.92 z" inkscape:connector-curvature="0" class="label" style="fill:#ffffff;stroke:#ffffff;stroke-width:0px"/><path id="path3763" d="m 518.75,397.06 -0.06,-0.23 -0.07,-0.22 -0.07,-0.22 -0.08,-0.21 -0.09,-0.21 -0.09,-0.21 -0.1,-0.21 -0.11,-0.2 -0.11,-0.19 -0.11,-0.19 -0.13,-0.19 -0.12,-0.18 -0.14,-0.17 -0.13,-0.17 -0.14,-0.16 -0.15,-0.15 -0.15,-0.15 -0.16,-0.14 -0.15,-0.13 -0.17,-0.13 -0.16,-0.11 -0.17,-0.11 -0.17,-0.1 -0.18,-0.09 -0.17,-0.08 -0.18,-0.07 -0.19,-0.06 -0.18,-0.05 -0.19,-0.04 -0.19,-0.03 -0.19,-0.02 -0.19,0 c -0.45,0 -0.87,0.06 -1.26,0.2 0.9,0.42 1.18,1.25 1.18,1.78 0,0.83 -0.65,1.28 -1.36,1.28 -1.07,0 -1.98,-0.94 -1.98,-2.04 0,-1.33 1.36,-2.21 3.45,-2.21 2.1,0 6.16,1.25 7.25,5.5 l 3.13,12.49 c 0.11,0.37 0.17,0.68 0.17,1.22 0,1.9 -1.62,3.26 -3.72,3.26 -3.87,0 -6.09,-4.84 -6.09,-5.33 0,-0.45 0.48,-0.45 0.59,-0.45 0.41,0 0.45,0.11 0.69,0.62 0.87,2.04 2.69,4.19 4.7,4.19 0.88,0 1.19,-0.59 1.19,-1.7 0,-0.39 -0.06,-0.88 -0.11,-1.05 z" inkscape:connector-curvature="0" class="label" style="fill:#ffffff;stroke:#ffffff;stroke-width:0px"/></g>  </g>
</svg>