<!-- Created with Inkscape (http://www.inkscape.org/) -->
<svg xmlns:dc="http://purl.org/dc/elements/1.1/" xmlns:cc="http://creativecommons.org/ns#" xmlns:rdf="http://www.w3.org/1999/02/22-rdf-syntax-ns#" xmlns:svg="http://www.w3.org/2000/svg" xmlns="http://www.w3.org/2000/svg" xmlns:sodipodi="http://sodipodi.sourceforge.net/DTD/sodipodi-0.dtd" xmlns:inkscape="http://www.inkscape.org/namespaces/inkscape" width="266.97403" height="337.61667" id="svg9493" version="1.1" inkscape:version="0.48.3.1 r9886" sodipodi:docname="mode1-fibers-white.svg" preserveAspectRatio="xMinYMin meet" viewBox="0 0 266.97403 337.61667">
  <defs id="defs9495"/>
  <sodipodi:namedview id="base" pagecolor="#000000" bordercolor="#666666" borderopacity="1.0" inkscape:pageopacity="0" inkscape:pageshadow="2" inkscape:zoom="0.35" inkscape:cx="303.4878" inkscape:cy="28.800456" inkscape:document-units="px" inkscape:current-layer="g7539" showgrid="false" fit-margin-top="0" fit-margin-left="0" fit-margin-right="0" fit-margin-bottom="0" inkscape:window-width="1364" inkscape:window-height="731" inkscape:window-x="0" inkscape:window-y="35" inkscape:window-maximized="1"/>
  <metadata id="metadata9498">
    <rdf:RDF>
      <cc:Work rdf:about="">
        <dc:format>image/svg+xml</dc:format>
        <dc:type rdf:resource="http://purl.org/dc/dcmitype/StillImage"/>
        <dc:title/>
      </cc:Work>
    </rdf:RDF>
  </metadata>
  <g inkscape:label="Ebene 1" inkscape:groupmode="layer" id="layer1" transform="translate(-403.65505,-337.83168)">
    <g id="g7539" transform="translate(343.37737,-49.65129)" style="stroke:#000000;stroke-opacity:1">
      <g id="g3912" transform="translate(-45.59188,21.259842)" style="stroke:#000000;stroke-opacity:1"/>
      <g id="g9826" style="stroke:#000000;stroke-opacity:1;fill:#ffffff;fill-opacity:1">
        <g style="stroke:#000000;stroke-opacity:1;fill:#ffffff;fill-opacity:1" id="g3824">
          <g style="fill:#ffffff;fill-opacity:1;stroke:#000000;stroke-linejoin:round;stroke-opacity:1" id="g2995">
            <path style="fill:#ffffff;fill-opacity:1;stroke:#000000;stroke-width:1px;stroke-linecap:butt;stroke-linejoin:round;stroke-opacity:1" d="m 151.97293,396.85037 0,212.59843 18.99662,8.85826 0,-212.59842 z" id="path2989" inkscape:connector-curvature="0"/>
            <path style="fill:#ffffff;fill-opacity:1;stroke:#000000;stroke-width:1px;stroke-linecap:butt;stroke-linejoin:round;stroke-opacity:1" d="m 151.97293,396.85037 18.99662,-8.85827 18.99661,8.85827 -18.99661,8.85827 z" id="path2991" inkscape:connector-curvature="0"/>
            <path style="fill:#ffffff;fill-opacity:1;stroke:#000000;stroke-width:1px;stroke-linecap:butt;stroke-linejoin:round;stroke-opacity:1" d="m 170.96955,618.30706 18.99661,-8.85826 0,-212.59843 -18.99661,8.85827 z" id="path2993" inkscape:connector-curvature="0"/>
          </g>
          <g transform="translate(22.795938,10.629921)" id="g3776" style="fill:#ffffff;fill-opacity:1;stroke:#000000;stroke-linejoin:round;stroke-opacity:1">
            <path inkscape:connector-curvature="0" id="path3778" d="m 151.97293,396.85037 0,212.59843 18.99662,8.85826 0,-212.59842 z" style="fill:#ffffff;fill-opacity:1;stroke:#000000;stroke-width:1px;stroke-linecap:butt;stroke-linejoin:round;stroke-opacity:1"/>
            <path inkscape:connector-curvature="0" id="path3780" d="m 151.97293,396.85037 18.99662,-8.85827 18.99661,8.85827 -18.99661,8.85827 z" style="fill:#ffffff;fill-opacity:1;stroke:#000000;stroke-width:1px;stroke-linecap:butt;stroke-linejoin:round;stroke-opacity:1"/>
            <path inkscape:connector-curvature="0" id="path3782" d="m 170.96955,618.30706 18.99661,-8.85826 0,-212.59843 -18.99661,8.85827 z" style="fill:#ffffff;fill-opacity:1;stroke:#000000;stroke-width:1px;stroke-linecap:butt;stroke-linejoin:round;stroke-opacity:1"/>
          </g>
          <g style="fill:#ffffff;fill-opacity:1;stroke:#000000;stroke-linejoin:round;stroke-opacity:1" id="g3784" transform="translate(45.591877,21.259842)">
            <path style="fill:#ffffff;fill-opacity:1;stroke:#000000;stroke-width:1px;stroke-linecap:butt;stroke-linejoin:round;stroke-opacity:1" d="m 151.97293,396.85037 0,212.59843 18.99662,8.85826 0,-212.59842 z" id="path3786" inkscape:connector-curvature="0"/>
            <path style="fill:#ffffff;fill-opacity:1;stroke:#000000;stroke-width:1px;stroke-linecap:butt;stroke-linejoin:round;stroke-opacity:1" d="m 151.97293,396.85037 18.99662,-8.85827 18.99661,8.85827 -18.99661,8.85827 z" id="path3788" inkscape:connector-curvature="0"/>
            <path style="fill:#ffffff;fill-opacity:1;stroke:#000000;stroke-width:1px;stroke-linecap:butt;stroke-linejoin:round;stroke-opacity:1" d="m 170.96955,618.30706 18.99661,-8.85826 0,-212.59843 -18.99661,8.85827 z" id="path3790" inkscape:connector-curvature="0"/>
          </g>
          <g transform="translate(68.387817,31.889763)" id="g3792" style="fill:#ffffff;fill-opacity:1;stroke:#000000;stroke-linejoin:round;stroke-opacity:1">
            <path inkscape:connector-curvature="0" id="path3794" d="m 151.97293,396.85037 0,212.59843 18.99662,8.85826 0,-212.59842 z" style="fill:#ffffff;fill-opacity:1;stroke:#000000;stroke-width:1px;stroke-linecap:butt;stroke-linejoin:round;stroke-opacity:1"/>
            <path inkscape:connector-curvature="0" id="path3796" d="m 151.97293,396.85037 18.99662,-8.85827 18.99661,8.85827 -18.99661,8.85827 z" style="fill:#ffffff;fill-opacity:1;stroke:#000000;stroke-width:1px;stroke-linecap:butt;stroke-linejoin:round;stroke-opacity:1"/>
            <path inkscape:connector-curvature="0" id="path3798" d="m 170.96955,618.30706 18.99661,-8.85826 0,-212.59843 -18.99661,8.85827 z" style="fill:#ffffff;fill-opacity:1;stroke:#000000;stroke-width:1px;stroke-linecap:butt;stroke-linejoin:round;stroke-opacity:1"/>
          </g>
          <g style="fill:#ffffff;fill-opacity:1;stroke:#000000;stroke-linejoin:round;stroke-opacity:1" id="g3800" transform="translate(91.183757,42.519684)">
            <path style="fill:#ffffff;fill-opacity:1;stroke:#000000;stroke-width:1px;stroke-linecap:butt;stroke-linejoin:round;stroke-opacity:1" d="m 151.97293,396.85037 0,212.59843 18.99662,8.85826 0,-212.59842 z" id="path3802" inkscape:connector-curvature="0"/>
            <path style="fill:#ffffff;fill-opacity:1;stroke:#000000;stroke-width:1px;stroke-linecap:butt;stroke-linejoin:round;stroke-opacity:1" d="m 151.97293,396.85037 18.99662,-8.85827 18.99661,8.85827 -18.99661,8.85827 z" id="path3804" inkscape:connector-curvature="0"/>
            <path style="fill:#ffffff;fill-opacity:1;stroke:#000000;stroke-width:1px;stroke-linecap:butt;stroke-linejoin:round;stroke-opacity:1" d="m 170.96955,618.30706 18.99661,-8.85826 0,-212.59843 -18.99661,8.85827 z" id="path3806" inkscape:connector-curvature="0"/>
          </g>
          <g transform="translate(113.9797,53.149606)" id="g3808" style="fill:#ffffff;fill-opacity:1;stroke:#000000;stroke-linejoin:round;stroke-opacity:1">
            <path inkscape:connector-curvature="0" id="path3810" d="m 151.97293,396.85037 0,212.59843 18.99662,8.85826 0,-212.59842 z" style="fill:#ffffff;fill-opacity:1;stroke:#000000;stroke-width:1px;stroke-linecap:butt;stroke-linejoin:round;stroke-opacity:1"/>
            <path inkscape:connector-curvature="0" id="path3812" d="m 151.97293,396.85037 18.99662,-8.85827 18.99661,8.85827 -18.99661,8.85827 z" style="fill:#ffffff;fill-opacity:1;stroke:#000000;stroke-width:1px;stroke-linecap:butt;stroke-linejoin:round;stroke-opacity:1"/>
            <path inkscape:connector-curvature="0" id="path3814" d="m 170.96955,618.30706 18.99661,-8.85826 0,-212.59843 -18.99661,8.85827 z" style="fill:#ffffff;fill-opacity:1;stroke:#000000;stroke-width:1px;stroke-linecap:butt;stroke-linejoin:round;stroke-opacity:1"/>
          </g>
          <g style="fill:#ffffff;fill-opacity:1;stroke:#000000;stroke-linejoin:round;stroke-opacity:1" id="g3816" transform="translate(136.77564,63.779527)">
            <path style="fill:#ffffff;fill-opacity:1;stroke:#000000;stroke-width:1px;stroke-linecap:butt;stroke-linejoin:round;stroke-opacity:1" d="m 151.97293,396.85037 0,212.59843 18.99662,8.85826 0,-212.59842 z" id="path3818" inkscape:connector-curvature="0"/>
            <path style="fill:#ffffff;fill-opacity:1;stroke:#000000;stroke-width:1px;stroke-linecap:butt;stroke-linejoin:round;stroke-opacity:1" d="m 151.97293,396.85037 18.99662,-8.85827 18.99661,8.85827 -18.99661,8.85827 z" id="path3820" inkscape:connector-curvature="0"/>
            <path style="fill:#ffffff;fill-opacity:1;stroke:#000000;stroke-width:1px;stroke-linecap:butt;stroke-linejoin:round;stroke-opacity:1" d="m 170.96955,618.30706 18.99661,-8.85826 0,-212.59843 -18.99661,8.85827 z" id="path3822" inkscape:connector-curvature="0"/>
          </g>
        </g>
        <g style="stroke:#000000;stroke-opacity:1;fill:#ffffff;fill-opacity:1" id="g3854" transform="translate(-22.79594,10.629921)">
          <g id="g3856" style="fill:#ffffff;fill-opacity:1;stroke:#000000;stroke-linejoin:round;stroke-opacity:1">
            <path inkscape:connector-curvature="0" id="path3858" d="m 151.97293,396.85037 0,212.59843 18.99662,8.85826 0,-212.59842 z" style="fill:#ffffff;fill-opacity:1;stroke:#000000;stroke-width:1px;stroke-linecap:butt;stroke-linejoin:round;stroke-opacity:1"/>
            <path inkscape:connector-curvature="0" id="path3860" d="m 151.97293,396.85037 18.99662,-8.85827 18.99661,8.85827 -18.99661,8.85827 z" style="fill:#ffffff;fill-opacity:1;stroke:#000000;stroke-width:1px;stroke-linecap:butt;stroke-linejoin:round;stroke-opacity:1"/>
            <path inkscape:connector-curvature="0" id="path3862" d="m 170.96955,618.30706 18.99661,-8.85826 0,-212.59843 -18.99661,8.85827 z" style="fill:#ffffff;fill-opacity:1;stroke:#000000;stroke-width:1px;stroke-linecap:butt;stroke-linejoin:round;stroke-opacity:1"/>
          </g>
          <g style="fill:#ffffff;fill-opacity:1;stroke:#000000;stroke-linejoin:round;stroke-opacity:1" id="g3864" transform="translate(22.795938,10.629921)">
            <path style="fill:#ffffff;fill-opacity:1;stroke:#000000;stroke-width:1px;stroke-linecap:butt;stroke-linejoin:round;stroke-opacity:1" d="m 151.97293,396.85037 0,212.59843 18.99662,8.85826 0,-212.59842 z" id="path3866" inkscape:connector-curvature="0"/>
            <path style="fill:#ffffff;fill-opacity:1;stroke:#000000;stroke-width:1px;stroke-linecap:butt;stroke-linejoin:round;stroke-opacity:1" d="m 151.97293,396.85037 18.99662,-8.85827 18.99661,8.85827 -18.99661,8.85827 z" id="path3868" inkscape:connector-curvature="0"/>
            <path style="fill:#ffffff;fill-opacity:1;stroke:#000000;stroke-width:1px;stroke-linecap:butt;stroke-linejoin:round;stroke-opacity:1" d="m 170.96955,618.30706 18.99661,-8.85826 0,-212.59843 -18.99661,8.85827 z" id="path3870" inkscape:connector-curvature="0"/>
          </g>
          <g transform="translate(45.591877,21.259842)" id="g3872" style="fill:#ffffff;fill-opacity:1;stroke:#000000;stroke-linejoin:round;stroke-opacity:1">
            <path inkscape:connector-curvature="0" id="path3874" d="m 151.97293,396.85037 0,212.59843 18.99662,8.85826 0,-212.59842 z" style="fill:#ffffff;fill-opacity:1;stroke:#000000;stroke-width:1px;stroke-linecap:butt;stroke-linejoin:round;stroke-opacity:1"/>
            <path inkscape:connector-curvature="0" id="path3876" d="m 151.97293,396.85037 18.99662,-8.85827 18.99661,8.85827 -18.99661,8.85827 z" style="fill:#ffffff;fill-opacity:1;stroke:#000000;stroke-width:1px;stroke-linecap:butt;stroke-linejoin:round;stroke-opacity:1"/>
            <path inkscape:connector-curvature="0" id="path3878" d="m 170.96955,618.30706 18.99661,-8.85826 0,-212.59843 -18.99661,8.85827 z" style="fill:#ffffff;fill-opacity:1;stroke:#000000;stroke-width:1px;stroke-linecap:butt;stroke-linejoin:round;stroke-opacity:1"/>
          </g>
          <g style="fill:#ffffff;fill-opacity:1;stroke:#000000;stroke-linejoin:round;stroke-opacity:1" id="g3880" transform="translate(68.387817,31.889763)">
            <path style="fill:#ffffff;fill-opacity:1;stroke:#000000;stroke-width:1px;stroke-linecap:butt;stroke-linejoin:round;stroke-opacity:1" d="m 151.97293,396.85037 0,212.59843 18.99662,8.85826 0,-212.59842 z" id="path3882" inkscape:connector-curvature="0"/>
            <path style="fill:#ffffff;fill-opacity:1;stroke:#000000;stroke-width:1px;stroke-linecap:butt;stroke-linejoin:round;stroke-opacity:1" d="m 151.97293,396.85037 18.99662,-8.85827 18.99661,8.85827 -18.99661,8.85827 z" id="path3884" inkscape:connector-curvature="0"/>
            <path style="fill:#ffffff;fill-opacity:1;stroke:#000000;stroke-width:1px;stroke-linecap:butt;stroke-linejoin:round;stroke-opacity:1" d="m 170.96955,618.30706 18.99661,-8.85826 0,-212.59843 -18.99661,8.85827 z" id="path3886" inkscape:connector-curvature="0"/>
          </g>
          <g transform="translate(91.183757,42.519684)" id="g3888" style="fill:#ffffff;fill-opacity:1;stroke:#000000;stroke-linejoin:round;stroke-opacity:1">
            <path inkscape:connector-curvature="0" id="path3890" d="m 151.97293,396.85037 0,212.59843 18.99662,8.85826 0,-212.59842 z" style="fill:#ffffff;fill-opacity:1;stroke:#000000;stroke-width:1px;stroke-linecap:butt;stroke-linejoin:round;stroke-opacity:1"/>
            <path inkscape:connector-curvature="0" id="path3892" d="m 151.97293,396.85037 18.99662,-8.85827 18.99661,8.85827 -18.99661,8.85827 z" style="fill:#ffffff;fill-opacity:1;stroke:#000000;stroke-width:1px;stroke-linecap:butt;stroke-linejoin:round;stroke-opacity:1"/>
            <path inkscape:connector-curvature="0" id="path3894" d="m 170.96955,618.30706 18.99661,-8.85826 0,-212.59843 -18.99661,8.85827 z" style="fill:#ffffff;fill-opacity:1;stroke:#000000;stroke-width:1px;stroke-linecap:butt;stroke-linejoin:round;stroke-opacity:1"/>
          </g>
          <g style="fill:#ffffff;fill-opacity:1;stroke:#000000;stroke-linejoin:round;stroke-opacity:1" id="g3896" transform="translate(113.9797,53.149606)">
            <path style="fill:#ffffff;fill-opacity:1;stroke:#000000;stroke-width:1px;stroke-linecap:butt;stroke-linejoin:round;stroke-opacity:1" d="m 151.97293,396.85037 0,212.59843 18.99662,8.85826 0,-212.59842 z" id="path3898" inkscape:connector-curvature="0"/>
            <path style="fill:#ffffff;fill-opacity:1;stroke:#000000;stroke-width:1px;stroke-linecap:butt;stroke-linejoin:round;stroke-opacity:1" d="m 151.97293,396.85037 18.99662,-8.85827 18.99661,8.85827 -18.99661,8.85827 z" id="path3900" inkscape:connector-curvature="0"/>
            <path style="fill:#ffffff;fill-opacity:1;stroke:#000000;stroke-width:1px;stroke-linecap:butt;stroke-linejoin:round;stroke-opacity:1" d="m 170.96955,618.30706 18.99661,-8.85826 0,-212.59843 -18.99661,8.85827 z" id="path3902" inkscape:connector-curvature="0"/>
          </g>
          <g transform="translate(136.77564,63.779527)" id="g3904" style="fill:#ffffff;fill-opacity:1;stroke:#000000;stroke-linejoin:round;stroke-opacity:1">
            <path inkscape:connector-curvature="0" id="path3906" d="m 151.97293,396.85037 0,212.59843 18.99662,8.85826 0,-212.59842 z" style="fill:#ffffff;fill-opacity:1;stroke:#000000;stroke-width:1px;stroke-linecap:butt;stroke-linejoin:round;stroke-opacity:1"/>
            <path inkscape:connector-curvature="0" id="path3908" d="m 151.97293,396.85037 18.99662,-8.85827 18.99661,8.85827 -18.99661,8.85827 z" style="fill:#ffffff;fill-opacity:1;stroke:#000000;stroke-width:1px;stroke-linecap:butt;stroke-linejoin:round;stroke-opacity:1"/>
            <path inkscape:connector-curvature="0" id="path3910" d="m 170.96955,618.30706 18.99661,-8.85826 0,-212.59843 -18.99661,8.85827 z" style="fill:#ffffff;fill-opacity:1;stroke:#000000;stroke-width:1px;stroke-linecap:butt;stroke-linejoin:round;stroke-opacity:1"/>
          </g>
        </g>
        <g style="stroke:#000000;stroke-opacity:1;fill:#ffffff;fill-opacity:1;stroke-linejoin:round" id="g3914" transform="translate(-45.59188,21.25984)">
          <path style="fill:#ffffff;fill-opacity:1;stroke:#000000;stroke-width:1px;stroke-linecap:butt;stroke-linejoin:round;stroke-opacity:1" d="m 151.97293,396.85037 0,212.59843 18.99662,8.85826 0,-212.59842 z" id="path3916" inkscape:connector-curvature="0"/>
          <path style="fill:#ffffff;fill-opacity:1;stroke:#000000;stroke-width:1px;stroke-linecap:butt;stroke-linejoin:round;stroke-opacity:1" d="m 151.97293,396.85037 18.99662,-8.85827 18.99661,8.85827 -18.99661,8.85827 z" id="path3918" inkscape:connector-curvature="0"/>
          <path style="fill:#ffffff;fill-opacity:1;stroke:#000000;stroke-width:1px;stroke-linecap:butt;stroke-linejoin:round;stroke-opacity:1" d="m 170.96955,618.30706 18.99661,-8.85826 0,-212.59843 -18.99661,8.85827 z" id="path3920" inkscape:connector-curvature="0"/>
        </g>
        <g transform="translate(-22.795942,31.88976)" id="g3922" style="stroke:#000000;stroke-opacity:1;fill:#ffffff;fill-opacity:1;stroke-linejoin:round">
          <path inkscape:connector-curvature="0" id="path3924" d="m 151.97293,396.85037 0,212.59843 18.99662,8.85826 0,-212.59842 z" style="fill:#ffffff;fill-opacity:1;stroke:#000000;stroke-width:1px;stroke-linecap:butt;stroke-linejoin:round;stroke-opacity:1"/>
          <path inkscape:connector-curvature="0" id="path3926" d="m 151.97293,396.85037 18.99662,-8.85827 18.99661,8.85827 -18.99661,8.85827 z" style="fill:#ffffff;fill-opacity:1;stroke:#000000;stroke-width:1px;stroke-linecap:butt;stroke-linejoin:round;stroke-opacity:1"/>
          <path inkscape:connector-curvature="0" id="path3928" d="m 170.96955,618.30706 18.99661,-8.85826 0,-212.59843 -18.99661,8.85827 z" style="fill:#ffffff;fill-opacity:1;stroke:#000000;stroke-width:1px;stroke-linecap:butt;stroke-linejoin:round;stroke-opacity:1"/>
        </g>
        <g style="stroke:#000000;stroke-opacity:1;fill:#ffffff;fill-opacity:1;stroke-linejoin:round" id="g3930" transform="translate(-3e-6,42.51968)">
          <path style="fill:#ffffff;fill-opacity:1;stroke:#000000;stroke-width:1px;stroke-linecap:butt;stroke-linejoin:round;stroke-opacity:1" d="m 151.97293,396.85037 0,212.59843 18.99662,8.85826 0,-212.59842 z" id="path3932" inkscape:connector-curvature="0"/>
          <path style="fill:#ffffff;fill-opacity:1;stroke:#000000;stroke-width:1px;stroke-linecap:butt;stroke-linejoin:round;stroke-opacity:1" d="m 151.97293,396.85037 18.99662,-8.85827 18.99661,8.85827 -18.99661,8.85827 z" id="path3934" inkscape:connector-curvature="0"/>
          <path style="fill:#ffffff;fill-opacity:1;stroke:#000000;stroke-width:1px;stroke-linecap:butt;stroke-linejoin:round;stroke-opacity:1" d="m 170.96955,618.30706 18.99661,-8.85826 0,-212.59843 -18.99661,8.85827 z" id="path3936" inkscape:connector-curvature="0"/>
        </g>
        <g transform="translate(22.795937,53.1496)" id="g3938" style="stroke:#000000;stroke-opacity:1;fill:#ffffff;fill-opacity:1;stroke-linejoin:round">
          <path inkscape:connector-curvature="0" id="path3940" d="m 151.97293,396.85037 0,212.59843 18.99662,8.85826 0,-212.59842 z" style="fill:#ffffff;fill-opacity:1;stroke:#000000;stroke-width:1px;stroke-linecap:butt;stroke-linejoin:round;stroke-opacity:1"/>
          <path inkscape:connector-curvature="0" id="path3942" d="m 151.97293,396.85037 18.99662,-8.85827 18.99661,8.85827 -18.99661,8.85827 z" style="fill:#ffffff;fill-opacity:1;stroke:#000000;stroke-width:1px;stroke-linecap:butt;stroke-linejoin:round;stroke-opacity:1"/>
          <path inkscape:connector-curvature="0" id="path3944" d="m 170.96955,618.30706 18.99661,-8.85826 0,-212.59843 -18.99661,8.85827 z" style="fill:#ffffff;fill-opacity:1;stroke:#000000;stroke-width:1px;stroke-linecap:butt;stroke-linejoin:round;stroke-opacity:1"/>
        </g>
        <g style="stroke:#000000;stroke-opacity:1;fill:#ffffff;fill-opacity:1;stroke-linejoin:round" id="g3946" transform="translate(45.591877,63.77953)">
          <path style="fill:#ffffff;fill-opacity:1;stroke:#000000;stroke-width:1px;stroke-linecap:butt;stroke-linejoin:round;stroke-opacity:1" d="m 151.97293,396.85037 0,212.59843 18.99662,8.85826 0,-212.59842 z" id="path3948" inkscape:connector-curvature="0"/>
          <path style="fill:#ffffff;fill-opacity:1;stroke:#000000;stroke-width:1px;stroke-linecap:butt;stroke-linejoin:round;stroke-opacity:1" d="m 151.97293,396.85037 18.99662,-8.85827 18.99661,8.85827 -18.99661,8.85827 z" id="path3950" inkscape:connector-curvature="0"/>
          <path style="fill:#ffffff;fill-opacity:1;stroke:#000000;stroke-width:1px;stroke-linecap:butt;stroke-linejoin:round;stroke-opacity:1" d="m 170.96955,618.30706 18.99661,-8.85826 0,-212.59843 -18.99661,8.85827 z" id="path3952" inkscape:connector-curvature="0"/>
        </g>
        <g transform="translate(68.38782,74.40945)" id="g3954" style="stroke:#000000;stroke-opacity:1;fill:#ffffff;fill-opacity:1;stroke-linejoin:round">
          <path inkscape:connector-curvature="0" id="path3956" d="m 151.97293,396.85037 0,212.59843 18.99662,8.85826 0,-212.59842 z" style="fill:#ffffff;fill-opacity:1;stroke:#000000;stroke-width:1px;stroke-linecap:butt;stroke-linejoin:round;stroke-opacity:1"/>
          <path inkscape:connector-curvature="0" id="path3958" d="m 151.97293,396.85037 18.99662,-8.85827 18.99661,8.85827 -18.99661,8.85827 z" style="fill:#ffffff;fill-opacity:1;stroke:#000000;stroke-width:1px;stroke-linecap:butt;stroke-linejoin:round;stroke-opacity:1"/>
          <path inkscape:connector-curvature="0" id="path3960" d="m 170.96955,618.30706 18.99661,-8.85826 0,-212.59843 -18.99661,8.85827 z" style="fill:#ffffff;fill-opacity:1;stroke:#000000;stroke-width:1px;stroke-linecap:butt;stroke-linejoin:round;stroke-opacity:1"/>
        </g>
        <g style="stroke:#000000;stroke-opacity:1;fill:#ffffff;fill-opacity:1;stroke-linejoin:round" id="g3962" transform="translate(91.18376,85.03937)">
          <path style="fill:#ffffff;fill-opacity:1;stroke:#000000;stroke-width:1px;stroke-linecap:butt;stroke-linejoin:round;stroke-opacity:1" d="m 151.97293,396.85037 0,212.59843 18.99662,8.85826 0,-212.59842 z" id="path3964" inkscape:connector-curvature="0"/>
          <path style="fill:#ffffff;fill-opacity:1;stroke:#000000;stroke-width:1px;stroke-linecap:butt;stroke-linejoin:round;stroke-opacity:1" d="m 151.97293,396.85037 18.99662,-8.85827 18.99661,8.85827 -18.99661,8.85827 z" id="path3966" inkscape:connector-curvature="0"/>
          <path style="fill:#ffffff;fill-opacity:1;stroke:#000000;stroke-width:1px;stroke-linecap:butt;stroke-linejoin:round;stroke-opacity:1" d="m 170.96955,618.30706 18.99661,-8.85826 0,-212.59843 -18.99661,8.85827 z" id="path3968" inkscape:connector-curvature="0"/>
        </g>
        <g style="stroke:#000000;stroke-opacity:1;fill:#ffffff;fill-opacity:1" id="g3970" transform="translate(-68.387815,31.889766)">
          <g id="g3972" style="fill:#ffffff;fill-opacity:1;stroke:#000000;stroke-linejoin:round;stroke-opacity:1">
            <path inkscape:connector-curvature="0" id="path3974" d="m 151.97293,396.85037 0,212.59843 18.99662,8.85826 0,-212.59842 z" style="fill:#ffffff;fill-opacity:1;stroke:#000000;stroke-width:1px;stroke-linecap:butt;stroke-linejoin:round;stroke-opacity:1"/>
            <path inkscape:connector-curvature="0" id="path3976" d="m 151.97293,396.85037 18.99662,-8.85827 18.99661,8.85827 -18.99661,8.85827 z" style="fill:#ffffff;fill-opacity:1;stroke:#000000;stroke-width:1px;stroke-linecap:butt;stroke-linejoin:round;stroke-opacity:1"/>
            <path inkscape:connector-curvature="0" id="path3978" d="m 170.96955,618.30706 18.99661,-8.85826 0,-212.59843 -18.99661,8.85827 z" style="fill:#ffffff;fill-opacity:1;stroke:#000000;stroke-width:1px;stroke-linecap:butt;stroke-linejoin:round;stroke-opacity:1"/>
          </g>
          <g style="fill:#ffffff;fill-opacity:1;stroke:#000000;stroke-linejoin:round;stroke-opacity:1" id="g3980" transform="translate(22.795938,10.629921)">
            <path style="fill:#ffffff;fill-opacity:1;stroke:#000000;stroke-width:1px;stroke-linecap:butt;stroke-linejoin:round;stroke-opacity:1" d="m 151.97293,396.85037 0,212.59843 18.99662,8.85826 0,-212.59842 z" id="path3982" inkscape:connector-curvature="0"/>
            <path style="fill:#ffffff;fill-opacity:1;stroke:#000000;stroke-width:1px;stroke-linecap:butt;stroke-linejoin:round;stroke-opacity:1" d="m 151.97293,396.85037 18.99662,-8.85827 18.99661,8.85827 -18.99661,8.85827 z" id="path3984" inkscape:connector-curvature="0"/>
            <path style="fill:#ffffff;fill-opacity:1;stroke:#000000;stroke-width:1px;stroke-linecap:butt;stroke-linejoin:round;stroke-opacity:1" d="m 170.96955,618.30706 18.99661,-8.85826 0,-212.59843 -18.99661,8.85827 z" id="path3986" inkscape:connector-curvature="0"/>
          </g>
          <g transform="translate(45.591877,21.259842)" id="g3988" style="fill:#ffffff;fill-opacity:1;stroke:#000000;stroke-linejoin:round;stroke-opacity:1">
            <path inkscape:connector-curvature="0" id="path3990" d="m 151.97293,396.85037 0,212.59843 18.99662,8.85826 0,-212.59842 z" style="fill:#ffffff;fill-opacity:1;stroke:#000000;stroke-width:1px;stroke-linecap:butt;stroke-linejoin:round;stroke-opacity:1"/>
            <path inkscape:connector-curvature="0" id="path3992" d="m 151.97293,396.85037 18.99662,-8.85827 18.99661,8.85827 -18.99661,8.85827 z" style="fill:#ffffff;fill-opacity:1;stroke:#000000;stroke-width:1px;stroke-linecap:butt;stroke-linejoin:round;stroke-opacity:1"/>
            <path inkscape:connector-curvature="0" id="path3994" d="m 170.96955,618.30706 18.99661,-8.85826 0,-212.59843 -18.99661,8.85827 z" style="fill:#ffffff;fill-opacity:1;stroke:#000000;stroke-width:1px;stroke-linecap:butt;stroke-linejoin:round;stroke-opacity:1"/>
          </g>
          <g style="fill:#ffffff;fill-opacity:1;stroke:#000000;stroke-linejoin:round;stroke-opacity:1" id="g3996" transform="translate(68.387817,31.889763)">
            <path style="fill:#ffffff;fill-opacity:1;stroke:#000000;stroke-width:1px;stroke-linecap:butt;stroke-linejoin:round;stroke-opacity:1" d="m 151.97293,396.85037 0,212.59843 18.99662,8.85826 0,-212.59842 z" id="path3998" inkscape:connector-curvature="0"/>
            <path style="fill:#ffffff;fill-opacity:1;stroke:#000000;stroke-width:1px;stroke-linecap:butt;stroke-linejoin:round;stroke-opacity:1" d="m 151.97293,396.85037 18.99662,-8.85827 18.99661,8.85827 -18.99661,8.85827 z" id="path4000" inkscape:connector-curvature="0"/>
            <path style="fill:#ffffff;fill-opacity:1;stroke:#000000;stroke-width:1px;stroke-linecap:butt;stroke-linejoin:round;stroke-opacity:1" d="m 170.96955,618.30706 18.99661,-8.85826 0,-212.59843 -18.99661,8.85827 z" id="path4002" inkscape:connector-curvature="0"/>
          </g>
          <g transform="translate(91.183757,42.519684)" id="g4004" style="fill:#ffffff;fill-opacity:1;stroke:#000000;stroke-linejoin:round;stroke-opacity:1">
            <path inkscape:connector-curvature="0" id="path4006" d="m 151.97293,396.85037 0,212.59843 18.99662,8.85826 0,-212.59842 z" style="fill:#ffffff;fill-opacity:1;stroke:#000000;stroke-width:1px;stroke-linecap:butt;stroke-linejoin:round;stroke-opacity:1"/>
            <path inkscape:connector-curvature="0" id="path4008" d="m 151.97293,396.85037 18.99662,-8.85827 18.99661,8.85827 -18.99661,8.85827 z" style="fill:#ffffff;fill-opacity:1;stroke:#000000;stroke-width:1px;stroke-linecap:butt;stroke-linejoin:round;stroke-opacity:1"/>
            <path inkscape:connector-curvature="0" id="path4010" d="m 170.96955,618.30706 18.99661,-8.85826 0,-212.59843 -18.99661,8.85827 z" style="fill:#ffffff;fill-opacity:1;stroke:#000000;stroke-width:1px;stroke-linecap:butt;stroke-linejoin:round;stroke-opacity:1"/>
          </g>
          <g style="fill:#ffffff;fill-opacity:1;stroke:#000000;stroke-linejoin:round;stroke-opacity:1" id="g4012" transform="translate(113.9797,53.149606)">
            <path style="fill:#ffffff;fill-opacity:1;stroke:#000000;stroke-width:1px;stroke-linecap:butt;stroke-linejoin:round;stroke-opacity:1" d="m 151.97293,396.85037 0,212.59843 18.99662,8.85826 0,-212.59842 z" id="path4014" inkscape:connector-curvature="0"/>
            <path style="fill:#ffffff;fill-opacity:1;stroke:#000000;stroke-width:1px;stroke-linecap:butt;stroke-linejoin:round;stroke-opacity:1" d="m 151.97293,396.85037 18.99662,-8.85827 18.99661,8.85827 -18.99661,8.85827 z" id="path4016" inkscape:connector-curvature="0"/>
            <path style="fill:#ffffff;fill-opacity:1;stroke:#000000;stroke-width:1px;stroke-linecap:butt;stroke-linejoin:round;stroke-opacity:1" d="m 170.96955,618.30706 18.99661,-8.85826 0,-212.59843 -18.99661,8.85827 z" id="path4018" inkscape:connector-curvature="0"/>
          </g>
          <g transform="translate(136.77564,63.779527)" id="g4020" style="fill:#ffffff;fill-opacity:1;stroke:#000000;stroke-linejoin:round;stroke-opacity:1">
            <path inkscape:connector-curvature="0" id="path4022" d="m 151.97293,396.85037 0,212.59843 18.99662,8.85826 0,-212.59842 z" style="fill:#ffffff;fill-opacity:1;stroke:#000000;stroke-width:1px;stroke-linecap:butt;stroke-linejoin:round;stroke-opacity:1"/>
            <path inkscape:connector-curvature="0" id="path4024" d="m 151.97293,396.85037 18.99662,-8.85827 18.99661,8.85827 -18.99661,8.85827 z" style="fill:#ffffff;fill-opacity:1;stroke:#000000;stroke-width:1px;stroke-linecap:butt;stroke-linejoin:round;stroke-opacity:1"/>
            <path inkscape:connector-curvature="0" id="path4026" d="m 170.96955,618.30706 18.99661,-8.85826 0,-212.59843 -18.99661,8.85827 z" style="fill:#ffffff;fill-opacity:1;stroke:#000000;stroke-width:1px;stroke-linecap:butt;stroke-linejoin:round;stroke-opacity:1"/>
          </g>
        </g>
        <g style="stroke:#000000;stroke-opacity:1;fill:#ffffff;fill-opacity:1" transform="translate(-91.183755,42.519687)" id="g4028">
          <g style="fill:#ffffff;fill-opacity:1;stroke:#000000;stroke-linejoin:round;stroke-opacity:1" id="g4030">
            <path style="fill:#ffffff;fill-opacity:1;stroke:#000000;stroke-width:1px;stroke-linecap:butt;stroke-linejoin:round;stroke-opacity:1" d="m 151.97293,396.85037 0,212.59843 18.99662,8.85826 0,-212.59842 z" id="path4032" inkscape:connector-curvature="0"/>
            <path style="fill:#ffffff;fill-opacity:1;stroke:#000000;stroke-width:1px;stroke-linecap:butt;stroke-linejoin:round;stroke-opacity:1" d="m 151.97293,396.85037 18.99662,-8.85827 18.99661,8.85827 -18.99661,8.85827 z" id="path4034" inkscape:connector-curvature="0"/>
            <path style="fill:#ffffff;fill-opacity:1;stroke:#000000;stroke-width:1px;stroke-linecap:butt;stroke-linejoin:round;stroke-opacity:1" d="m 170.96955,618.30706 18.99661,-8.85826 0,-212.59843 -18.99661,8.85827 z" id="path4036" inkscape:connector-curvature="0"/>
          </g>
          <g transform="translate(22.795938,10.629921)" id="g4038" style="fill:#ffffff;fill-opacity:1;stroke:#000000;stroke-linejoin:round;stroke-opacity:1">
            <path inkscape:connector-curvature="0" id="path4040" d="m 151.97293,396.85037 0,212.59843 18.99662,8.85826 0,-212.59842 z" style="fill:#ffffff;fill-opacity:1;stroke:#000000;stroke-width:1px;stroke-linecap:butt;stroke-linejoin:round;stroke-opacity:1"/>
            <path inkscape:connector-curvature="0" id="path4042" d="m 151.97293,396.85037 18.99662,-8.85827 18.99661,8.85827 -18.99661,8.85827 z" style="fill:#ffffff;fill-opacity:1;stroke:#000000;stroke-width:1px;stroke-linecap:butt;stroke-linejoin:round;stroke-opacity:1"/>
            <path inkscape:connector-curvature="0" id="path4044" d="m 170.96955,618.30706 18.99661,-8.85826 0,-212.59843 -18.99661,8.85827 z" style="fill:#ffffff;fill-opacity:1;stroke:#000000;stroke-width:1px;stroke-linecap:butt;stroke-linejoin:round;stroke-opacity:1"/>
          </g>
          <g style="fill:#ffffff;fill-opacity:1;stroke:#000000;stroke-linejoin:round;stroke-opacity:1" id="g4046" transform="translate(45.591877,21.259842)">
            <path style="fill:#ffffff;fill-opacity:1;stroke:#000000;stroke-width:1px;stroke-linecap:butt;stroke-linejoin:round;stroke-opacity:1" d="m 151.97293,396.85037 0,212.59843 18.99662,8.85826 0,-212.59842 z" id="path4048" inkscape:connector-curvature="0"/>
            <path style="fill:#ffffff;fill-opacity:1;stroke:#000000;stroke-width:1px;stroke-linecap:butt;stroke-linejoin:round;stroke-opacity:1" d="m 151.97293,396.85037 18.99662,-8.85827 18.99661,8.85827 -18.99661,8.85827 z" id="path4050" inkscape:connector-curvature="0"/>
            <path style="fill:#ffffff;fill-opacity:1;stroke:#000000;stroke-width:1px;stroke-linecap:butt;stroke-linejoin:round;stroke-opacity:1" d="m 170.96955,618.30706 18.99661,-8.85826 0,-212.59843 -18.99661,8.85827 z" id="path4052" inkscape:connector-curvature="0"/>
          </g>
          <g transform="translate(68.387817,31.889763)" id="g4054" style="fill:#ffffff;fill-opacity:1;stroke:#000000;stroke-linejoin:round;stroke-opacity:1">
            <path inkscape:connector-curvature="0" id="path4056" d="m 151.97293,396.85037 0,212.59843 18.99662,8.85826 0,-212.59842 z" style="fill:#ffffff;fill-opacity:1;stroke:#000000;stroke-width:1px;stroke-linecap:butt;stroke-linejoin:round;stroke-opacity:1"/>
            <path inkscape:connector-curvature="0" id="path4058" d="m 151.97293,396.85037 18.99662,-8.85827 18.99661,8.85827 -18.99661,8.85827 z" style="fill:#ffffff;fill-opacity:1;stroke:#000000;stroke-width:1px;stroke-linecap:butt;stroke-linejoin:round;stroke-opacity:1"/>
            <path inkscape:connector-curvature="0" id="path4060" d="m 170.96955,618.30706 18.99661,-8.85826 0,-212.59843 -18.99661,8.85827 z" style="fill:#ffffff;fill-opacity:1;stroke:#000000;stroke-width:1px;stroke-linecap:butt;stroke-linejoin:round;stroke-opacity:1"/>
          </g>
          <g style="fill:#ffffff;fill-opacity:1;stroke:#000000;stroke-linejoin:round;stroke-opacity:1" id="g4062" transform="translate(91.183757,42.519684)">
            <path style="fill:#ffffff;fill-opacity:1;stroke:#000000;stroke-width:1px;stroke-linecap:butt;stroke-linejoin:round;stroke-opacity:1" d="m 151.97293,396.85037 0,212.59843 18.99662,8.85826 0,-212.59842 z" id="path4064" inkscape:connector-curvature="0"/>
            <path style="fill:#ffffff;fill-opacity:1;stroke:#000000;stroke-width:1px;stroke-linecap:butt;stroke-linejoin:round;stroke-opacity:1" d="m 151.97293,396.85037 18.99662,-8.85827 18.99661,8.85827 -18.99661,8.85827 z" id="path4066" inkscape:connector-curvature="0"/>
            <path style="fill:#ffffff;fill-opacity:1;stroke:#000000;stroke-width:1px;stroke-linecap:butt;stroke-linejoin:round;stroke-opacity:1" d="m 170.96955,618.30706 18.99661,-8.85826 0,-212.59843 -18.99661,8.85827 z" id="path4068" inkscape:connector-curvature="0"/>
          </g>
          <g transform="translate(113.9797,53.149606)" id="g4070" style="fill:#ffffff;fill-opacity:1;stroke:#000000;stroke-linejoin:round;stroke-opacity:1">
            <path inkscape:connector-curvature="0" id="path4072" d="m 151.97293,396.85037 0,212.59843 18.99662,8.85826 0,-212.59842 z" style="fill:#ffffff;fill-opacity:1;stroke:#000000;stroke-width:1px;stroke-linecap:butt;stroke-linejoin:round;stroke-opacity:1"/>
            <path inkscape:connector-curvature="0" id="path4074" d="m 151.97293,396.85037 18.99662,-8.85827 18.99661,8.85827 -18.99661,8.85827 z" style="fill:#ffffff;fill-opacity:1;stroke:#000000;stroke-width:1px;stroke-linecap:butt;stroke-linejoin:round;stroke-opacity:1"/>
            <path inkscape:connector-curvature="0" id="path4076" d="m 170.96955,618.30706 18.99661,-8.85826 0,-212.59843 -18.99661,8.85827 z" style="fill:#ffffff;fill-opacity:1;stroke:#000000;stroke-width:1px;stroke-linecap:butt;stroke-linejoin:round;stroke-opacity:1"/>
          </g>
          <g style="fill:#ffffff;fill-opacity:1;stroke:#000000;stroke-linejoin:round;stroke-opacity:1" id="g4078" transform="translate(136.77564,63.779527)">
            <path style="fill:#ffffff;fill-opacity:1;stroke:#000000;stroke-width:1px;stroke-linecap:butt;stroke-linejoin:round;stroke-opacity:1" d="m 151.97293,396.85037 0,212.59843 18.99662,8.85826 0,-212.59842 z" id="path4080" inkscape:connector-curvature="0"/>
            <path style="fill:#ffffff;fill-opacity:1;stroke:#000000;stroke-width:1px;stroke-linecap:butt;stroke-linejoin:round;stroke-opacity:1" d="m 151.97293,396.85037 18.99662,-8.85827 18.99661,8.85827 -18.99661,8.85827 z" id="path4082" inkscape:connector-curvature="0"/>
            <path style="fill:#ffffff;fill-opacity:1;stroke:#000000;stroke-width:1px;stroke-linecap:butt;stroke-linejoin:round;stroke-opacity:1" d="m 170.96955,618.30706 18.99661,-8.85826 0,-212.59843 -18.99661,8.85827 z" id="path4084" inkscape:connector-curvature="0"/>
          </g>
        </g>
      </g>
    </g>
  </g>
</svg>