<?xml version="1.0" encoding="UTF-8" standalone="no"?>
<!-- Created with Inkscape (http://www.inkscape.org/) -->
<svg xmlns:dc="http://purl.org/dc/elements/1.1/" xmlns:cc="http://creativecommons.org/ns#" xmlns:rdf="http://www.w3.org/1999/02/22-rdf-syntax-ns#" xmlns:svg="http://www.w3.org/2000/svg" xmlns="http://www.w3.org/2000/svg" xmlns:sodipodi="http://sodipodi.sourceforge.net/DTD/sodipodi-0.dtd" xmlns:inkscape="http://www.inkscape.org/namespaces/inkscape" id="svg67046" version="1.1" inkscape:version="0.48.3.1 r9886" sodipodi:docname="tensor-indexing.svg" preserveAspectRatio="xMinYMin meet" viewBox="0 0 266.95264 270.29134" width="100%" height="100%">
  <defs id="defs67048">
    <marker style="overflow:visible" id="DotSe" refX="0" refY="0" orient="auto" inkscape:stockid="DotSe">
      <path inkscape:connector-curvature="0" transform="matrix(0.2,0,0,0.2,1.48,0.2)" style="fill:#fff500;fill-rule:evenodd;stroke:#fff500;stroke-width:1pt" d="m -2.5,-1 c 0,2.76 -2.24,5 -5,5 -2.76,0 -5,-2.24 -5,-5 0,-2.76 2.24,-5 5,-5 2.76,0 5,2.24 5,5 z" id="path62196"/>
    </marker>
    <marker inkscape:stockid="TriangleOutSi" orient="auto" refY="0" refX="0" id="TriangleOutSi" style="overflow:visible">
      <path inkscape:connector-curvature="0" id="path62199" d="m 5.77,0 -8.65,5 0,-10 8.65,5 z" style="fill:#fff500;fill-rule:evenodd;stroke:#fff500;stroke-width:1pt" transform="scale(0.2,0.2)"/>
    </marker>
    <marker inkscape:stockid="TriangleInSF" orient="auto" refY="0" refX="0" id="TriangleInSF" style="overflow:visible">
      <path inkscape:connector-curvature="0" id="path56906" d="m 5.77,0 -8.65,5 0,-10 8.65,5 z" style="fill:#79ff00;fill-rule:evenodd;stroke:#79ff00;stroke-width:1pt" transform="scale(-0.2,-0.2)"/>
    </marker>
    <marker style="overflow:visible" id="DotSo" refX="0" refY="0" orient="auto" inkscape:stockid="DotSo">
      <path inkscape:connector-curvature="0" transform="matrix(0.2,0,0,0.2,1.48,0.2)" style="fill:#79ff00;fill-rule:evenodd;stroke:#79ff00;stroke-width:1pt" d="m -2.5,-1 c 0,2.76 -2.24,5 -5,5 -2.76,0 -5,-2.24 -5,-5 0,-2.76 2.24,-5 5,-5 2.76,0 5,2.24 5,5 z" id="path56909"/>
    </marker>
    <marker style="overflow:visible" id="DotSl" refX="0" refY="0" orient="auto" inkscape:stockid="DotSl">
      <path inkscape:connector-curvature="0" transform="matrix(0.2,0,0,0.2,1.48,0.2)" style="fill:#ff0000;fill-rule:evenodd;stroke:#ff0000;stroke-width:1pt" d="m -2.5,-1 c 0,2.76 -2.24,5 -5,5 -2.76,0 -5,-2.24 -5,-5 0,-2.76 2.24,-5 5,-5 2.76,0 5,2.24 5,5 z" id="path51420"/>
    </marker>
    <marker inkscape:stockid="TriangleOutS5X" orient="auto" refY="0" refX="0" id="TriangleOutS5X" style="overflow:visible">
      <path inkscape:connector-curvature="0" id="path51423" d="m 5.77,0 -8.65,5 0,-10 8.65,5 z" style="fill:#ff0000;fill-rule:evenodd;stroke:#ff0000;stroke-width:1pt" transform="scale(0.2,0.2)"/>
    </marker>
  </defs>
  <sodipodi:namedview id="base" pagecolor="#ffffff" bordercolor="#666666" borderopacity="1.0" inkscape:pageopacity="0.0" inkscape:pageshadow="2" inkscape:zoom="1.4" inkscape:cx="189.68861" inkscape:cy="103.05942" inkscape:document-units="px" inkscape:current-layer="layer1" showgrid="true" fit-margin-top="0" fit-margin-left="0" fit-margin-right="0" fit-margin-bottom="0" inkscape:window-width="1364" inkscape:window-height="750" inkscape:window-x="0" inkscape:window-y="16" inkscape:window-maximized="1">
    <inkscape:grid type="axonomgrid" id="grid6862" units="mm" empspacing="5" visible="true" enabled="true" snapvisiblegridlinesonly="true" gridanglex="25" gridanglez="25" originx="0.14112522mm" originy="-18.358889mm"/>
  </sodipodi:namedview>
  <metadata id="metadata67051">
    <rdf:RDF>
      <cc:Work rdf:about="">
        <dc:format>image/svg+xml</dc:format>
        <dc:type rdf:resource="http://purl.org/dc/dcmitype/StillImage"/>
        <dc:title/>
      </cc:Work>
    </rdf:RDF>
  </metadata>
  <g inkscape:label="Ebene 1" inkscape:groupmode="layer" id="layer1" transform="translate(-160.31139,-225.84456)">
    <g transform="translate(-1073.9687,155.47844)" id="g6524">
      <g transform="translate(1006.8207,-713.97638)" style="fill:#ffffff;fill-opacity:1;stroke:#000000;stroke-linejoin:round;stroke-opacity:1" id="g6516">
        <path sodipodi:nodetypes="ccccc" style="fill:#ffffff;fill-opacity:1;stroke:#000000;stroke-width:1px;stroke-linecap:butt;stroke-linejoin:round;stroke-opacity:1" d="m 227.95939,836.22045 0,145.27559 155.77226,72.63776 0,-145.27555 z" id="path6518" inkscape:connector-curvature="0"/>
        <path style="fill:#ffffff;fill-opacity:1;stroke:#000000;stroke-width:1px;stroke-linecap:butt;stroke-linejoin:round;stroke-opacity:1" d="M 227.9594,836.22045 338.13978,784.8425 493.91203,857.48029 383.73166,908.85825 z" id="path6520" inkscape:connector-curvature="0"/>
        <path sodipodi:nodetypes="ccccc" style="fill:#ffffff;fill-opacity:1;stroke:#000000;stroke-width:1px;stroke-linecap:butt;stroke-linejoin:round;stroke-opacity:1" d="m 383.73165,745.86614 110.18037,-51.37796 1e-5,-145.27559 -110.18038,51.37796 z" id="path6522" inkscape:connector-curvature="0" transform="translate(0,308.2677)"/>
      </g>
    </g>
    <path style="fill:none;stroke:#ff0000;stroke-width:5;stroke-linecap:butt;stroke-linejoin:miter;stroke-miterlimit:2;stroke-opacity:1;stroke-dasharray:none;marker-start:url(#DotSl);marker-end:url(#TriangleOutS5X)" d="m 267.19248,277.72253 0,106.29921" id="path45952" inkscape:connector-curvature="0"/>
    <g transform="translate(1.2398562,632.05327)" id="g45703" style="fill:#00e2ff;fill-opacity:1;stroke:#000000;stroke-width:1;stroke-linejoin:round;stroke-miterlimit:4;stroke-opacity:1;stroke-dasharray:none;stroke-dashoffset:0">
      <path transform="translate(0,308.2677)" inkscape:connector-curvature="0" id="path45697" d="m 246.95601,-540.35434 0,17.71654 18.99662,8.85827 0,-17.71654 z" style="fill:#00e2ff;fill-opacity:1;stroke:#000000;stroke-width:1;stroke-linecap:butt;stroke-linejoin:round;stroke-miterlimit:4;stroke-opacity:1;stroke-dasharray:none;stroke-dashoffset:0"/>
      <path transform="translate(0,308.2677)" inkscape:connector-curvature="0" id="path45699" d="m 246.95601,-540.35434 18.99662,-8.85826 18.99662,8.85826 -18.99662,8.85827 z" style="fill:#00e2ff;fill-opacity:1;stroke:#000000;stroke-width:1;stroke-linecap:butt;stroke-linejoin:round;stroke-miterlimit:4;stroke-opacity:1;stroke-dasharray:none;stroke-dashoffset:0"/>
      <path transform="translate(0,308.2677)" inkscape:connector-curvature="0" id="path45701" d="m 265.95263,-513.77953 0,-17.71654 18.99662,-8.85827 0,17.71654 z" style="fill:#00e2ff;fill-opacity:1;stroke:#000000;stroke-width:1;stroke-linecap:butt;stroke-linejoin:round;stroke-miterlimit:4;stroke-opacity:1;stroke-dasharray:none;stroke-dashoffset:0"/>
    </g>
    <path style="fill:#f0ff0e;stroke:#79ff00;stroke-width:5;stroke-linecap:butt;stroke-linejoin:miter;stroke-miterlimit:4;stroke-opacity:1;stroke-dasharray:none;marker-start:url(#TriangleInSF);marker-end:url(#DotSo)" d="M 240.59723,396.42332 172.20941,364.53355" id="path56205" inkscape:connector-curvature="0"/>
    <g transform="translate(1.2398562,632.05327)" id="g45718" style="fill:none;stroke:#000000;stroke-width:1;stroke-linejoin:round;stroke-miterlimit:4;stroke-opacity:1;stroke-dasharray:1.00000002, 1.00000002;stroke-dashoffset:0">
      <g style="fill:none;stroke:#000000;stroke-width:1;stroke-linejoin:round;stroke-miterlimit:4;stroke-opacity:1;stroke-dasharray:1.00000002, 1.00000002;stroke-dashoffset:0" id="g45712">
        <path style="fill:none;stroke:#000000;stroke-width:1;stroke-linecap:butt;stroke-linejoin:round;stroke-miterlimit:4;stroke-opacity:1;stroke-dasharray:1.00000002, 1.00000002;stroke-dashoffset:0" d="m 246.95601,-522.6378 -56.98984,-26.57481 0,-17.71654 56.98984,26.57481 z" id="path45708" inkscape:connector-curvature="0" transform="translate(0,308.2677)" sodipodi:nodetypes="ccccc"/>
        <path style="fill:none;stroke:#000000;stroke-width:1;stroke-linecap:butt;stroke-linejoin:round;stroke-miterlimit:4;stroke-opacity:1;stroke-dasharray:1.00000002, 1.00000002;stroke-dashoffset:0" d="m 246.95601,-540.35434 18.99662,-8.85826 -56.98985,-26.57481 -18.99662,8.85827 z" id="path45710" inkscape:connector-curvature="0" transform="translate(0,308.2677)"/>
      </g>
      <path transform="translate(0,308.2677)" inkscape:connector-curvature="0" id="path45716" d="m 189.96616,-549.2126 18.99662,-8.85827 0,-17.71654 -18.99662,8.85827 z" style="fill:none;stroke:#000000;stroke-width:1;stroke-linecap:butt;stroke-linejoin:round;stroke-miterlimit:4;stroke-opacity:1;stroke-dasharray:1.00000002, 1.00000002;stroke-dashoffset:0"/>
    </g>
    <g transform="translate(1.2398562,632.05327)" id="g45730" style="fill:none;stroke:#000000;stroke-width:1;stroke-linejoin:round;stroke-miterlimit:4;stroke-opacity:1;stroke-dasharray:1.00000002, 1.00000002;stroke-dashoffset:0">
      <path transform="translate(0,308.2677)" inkscape:connector-curvature="0" id="path45724" d="m 246.95601,-540.35434 0,-106.29921 18.99662,8.85827 0,106.29921 z" style="fill:none;stroke:#000000;stroke-width:1;stroke-linecap:butt;stroke-linejoin:round;stroke-miterlimit:4;stroke-opacity:1;stroke-dasharray:1.00000002, 1.00000002;stroke-dashoffset:0"/>
      <path transform="translate(0,308.2677)" inkscape:connector-curvature="0" id="path45726" d="m 246.95601,-646.65355 18.99662,-8.85827 18.99662,8.85827 -18.99662,8.85827 z" style="fill:none;stroke:#000000;stroke-width:1;stroke-linecap:butt;stroke-linejoin:round;stroke-miterlimit:4;stroke-opacity:1;stroke-dasharray:1.00000002, 1.00000002;stroke-dashoffset:0"/>
      <path transform="translate(0,308.2677)" inkscape:connector-curvature="0" id="path45728" d="m 265.95263,-637.79528 18.99662,-8.85827 0,106.29921 -18.99662,8.85827 z" style="fill:none;stroke:#000000;stroke-width:1;stroke-linecap:butt;stroke-linejoin:round;stroke-miterlimit:4;stroke-opacity:1;stroke-dasharray:1.00000002, 1.00000002;stroke-dashoffset:0"/>
    </g>
    <path inkscape:connector-curvature="0" id="path61703" d="m 206.40332,437.17135 41.79255,-19.48819" style="fill:none;stroke:#fff500;stroke-width:5;stroke-linecap:butt;stroke-linejoin:miter;stroke-miterlimit:4;stroke-opacity:1;stroke-dasharray:none;marker-start:url(#DotSe);marker-end:url(#TriangleOutSi)"/>
    <g transform="translate(1.2398562,632.05327)" id="g45741" style="fill:none;stroke:#000000;stroke-width:1;stroke-linejoin:round;stroke-miterlimit:4;stroke-opacity:1;stroke-dasharray:1.00000002, 1.00000002;stroke-dashoffset:0">
      <path transform="translate(0,308.2677)" inkscape:connector-curvature="0" id="path45735" d="m 246.95601,-540.35434 -30.39458,14.17323 18.99661,8.85827 30.39459,-14.17323 z" style="fill:none;stroke:#000000;stroke-width:1;stroke-linecap:butt;stroke-linejoin:round;stroke-miterlimit:4;stroke-opacity:1;stroke-dasharray:1.00000002, 1.00000002;stroke-dashoffset:0"/>
      <path transform="translate(0,308.2677)" inkscape:connector-curvature="0" id="path45737" d="m 216.56143,-526.18111 0,17.71654 18.99661,8.85827 0,-17.71654 z" style="fill:none;stroke:#000000;stroke-width:1;stroke-linecap:butt;stroke-linejoin:round;stroke-miterlimit:4;stroke-opacity:1;stroke-dasharray:1.00000002, 1.00000002;stroke-dashoffset:0"/>
      <path transform="translate(0,308.2677)" inkscape:connector-curvature="0" id="path45739" d="m 235.55804,-499.6063 30.39459,-14.17323 0,-17.71654 -30.39459,14.17323 z" style="fill:none;stroke:#000000;stroke-width:1;stroke-linecap:butt;stroke-linejoin:round;stroke-miterlimit:4;stroke-opacity:1;stroke-dasharray:1.00000002, 1.00000002;stroke-dashoffset:0"/>
    </g>
    <path inkscape:connector-curvature="0" id="path61701" d="m 160.81144,277.72253 155.77224,72.63779" style="fill:none;stroke:#000000;stroke-width:1px;stroke-linecap:butt;stroke-linejoin:miter;stroke-opacity:1"/>
  </g>
</svg>