<!-- Created with Inkscape (http://www.inkscape.org/) -->
<svg xmlns:rdf="http://www.w3.org/1999/02/22-rdf-syntax-ns#" xmlns="http://www.w3.org/2000/svg" xmlns:cc="http://creativecommons.org/ns#" xmlns:dc="http://purl.org/dc/elements/1.1/" id="svg5842" height="295.11" width="418.95" version="1.1" preserveAspectRatio="xMinYMin meet" viewBox="0 0 418.95 295.11">
 <metadata id="metadata5847">
  <rdf:RDF>
   <cc:Work rdf:about="">
    <dc:format>image/svg+xml</dc:format>
    <dc:type rdf:resource="http://purl.org/dc/dcmitype/StillImage"/>
    <dc:title/>
   </cc:Work>
  </rdf:RDF>
 </metadata>
 <g id="layer1" transform="translate(-27.666269,-307.6575)" stroke="#000" stroke-linecap="butt" stroke-width="1px">
  <g id="tucker_factor_A" stroke-linejoin="round" transform="translate(-321.35767,-802.65479)" fill="#00bfff">
   <path id="path5518" d="m349.54,1137.4,18.997-8.8583,87.384,40.748-18.997,8.8583z"/>
   <path id="path5526" d="m436.92,1178.1,18.997-8.8583,0,212.6-18.997,8.8583z"/>
   <path id="path5529" d="m349.54,1137.4,87.384,40.748,0,212.6l-87.38-40.7z"/>
  </g>
  <g id="tucker_core" stroke-linejoin="round" transform="translate(-997.63722,-910.72559)" fill="#FF0">
   <path id="path5547" d="m1101.8,1323.4,0,81.496,87.384,40.748,0-81.496z"/>
   <path id="path5549" d="m1101.8,1323.4,87.384-40.748,87.384,40.748-18.997,72.638z"/>
   <path id="path5551" d="m1189.2,1445.7,87.384-40.748,0-81.496-87.384,40.748z"/>
  </g>
  <g id="tucker_factor_B" stroke-linejoin="round" transform="translate(-222.57526,-675.09566)" fill="#adff2f">
   <path id="path5555" d="m493.91,1123.2,18.997-8.8582,155.77,72.638-18.997,8.8582z"/>
   <path id="path5557" d="m649.68,1195.9,18.997-8.8582,0,81.496-18.997,8.8583z"/>
   <path id="path5559" d="m493.91,1123.2,155.77,72.638,0.00001,81.496-155.77-72.638z"/>
  </g>
  <path id="path5577" stroke-linejoin="miter" d="m104.17,412.7,87.384,40.748,0,81.496" fill="none"/>
  <g id="tucker_factor_C" stroke-linejoin="round" transform="translate(-1022.7052,-898.87369)" fill="#ff4500">
   <path id="path5709" d="m1240.9,1258.4,0,17.717,87.384,40.748,0-17.716z"/>
   <path id="path5711" d="m1240.9,1258.4,110.18-51.378,87.384,40.748-110.18,51.378z"/>
   <path id="path5713" d="m1328.2,1316.9,110.18-51.378,0-17.716-110.18,51.378z"/>
  </g>
 </g>
</svg>